<?xml version="1.0"?>
<svg xmlns="http://www.w3.org/2000/svg" version="1.1" width="512" height="512" x="0" y="0" viewBox="0 0 56 56" style="enable-background:new 0 0 512 512" xml:space="preserve"><g><g xmlns="http://www.w3.org/2000/svg" id="Page-1" fill="none" fill-rule="evenodd"><g id="031---University" fill="rgb(0,0,0)" fill-rule="nonzero"><path id="Rectangle-path" d="m25 40h6v11h-6z" fill="#ffffff" data-original="#000000" style=""/><path id="Rectangle-path" d="m0 53h13v2h-13z" fill="#ffffff" data-original="#000000" style=""/><path id="Rectangle-path" d="m15 25h26v2h-26z" fill="#ffffff" data-original="#000000" style=""/><path id="Shape" d="m13 25c-1.1045695 0-2-.8954305-2-2h-6.764c-.37906699-.0012129-.72582347.2132797-.894.553l-1.724 3.447h11.382z" fill="#ffffff" data-original="#000000" style=""/><path id="Shape" d="m39 51v-22h-22v22h6v-12c0-.5522847.4477153-1 1-1h8c.5522847 0 1 .4477153 1 1v12zm-13-17c0 .5522847-.4477153 1-1 1s-1-.4477153-1-1v-2c0-.5522847.4477153-1 1-1s1 .4477153 1 1zm6 0c0 .5522847-.4477153 1-1 1s-1-.4477153-1-1v-2c0-.5522847.4477153-1 1-1s1 .4477153 1 1z" fill="#ffffff" data-original="#000000" style=""/><path id="Shape" d="m37.879 15.293c-.1877377-.1877946-.4424587-.2932088-.708-.293h-19.234c-.2967326.0001113-.5780911.1319981-.768.36l-3.034 3.64h27.451z" fill="#ffffff" data-original="#000000" style=""/><path id="Shape" d="m41 3.508h.013l-13.013-3.508-13 3.492 13.005 3.508z" fill="#ffffff" data-original="#000000" style=""/><path id="Shape" d="m43 27h11.382l-1.724-3.447c-.1681765-.3397203-.514933-.5542129-.894-.553h-6.764c0 1.1045695-.8954305 2-2 2z" fill="#ffffff" data-original="#000000" style=""/><path id="Shape" d="m27.486 8.932-7.486-2.01v6.078h16v-6.078l-7.486 2.01c-.3366717.09064851-.6913283.09064851-1.028 0z" fill="#ffffff" data-original="#000000" style=""/><path id="Rectangle-path" d="m13 21h30v2h-30z" fill="#ffffff" data-original="#000000" style=""/><path id="Shape" d="m15 29h-14v22h14zm-9 18c0 .5522847-.44771525 1-1 1s-1-.4477153-1-1v-2c0-.5522847.44771525-1 1-1s1 .4477153 1 1zm0-6c0 .5522847-.44771525 1-1 1s-1-.4477153-1-1v-2c0-.5522847.44771525-1 1-1s1 .4477153 1 1zm0-6c0 .5522847-.44771525 1-1 1s-1-.4477153-1-1v-2c0-.5522847.44771525-1 1-1s1 .4477153 1 1zm6 12c0 .5522847-.4477153 1-1 1s-1-.4477153-1-1v-2c0-.5522847.4477153-1 1-1s1 .4477153 1 1zm0-6c0 .5522847-.4477153 1-1 1s-1-.4477153-1-1v-2c0-.5522847.4477153-1 1-1s1 .4477153 1 1zm0-6c0 .5522847-.4477153 1-1 1s-1-.4477153-1-1v-2c0-.5522847.4477153-1 1-1s1 .4477153 1 1z" fill="#ffffff" data-original="#000000" style=""/><path id="Rectangle-path" d="m43 53h13v2h-13z" fill="#ffffff" data-original="#000000" style=""/><path id="Shape" d="m32 53h-8-9v3h26.001l-.001-3z" fill="#ffffff" data-original="#000000" style=""/><path id="Shape" d="m55 29h-14v22h14zm-9 18c0 .5522847-.4477153 1-1 1s-1-.4477153-1-1v-2c0-.5522847.4477153-1 1-1s1 .4477153 1 1zm0-6c0 .5522847-.4477153 1-1 1s-1-.4477153-1-1v-2c0-.5522847.4477153-1 1-1s1 .4477153 1 1zm0-6c0 .5522847-.4477153 1-1 1s-1-.4477153-1-1v-2c0-.5522847.4477153-1 1-1s1 .4477153 1 1zm6 12c0 .5522847-.4477153 1-1 1s-1-.4477153-1-1v-2c0-.5522847.4477153-1 1-1s1 .4477153 1 1zm0-6c0 .5522847-.4477153 1-1 1s-1-.4477153-1-1v-2c0-.5522847.4477153-1 1-1s1 .4477153 1 1zm0-6c0 .5522847-.4477153 1-1 1s-1-.4477153-1-1v-2c0-.5522847.4477153-1 1-1s1 .4477153 1 1z" fill="#ffffff" data-original="#000000" style=""/><path id="Shape" d="m41.078 5.54h-2.0000018l.0000018 3.73v.007c-.0011152 1.0268901.5120938 1.9861065 1.367 2.555.297245.1982824.6776931.2229246.9980331.0646441.3203401-.1582805.5319049-.4754371.555-.832s-.1457881-.6983617-.4430331-.8966441c-.2983566-.19821646-.4774779-.53280148-.477-.891v-.007z" fill="#ffffff" data-original="#000000" style=""/></g></g></g></svg>
