<svg width="20" height="20" viewBox="0 0 20 20" fill="none" xmlns="http://www.w3.org/2000/svg">
<path d="M11.2838 14.7348C10.9278 15.0022 10.472 15.1496 10.0001 15.1496C9.52833 15.1496 9.07246 15.0023 8.71649 14.7348L2.90492 10.3684C2.90492 10.3684 2.38037 9.97447 2.38037 10.8668C2.38037 11.88 2.38037 14.9199 2.38037 14.9199C2.38037 14.9604 2.38037 15.1639 2.38037 15.2269C2.38037 17.5238 5.79181 20 9.99999 20C14.2082 20 17.6196 17.5239 17.6196 15.2269C17.6196 15.1639 17.6196 14.9604 17.6196 14.9199C17.6196 14.9199 17.6196 11.6957 17.6196 10.6209C17.6196 9.9047 17.2467 10.2547 17.2467 10.2547L11.2838 14.7348Z"/>
<path d="M19.6651 6.89516C20.1116 6.55968 20.1116 6.01066 19.6651 5.67511L10.8119 0.251616C10.3653 -0.0838719 9.63461 -0.0838719 9.18806 0.251616L0.334912 5.67511C-0.111637 6.0106 -0.111637 6.55962 0.334912 6.89516L9.18806 13.5469C9.63461 13.8824 10.3653 13.8824 10.8119 13.5469"/>
<path d="M19.299 16.7545C19.299 14.9179 19.299 9.40818 19.299 9.40818C19.299 9.40818 19.3031 9.06023 19.1346 9.17513C18.9994 9.2673 18.668 9.4936 18.5513 9.61802C18.4165 9.76154 18.4468 10.0837 18.4468 10.0837C18.4468 10.0837 18.4468 15.0868 18.4468 16.7545C18.4468 16.8492 18.3804 16.8943 18.3487 16.9172C18.0427 17.1376 17.8369 17.5444 17.8369 18.0109C17.8369 18.7118 18.3007 19.28 18.8729 19.28C19.4451 19.28 19.9089 18.7118 19.9089 18.0109C19.9089 17.5427 19.7016 17.1345 19.3936 16.9147C19.363 16.8928 19.299 16.8491 19.299 16.7545Z"/>
</svg>
