<svg width="20" height="21" viewBox="0 0 20 21" fill="none" xmlns="http://www.w3.org/2000/svg">
<path d="M8.82812 14.2087H0.78125C0.349766 14.2087 0 14.5541 0 14.9801V19.6083C0 20.0343 0.349766 20.3796 0.78125 20.3796H8.82812C9.25961 20.3796 9.60938 20.0343 9.60938 19.6083V14.9801C9.60938 14.5541 9.25961 14.2087 8.82812 14.2087ZM8.04688 18.8369H1.5625V15.7515H8.04688V18.8369Z"/>
<path d="M8.82812 0.632812H0.78125C0.349766 0.632812 0 0.978151 0 1.40417V12.666C0 13.0921 0.349766 13.4374 0.78125 13.4374H8.82812C9.25961 13.4374 9.60938 13.0921 9.60938 12.666V1.40417C9.60938 0.978151 9.25961 0.632812 8.82812 0.632812ZM8.04688 11.8947H1.5625V2.17553H8.04688V11.8947Z"/>
<path d="M19.2188 0.632812H11.1719C10.7404 0.632812 10.3906 0.978151 10.3906 1.40417V6.03234C10.3906 6.45836 10.7404 6.8037 11.1719 6.8037H19.2188C19.6502 6.8037 20 6.45836 20 6.03234V1.40417C20 0.978151 19.6502 0.632812 19.2188 0.632812ZM18.4375 5.26098H11.9531V2.17553H18.4375V5.26098Z"/>
<path d="M19.2188 7.57495H11.1719C10.7404 7.57495 10.3906 7.92029 10.3906 8.34631V19.6082C10.3906 20.0342 10.7404 20.3795 11.1719 20.3795H19.2188C19.6502 20.3795 20 20.0342 20 19.6082V8.34631C20 7.92029 19.6502 7.57495 19.2188 7.57495ZM18.4375 18.8368H11.9531V9.11767H18.4375V18.8368Z"/>
</svg>
