<svg xmlns="http://www.w3.org/2000/svg" viewBox="0 0 468.14 312.17"><defs><style>.cls-1,.cls-9{fill:#c6ff00;}.cls-2,.cls-3,.cls-7{fill:#fff;}.cls-2{opacity:0.8;}.cls-3{opacity:0.5;}.cls-4{fill:#b8b8b8;}.cls-11,.cls-12,.cls-13,.cls-5{fill:none;}.cls-10,.cls-11,.cls-13,.cls-5,.cls-7,.cls-8,.cls-9{stroke:#263238;}.cls-5{stroke-miterlimit:10;}.cls-10,.cls-11,.cls-12,.cls-5,.cls-7,.cls-8,.cls-9{stroke-width:1.05px;}.cls-6{opacity:0.3;}.cls-10,.cls-11,.cls-12,.cls-13,.cls-7,.cls-8,.cls-9{stroke-linecap:round;stroke-linejoin:round;}.cls-8{fill:#263238;}.cls-10{fill:#737373;}.cls-12{stroke:#fff;}.cls-13{stroke-width:3.14px;}</style></defs><g id="Layer_2" data-name="Layer 2"><g id="Background_Simple" data-name="Background Simple"><path class="cls-1" d="M64,229.93S89,287,152.26,305.58s130.7-6.2,185.87-24.87S422.29,214.25,410,165.35s-58.76-45.43-102.1-88.9S259.63,14.84,199.56,2,73.76,39.71,57.32,111.32,64,229.93,64,229.93Z"/><path class="cls-2" d="M64,229.93S89,287,152.26,305.58s130.7-6.2,185.87-24.87S422.29,214.25,410,165.35s-58.76-45.43-102.1-88.9S259.63,14.84,199.56,2,73.76,39.71,57.32,111.32,64,229.93,64,229.93Z"/></g><g id="Trees"><path class="cls-1" d="M385.12,152.9s22.92,2.27,34.54,16.48c0,0,12.27-16.46,34.31-16.13a44.55,44.55,0,1,0-68.86-.31Z"/><path class="cls-3" d="M385.12,152.9s22.92,2.27,34.54,16.48c0,0,12.27-16.46,34.31-16.13a44.55,44.55,0,1,0-68.86-.31Z"/><polygon class="cls-4" points="418.9 83.42 418.12 231.96 421.99 231.96 418.9 83.42"/><path class="cls-4" d="M420.06,165.05s7.74-13.93,21.66-18.19c0,0-14.7,3.49-22.05,15.48Z"/><path class="cls-4" d="M420.06,125.59s7.74-13.93,21.66-18.19c0,0-14.7,3.48-22.05,15.48Z"/><path class="cls-4" d="M420.06,145.32s7.74-13.93,21.66-18.19c0,0-14.7,3.48-22.05,15.48Z"/><path class="cls-4" d="M418.91,135.64s-7.46-13.92-20.9-18.18c0,0,14.18,3.48,21.27,15.48Z"/><path class="cls-4" d="M418.91,155s-7.46-13.93-20.9-18.19c0,0,14.18,3.49,21.27,15.48Z"/><path class="cls-1" d="M10,152.9s22.92,2.27,34.54,16.48c0,0,12.27-16.46,34.31-16.13A44.55,44.55,0,1,0,10,152.94Z"/><path class="cls-3" d="M10,152.9s22.92,2.27,34.54,16.48c0,0,12.27-16.46,34.31-16.13A44.55,44.55,0,1,0,10,152.94Z"/><polygon class="cls-4" points="43.78 83.42 43 231.96 46.87 231.96 43.78 83.42"/><path class="cls-4" d="M44.94,165.05s7.74-13.93,21.66-18.19c0,0-14.7,3.49-22,15.48Z"/><path class="cls-4" d="M44.94,125.59s7.74-13.93,21.66-18.19c0,0-14.7,3.48-22,15.48Z"/><path class="cls-4" d="M44.94,145.32s7.74-13.93,21.66-18.19c0,0-14.7,3.48-22,15.48Z"/><path class="cls-4" d="M43.79,135.64s-7.46-13.92-20.9-18.18c0,0,14.18,3.48,21.27,15.48Z"/><path class="cls-4" d="M43.79,155s-7.46-13.93-20.9-18.19c0,0,14.18,3.49,21.27,15.48Z"/><path class="cls-1" d="M292,167.25s18.76,1.86,28.27,13.49c0,0,10-13.47,28.08-13.2a36.46,36.46,0,1,0-56.36-.25Z"/><path class="cls-3" d="M292,167.25s18.76,1.86,28.27,13.49c0,0,10-13.47,28.08-13.2a36.46,36.46,0,1,0-56.36-.25Z"/><polygon class="cls-4" points="319.64 110.38 319.01 231.96 322.18 231.96 319.64 110.38"/><path class="cls-4" d="M320.6,177.2s6.33-11.4,17.73-14.89c0,0-12,2.85-18.05,12.67Z"/><path class="cls-4" d="M320.6,144.9s6.33-11.4,17.73-14.88c0,0-12,2.85-18.05,12.66Z"/><path class="cls-4" d="M320.6,161.05s6.33-11.4,17.73-14.89c0,0-12,2.85-18.05,12.67Z"/><path class="cls-4" d="M319.66,153.13s-6.11-11.4-17.11-14.88c0,0,11.61,2.85,17.41,12.66Z"/><path class="cls-4" d="M319.66,169s-6.11-11.4-17.11-14.88c0,0,11.61,2.85,17.41,12.67Z"/><path class="cls-1" d="M110.49,167.25s18.76,1.86,28.27,13.49c0,0,10-13.47,28.08-13.2a36.45,36.45,0,1,0-56.36-.25Z"/><path class="cls-3" d="M110.49,167.25s18.76,1.86,28.27,13.49c0,0,10-13.47,28.08-13.2a36.45,36.45,0,1,0-56.36-.25Z"/><polygon class="cls-4" points="138.14 110.38 137.5 231.96 140.67 231.96 138.14 110.38"/><path class="cls-4" d="M139.09,177.2s6.33-11.4,17.73-14.89c0,0-12,2.85-18,12.67Z"/><path class="cls-4" d="M139.09,144.9s6.33-11.4,17.73-14.88c0,0-12,2.85-18,12.66Z"/><path class="cls-4" d="M139.09,161.05s6.33-11.4,17.73-14.89c0,0-12,2.85-18,12.67Z"/><path class="cls-4" d="M138.15,153.13S132,141.73,121,138.25c0,0,11.61,2.85,17.41,12.66Z"/><path class="cls-4" d="M138.15,169S132,157.56,121,154.08c0,0,11.61,2.85,17.41,12.67Z"/><line class="cls-5" x1="16.9" y1="232.49" x2="448.44" y2="232.49"/></g><g id="Characters"><path class="cls-6" d="M134.73,280.75c0,3-18.44,5.39-41.18,5.39s-41.18-2.41-41.18-5.39,18.43-5.39,41.18-5.39S134.73,277.78,134.73,280.75Z"/><path class="cls-6" d="M220.93,280.75c0,3-18.43,5.39-41.18,5.39s-41.18-2.41-41.18-5.39,18.44-5.39,41.18-5.39S220.93,277.78,220.93,280.75Z"/><path class="cls-6" d="M335.09,280.75c0,3-18.44,5.39-41.18,5.39s-41.18-2.41-41.18-5.39,18.43-5.39,41.18-5.39S335.09,277.78,335.09,280.75Z"/><path class="cls-6" d="M430.53,280.75c0,3-18.44,5.39-41.18,5.39s-41.18-2.41-41.18-5.39,18.44-5.39,41.18-5.39S430.53,277.78,430.53,280.75Z"/><path class="cls-7" d="M298.41,123.07s-1.69,7-1.69,8.18a10.06,10.06,0,0,1-.24,2.17s-3.6,4.32-3.12,5.53,2.4,2.16,2.4,2.16,1.93,7,3.85,7.46a46.54,46.54,0,0,0,6,.72l.73,5.77,9.62-1.44L313.56,145l1-7.46s1.69-3.12,0-8.17-5.29-5.3-7.69-5.3A83.81,83.81,0,0,1,298.41,123.07Z"/><path class="cls-8" d="M302.74,119.46s-8.42-.24-8.18,1.93,8.9,5,8.9,5-2.89,1.92-1.44,3.85,4.81,3.61,4.81,3.61-1,4.09.48,4.33,2.4-1.93,2.64-2.65,2.89-.48,3.61,1.44a10,10,0,0,1,.72,3.13s2.89-8.66,3.37-12.51S307.31,119.46,302.74,119.46Z"/><path class="cls-7" d="M308.08,138.31s2.9-6.4,4.64-3.25,1,6.43-.71,6.78-3.14.69-3.14.69"/><path class="cls-8" d="M296.24,205.09c-.47.54-8.17,17.08-9.14,22.61s-7.21,38.49-7.45,39.93-13.47,4.33-14.43,4.57,1,2.89,3.84,3.61,11.07,4.09,13,2.16,4.57-12.75,5.29-14,14.26-33.1,14.26-33.1,6.94-15.31,8.38-16.76-1.71-7.87-2.91-9.79S299.61,201.24,296.24,205.09Z"/><path class="cls-8" d="M294.8,205.33s3.37,16.12,5.05,21.89a46.05,46.05,0,0,0,7,13.47c1.92,2.65,11.3,26,11.3,26l1.44,3.6s-.48,1.45-3.12,3.37-10.1,5.05-8.18,5.77,9.62.73,13.23.49a12.53,12.53,0,0,0,8.18-3.85c1.44-1.69-2.41-6.5-2.41-7.46s-8.42-30.31-8.9-31.75-2.88-11.78-2.88-11.78V213.27s1.2-2.16,1.2-7-3.61-5.77-3.61-5.77l-19.72,1.93Z"/><path class="cls-9" d="M293.12,203.89s.48,4.09,1.92,4.33,16.36,4.33,22.85-.48c0,0,1.2-3.61.48-4.57s-2.4-.48-11.06-.48S293.12,202.69,293.12,203.89Z"/><path class="cls-9" d="M315.25,150s-8.9,1.2-12.75,5.05-7.22,10.83-8.9,17.32-2.89,30.31-.48,31.51,22.61,2.4,26,1-.24-12.75-.24-17.08,3.85-19,3.13-27.18S315.25,150,315.25,150Z"/><path class="cls-8" d="M283.08,175c-.11-9.9-4.15-18.35-9.51-22l0-2-14.8.15c-8.34.09-15,11-14.84,24.3s7,24.07,15.35,24l14.8-.15,0-2C279.32,193.44,283.18,184.9,283.08,175Z"/><path class="cls-7" d="M289.77,174.94c-.11-10.4-4.12-19.29-9.75-23.14l0-2.13-6.34.07c-8.75.09-15.73,11.52-15.58,25.53s7.36,25.29,16.12,25.2l6.34-.07,0-2.12C286.06,194.3,289.88,185.34,289.77,174.94Z"/><path class="cls-10" d="M296.11,174.87c.15,14-6.83,25.44-15.58,25.53s-16-11.19-16.12-25.19,6.83-25.44,15.58-25.54S296,160.86,296.11,174.87Z"/><path class="cls-8" d="M292.49,174.43c.07,6.64-3.24,12.06-7.39,12.11s-7.57-5.31-7.64-11.95,3.24-12.05,7.39-12.1S292.42,167.8,292.49,174.43Z"/><path class="cls-8" d="M410.33,224.26a121.35,121.35,0,0,0,1.05-18.59c-3.25,1.5-22.21,2.05-23.95,2.09s-20.7-.59-23.95-2.09a121.35,121.35,0,0,0,1,18.59c1.31,8.12,12.83,40.59,13.09,42.16a34.61,34.61,0,0,0,1.31,4.45s-6.54,4.72-9.42,6.55-.79,2.62,2.09,2.62,8.9-.79,10.74-.79c1.61,0,4.43-1.41,5.09-1.75.66.34,3.48,1.75,5.1,1.75,1.83,0,7.85.79,10.73.79s5-.79,2.1-2.62-9.43-6.55-9.43-6.55a34.61,34.61,0,0,0,1.31-4.45C397.5,264.85,409,232.38,410.33,224.26Z"/><path class="cls-9" d="M383.47,154.79s-10.12,3.31-15.36,6.63-10.48,21.3-10.48,22a22.41,22.41,0,0,1-1.22,3.66s-5.23-1.22-6.28,3.14,5.24,9.95,8.55,10.13,4.37-.87,4.37-.87-2.1,4.19-1.23,5.93,8.21,8.21,22.7,8,25-2.62,26.53-4.71,1.75-6.46,1.75-6.46,5.41-1.4,7.33-4.89,1.57-7.16.52-10.82-6.45-14.32-10.12-20.25-11.35-9.26-15-10.3S385.91,154.79,383.47,154.79Z"/><path class="cls-7" d="M386.54,169.49c1.45-.48,6-4.52,7.76-8.56a19.91,19.91,0,0,0,1.45-4.85l-.23-.07c-3.67-1-9.61-1.22-12-1.22,0,0-2.12.69-4.91,1.76a17.77,17.77,0,0,0,1.19,6.32C381.37,166.91,385.09,170,386.54,169.49Z"/><path class="cls-11" d="M403.2,177.65s4.19,22.35,8.9,24.62"/><path class="cls-11" d="M363.05,199.48s5.23-19.73,5.58-21.65"/><path class="cls-11" d="M410,187.75s-2.91.64-2.91,2.74"/><path class="cls-11" d="M360.69,188.07s3.23,2.1,2.91,5.33"/><path class="cls-9" d="M382.34,279.25c1.61,0,4.43-1.41,5.09-1.75.66.34,3.48,1.75,5.1,1.75,1.83,0,7.85.79,10.73.79s5-.79,2.1-2.62c-2.5-1.59-7.77-5.35-9.11-6.32-3.09,2.83-9.2,2.13-9.2,2.13a31.83,31.83,0,0,1-3.67-.78c-1.83-.53-4.45-1.58-4.45-1.58s-6.54,4.72-9.42,6.55-.79,2.62,2.09,2.62S380.5,279.25,382.34,279.25Z"/><line class="cls-12" x1="387.05" y1="270.97" x2="387.05" y2="225.31"/><polyline class="cls-11" points="387.43 277.5 387.05 273.23 387.05 270.97"/><line class="cls-12" x1="383.38" y1="223.74" x2="390.98" y2="223.74"/><path class="cls-8" d="M373.47,128.59s-5.45,3.26-4.63,6.12,3.26,3.41,2.72,5-2.45,2.59-.27,3.54a17.93,17.93,0,0,0,3.81,1.22s2,7,5.45,8.17,9.39.41,13.61-.13a7.08,7.08,0,0,0,6.13-5.18c.4-1.49-1.77.28-2.86-1.36s.54-5.85,1.77-9.53-2.45-10.62-7.22-12.93S378.09,122.46,373.47,128.59Z"/><path class="cls-7" d="M382.6,152.34a37.75,37.75,0,0,0-1.4,7c-.17,3,2.27,6.29,4.89,6.11s4.89-5.41,5.24-8-.88-9.6-.88-9.6-4,.18-5.58,1.57A9.82,9.82,0,0,0,382.6,152.34Z"/><path class="cls-7" d="M379.05,132.4s.13,4.08,4.22,8a25.28,25.28,0,0,0,8.58,5.45,7.64,7.64,0,0,1-.69,2.58,1.89,1.89,0,0,1-1.9,1H387.9s-2,4.68-4.43,5.37-8.37.21-9.19-5.78-.95-10.89-.27-12.12S379.05,132.4,379.05,132.4Z"/><path class="cls-7" d="M421.84,185.1a11,11,0,0,0,1.11-4c0-1.83-3.38-4.43-4-5.08s-1.24-.58-1.37.33a3.74,3.74,0,0,0,1.17,2.73,3.1,3.1,0,0,1,1.06,1.57c.05.45-1.12,2.66-.54,4.09S421.52,186.6,421.84,185.1Z"/><path class="cls-13" d="M286.42,174.88S301.08,179.6,310,190.6s14.67,9.42,25.66,5.76S350.83,179.6,366,190.6s18.33,15.18,30.9,8.9,19.38-21.47,30.9-16.24,6.28,32,7.33,45-.52,45.57,2.09,49.76,29.33,1,29.33,1"/><path class="cls-9" d="M314,157.41s-2.94-4.78-7.26-3.53c-4.56,1.32-6.93,7.85-8,11.92s-1.79,8.47-3.75,12.26c0,0-8.66-.15-13.49-1.55a114.2,114.2,0,0,1-10.86-4s-1.71-2.39-2.92-2.86-4.34-1.39-4.58-.67,3.64,3.09,3.64,3.09-7.2,1-7.91,1.77,5.08,3.07,5.08,3.07,2.17.7,7.45-.56c0,0,19.37,12.3,23.24,13.71s6,1.86,8.62-3.22,11.36-17.68,12.75-22.75"/><path class="cls-7" d="M275.66,174.55c-2.83-1.06-5.05-2-5.05-2s-1.71-2.39-2.92-2.86-4.34-1.39-4.58-.67,3.64,3.09,3.64,3.09-7.2,1-7.91,1.77,5.08,3.07,5.08,3.07,2.17.7,7.45-.56l2.71,1.71Z"/><path class="cls-7" d="M350.32,186.94a11,11,0,0,1-1.1-4c0-1.82,3.38-4.42,4-5.07s1.23-.59,1.36.33a3.74,3.74,0,0,1-1.17,2.73,3.06,3.06,0,0,0-1.05,1.57c-.05.44,1.12,2.66.53,4.09S350.65,188.43,350.32,186.94Z"/><path class="cls-7" d="M352.65,181.45s-2.78,5.15-1.17,7,3.19-4.16,3.49-5.82S353.69,179.28,352.65,181.45Z"/><path class="cls-7" d="M355,183.25s-2.78,5.15-1.17,7,3.19-4.16,3.49-5.82S356,181.09,355,183.25Z"/><path class="cls-7" d="M357.48,183.73s-2.79,5.15-1.17,7,3.19-4.16,3.49-5.82S358.51,181.57,357.48,183.73Z"/><path class="cls-7" d="M360.72,183.77s-2.6,4-1.17,5.51,2.94-3.24,3.24-4.61S361.69,182,360.72,183.77Z"/><path class="cls-7" d="M420,181.65s2.79,5.15,1.17,7-3.19-4.17-3.48-5.83S419,179.49,420,181.65Z"/><path class="cls-7" d="M417.68,183.45s2.79,5.15,1.17,7-3.19-4.17-3.48-5.83S416.65,181.29,417.68,183.45Z"/><path class="cls-7" d="M415.16,183.93s2.78,5.15,1.17,7-3.19-4.17-3.49-5.83S414.12,181.77,415.16,183.93Z"/><path class="cls-7" d="M411.92,184s2.6,4.05,1.17,5.51-2.95-3.24-3.24-4.61S411,182.17,411.92,184Z"/><path class="cls-7" d="M67.85,241v5.68a18.17,18.17,0,0,0-4.13,7.58c-1.2,4.64-5,24.61-4,25.13s10.39,2.67,13.41,2.22c3.44-.52,6.37-.35,4.65-2.24S67,272.11,67,272.11s10-14.46,12.22-19.8,2.59-13.6,2.59-13.6l-13.43-.51Z"/><path class="cls-8" d="M73.17,281.56c3.44-.52,6.37-.35,4.65-2.24S67,272.11,67,272.11l-.34,2.06-6.55-.8c-.48,3.34-.69,5.79-.34,6C60.8,279.85,70.15,282,73.17,281.56Z"/><path class="cls-7" d="M100.73,243.89l1.55,2.76a10.07,10.07,0,0,0-.52,8.09c1.55,4.82,5.17,22.55,5.17,23.58s2.24,1.72,4,1.72,6.66.34,7.35.34,5.68.86,7.41-.17-2.2-3.1-4.78-4.3-8.26-4.3-8.26-4.3S114,257.49,114,251.29s1.37-8.26-.52-12S99.7,241,99.7,241Z"/><path class="cls-8" d="M120.87,275.91c-2.58-1.21-8.26-4.3-8.26-4.3l-.69,2.58-5.52,1c.32,1.71.53,2.89.53,3.14,0,1,2.24,1.72,4,1.72s6.66.34,7.35.34,5.68.86,7.41-.17S123.45,277.11,120.87,275.91Z"/><path class="cls-7" d="M91.46,129.32a47.36,47.36,0,0,0-4.61-6.54c-2.37-2.67-9.8-2.52-13.06,1s-2.23,9.8-1,11.58,3.71,10.1,3.71,10.1l.59,5.94,13.81,4.9L88,146.69s5.35-1,5.79-2.67-.89-7.28-.89-7.28,1.78-1.19,1.64-2.23S91.46,129.32,91.46,129.32Z"/><path class="cls-8" d="M75.57,135.7s2.36,2,3.66-.29,2.26-4.53,2.26-6.47-4.85-3.55-1.62-4.85,5.56,1.59,7-1.31.13-3.21-7.62-3.21-11.64,3.88-10,8.73a65.31,65.31,0,0,0,4.85,10.34Z"/><path class="cls-11" d="M91.9,132.73A3.71,3.71,0,1,1,88.19,129,3.71,3.71,0,0,1,91.9,132.73Z"/><path class="cls-11" d="M91.36,129.44a3.62,3.62,0,0,1,1.36-.27,3.49,3.49,0,0,1,1.69,6.54"/><line class="cls-7" x1="84.48" y1="132.73" x2="75.57" y2="135.7"/><path class="cls-7" d="M78.09,137.63s-1.78-3.71-3.56-3-.89,6.54.89,7.13a3.86,3.86,0,0,0,3.42-.89s1.48,3.12,3.26,4"/><path class="cls-9" d="M66.45,204.25l-1.1,14.22L62,239.52s7.76,6.09,15,6.09,9.23-.92,9.23-.92l4.07-21.6,4.06,22.71s7.94-1.29,13.29-2.59a35.08,35.08,0,0,0,10.34-4.8l-10.71-27.88-2.32-14.38s-12,1.11-19.21,1.48-16.8-1.48-16.8-1.48Z"/><path class="cls-8" d="M74.06,147.48s17,5.93,22.25,11.69c2.9,3.2,6.15,25.1,7.32,30.45s3.21,16,3.21,16-10.36,4.68-18.39,4.85S65,207,65,207s1.83-23.73,1.83-34.76.17-18.23,2-21.74C68.88,150.49,71.89,147.14,74.06,147.48Z"/><path class="cls-11" d="M69.59,208.68s.93,15.51,0,21.24a44.06,44.06,0,0,1-3.32,10.71"/><path class="cls-11" d="M70,216.07a8.47,8.47,0,0,0,5.54-6.28"/><path class="cls-11" d="M63,236.57s9.23,7.94,23.63,5"/><path class="cls-11" d="M94,241.18s15.14-1.66,21.79-6.09"/><path class="cls-8" d="M161.69,140.34s-1.46,1.08-6.55,4.8-1.08,9.34-1.08,9.34-3.64.57-8.5,5.68,2.17,13.88,8.75,15.25,14.24-6.76,16.55-14.3-.75-18.91-2.28-21.26S161.69,140.34,161.69,140.34Z"/><path class="cls-8" d="M181,139.28s2.54-3.91.24-9.58-9.12-8.26-15.79-4.15a11.73,11.73,0,0,0-5.33,13.29c.65,2.62,3.94,6.65,4.62,6.71s6.68,2.24,10.77.33S181,139.28,181,139.28Z"/><path class="cls-10" d="M151.54,271.25s4.75,7.39,13,8.65.84-6.14-.56-7.26S152.66,269.15,151.54,271.25Z"/><path class="cls-10" d="M195.49,273.2s9.07,2.23,8.38,4.19-8.1,1.81-12.42.69-8.37-2.79-7.82-4.6S195.49,273.2,195.49,273.2Z"/><path class="cls-9" d="M169.7,154s-12.14,1.78-14.36,6.07.91,27.66.91,27.66-5.18,11.42-5.24,18.79,3.2,20.31,3,23.54-3.59,40-3.59,41,7,3.24,17.09,4.44,29.39-2.39,29.39-2.39-.38-21.7.64-34.64-.44-24.57-3-29.4S180,186.86,180,186.86s5.79-10.52,6.15-15.12-1.51-7-5.89-12.29A15.27,15.27,0,0,0,169.7,154Z"/><path class="cls-10" d="M180,186.86s5.79-10.52,6.15-15.12-1.51-7-5.89-12.29c-.21-.26-.43-.49-.65-.73l-.16.15c-4.5,7.35-19.37,19.91-23.81,23.57.34,3.13.63,5.29.63,5.29s-5.18,11.42-5.24,18.79a65.68,65.68,0,0,0,1,10c10.51-6,24.58-17.23,32.18-23.49C181.8,189.51,180,186.86,180,186.86Z"/><path class="cls-7" d="M167.46,145.42a75.07,75.07,0,0,1,.55,8.27c-.16,2.05.5,6.73,4,8.2s5.7-.58,5.69-2.64a21.13,21.13,0,0,0-1-5.05l.1-5.65S170.76,144.82,167.46,145.42Z"/><path class="cls-7" d="M164.32,141.75s-2.56-2.26-2.65,1,2.92,4.34,3.59,4.56,1.57-.39,1.57-.39,4.66,4,8.41,4.26,5.25-1.47,6.13-8.26-6.12-13.68-6.12-13.68S169.24,140.25,164.32,141.75Z"/><path class="cls-7" d="M107.09,205.48a9.22,9.22,0,0,1,.56-3.4c.63-1.36,4-2.14,4.76-2.41s1.12,0,.91.72A3.14,3.14,0,0,1,111.5,202a2.5,2.5,0,0,0-1.32.81c-.19.31-.08,2.37-1,3.24S106.82,206.71,107.09,205.48Z"/><path class="cls-13" d="M183.77,175.41s-12.05-1.57-17.28,6.81S151.3,219.92,133,224.64s-23.57-33-34.57-31.95c-10.47,1-17.8,0-24.09,11.52-3.36,6.17-20.15,73.54-28.1,74.23-25.29,2.21-41.56.77-41.56.77"/><path class="cls-8" d="M74.84,148s-2.77-1.11-6.46,1.1-13.67,26.41-12.93,29,11.27,7.39,17.17,9,16.62,3.7,16.62,3.7,3.33,5.17,4.43,5.35a24.18,24.18,0,0,0,4.81-.55s2,1.66,2.77-.19-.74-4.24-2.4-6.09-8.68-2.77-8.68-2.77l-19-13.11,7.94-14.77"/><path class="cls-7" d="M93.67,196.15a24.18,24.18,0,0,0,4.81-.55s2,1.66,2.77-.19-.74-4.24-2.4-6.09-8.68-2.77-8.68-2.77l-19-13.11L74,168.15c-7.12-4.43-11.83-4.1-14.38-3.21-2.56,6.12-4.5,11.92-4.16,13.11.74,2.59,11.27,7.39,17.17,9s16.62,3.7,16.62,3.7S92.57,196,93.67,196.15Z"/><path class="cls-8" d="M212.63,175.82c-.81-8.73-5-15.9-10-18.75l-.16-1.78-13.06,1.21c-7.34.68-12.42,10.77-11.33,22.52s7.94,20.74,15.29,20.06l13-1.21-.17-1.78C210.65,192.36,213.44,184.55,212.63,175.82Z"/><path class="cls-7" d="M218.53,175.27c-.85-9.17-5-16.72-10.29-19.72l-.17-1.87-5.6.52c-7.72.72-13.05,11.31-11.9,23.67s8.33,21.79,16.05,21.07l5.6-.52-.18-1.87C216.66,192.64,219.38,184.44,218.53,175.27Z"/><path class="cls-7" d="M224.12,174.75c1.15,12.36-4.18,22.95-11.9,23.67s-14.91-8.72-16.06-21.07,4.18-22.95,11.91-23.67S223,162.4,224.12,174.75Z"/><path class="cls-10" d="M230.15,167.53l-21.69,2a2.32,2.32,0,0,1-2.53-2.1h0a2.32,2.32,0,0,1,2.1-2.53l21.69-2a2.32,2.32,0,0,1,2.53,2.1h0A2.32,2.32,0,0,1,230.15,167.53Z"/><path class="cls-10" d="M231.75,184.72l-21.7,2a2.33,2.33,0,0,1-2.53-2.1h0a2.33,2.33,0,0,1,2.1-2.53l21.7-2a2.34,2.34,0,0,1,2.53,2.1h0A2.33,2.33,0,0,1,231.75,184.72Z"/><path class="cls-9" d="M162.2,155.63s-5.22,1-7.68,4-7.54,26.15-6.38,28.81,19.92,6,25.72,6.48a83,83,0,0,0,13.93-.62s5-.13,6.37-.36,3.89-1.58,3.93-2.09-.2-1.73-2.08-1.88-5.88-1.49-6.39-1.53a32.84,32.84,0,0,1,3.66-.74s.25-1-1.81-1-3.93-.14-4.71,1a17.2,17.2,0,0,0-1.42,2.8s-11.54.81-17.82-2.25-8.25-4.08-8.25-4.08l4.5-18"/><path class="cls-7" d="M194.16,194c1.39-.23,3.89-1.58,3.93-2.09s-.2-1.73-2.08-1.88-5.88-1.49-6.39-1.53a32.84,32.84,0,0,1,3.66-.74s.25-1-1.81-1-3.93-.14-4.71,1a17.2,17.2,0,0,0-1.42,2.8s-11.54.81-17.82-2.25-8.25-4.08-8.25-4.08l2.75-11a39.28,39.28,0,0,0-11.17-2.77c-1.88,7.54-3.41,16.42-2.71,18,1.16,2.66,19.92,6,25.72,6.48a83,83,0,0,0,13.93-.62S192.77,194.2,194.16,194Z"/><path class="cls-7" d="M109.67,203.54s-3.85,2.89-3.27,4.8,3.82-2,4.61-3.15S111.18,202.28,109.67,203.54Z"/><path class="cls-7" d="M110.43,206.13s-3.85,2.89-3.27,4.8,3.82-2,4.61-3.15S111.94,204.87,110.43,206.13Z"/><path class="cls-7" d="M112.27,207.81s-3.85,2.89-3.27,4.8,3.82-2,4.61-3.15S113.78,206.55,112.27,207.81Z"/><path class="cls-7" d="M113.77,209.17s-3.33,2.14-2.77,3.72,3.32-1.41,4-2.33S115.11,208.16,113.77,209.17Z"/><path class="cls-8" d="M158.31,63V48.31c0-8.83,6.12-14.76,15.26-14.76s15.31,5.93,15.31,14.76V63c0,8.9-6.11,14.82-15.31,14.82S158.31,71.91,158.31,63Zm24.64.25v-15c0-5.74-3.76-9.57-9.38-9.57s-9.33,3.83-9.33,9.57v15c0,5.68,3.77,9.45,9.33,9.45S183,68.94,183,63.26Z"/><path class="cls-8" d="M197.34,69a25,25,0,0,1-1.11-7.53,24,24,0,0,1,1.05-7.41c1.79-5.44,6.55-8.71,12.85-8.71,6,0,10.62,3.27,12.47,8.65a23.34,23.34,0,0,1,1.11,7.41A24.54,24.54,0,0,1,222.6,69c-1.85,5.5-6.54,8.77-12.54,8.77C203.89,77.77,199.13,74.5,197.34,69ZM217,67.34a22.44,22.44,0,0,0,.68-5.81,23.66,23.66,0,0,0-.61-5.74,7.41,7.41,0,0,0-14.21,0,20.65,20.65,0,0,0-.68,5.74,21.83,21.83,0,0,0,.68,5.81,7.36,7.36,0,0,0,14.14,0Z"/><path class="cls-8" d="M258.05,61.65a25.28,25.28,0,0,1-.93,7.48c-1.66,5.31-5.62,8.64-11.85,8.64a9.34,9.34,0,0,1-7.17-3.15c-.18-.18-.37-.12-.37.13v13.4a.87.87,0,0,1-.92.92h-4.08a.87.87,0,0,1-.93-.92V46.77a.88.88,0,0,1,.93-.93h4.08a.88.88,0,0,1,.92.93v1.61c0,.24.19.37.37.18a9.19,9.19,0,0,1,7.17-3.21c6,0,9.94,3.21,11.67,8.4A23.55,23.55,0,0,1,258.05,61.65Zm-5.93-.12a16.16,16.16,0,0,0-1.54-7.66,6.28,6.28,0,0,0-5.93-3.39,5.92,5.92,0,0,0-5.37,3.33c-1,1.79-1.49,4.39-1.49,7.78s.56,6,1.61,7.91a5.76,5.76,0,0,0,5.25,3.15,6.19,6.19,0,0,0,5.49-3A14.62,14.62,0,0,0,252.12,61.53Z"/><path class="cls-8" d="M264.22,69.19v-.37a.88.88,0,0,1,.93-.93H269c.56,0,.93.19.93.43v.5c0,2.22,2.71,4.32,6.6,4.32s6.3-1.85,6.3-4.26c0-2.66-3.09-3.52-6.79-4.57-5.43-1.48-11.55-3.4-11.55-9.76,0-5.62,4.82-9,11.86-9,7.29,0,12,3.76,12,8.89,0,.49-.37.8-.93.8h-3.7c-.56,0-.93-.18-.93-.43v-.37c0-2.29-2.4-4.2-6.54-4.2-3.58,0-6.12,1.42-6.12,3.89,0,2.66,3,3.58,6.92,4.69,5.31,1.42,11.67,3.21,11.67,9.7,0,5.62-4.82,9.14-12.16,9.14S264.22,73.88,264.22,69.19Z"/><path class="cls-8" d="M297,72.83a4.48,4.48,0,0,1,9,0,4.37,4.37,0,0,1-4.51,4.26A4.27,4.27,0,0,1,297,72.83ZM299.12,62l-.56-27a.88.88,0,0,1,.93-.93h4.07a.88.88,0,0,1,.93.93L304,62a.88.88,0,0,1-.93.93h-3A.87.87,0,0,1,299.12,62Z"/></g></g></svg>