<svg width="20" height="20" viewBox="0 0 20 20" fill="none" xmlns="http://www.w3.org/2000/svg">
<path d="M5.4138 2.59716L9.01434 0.786468L8.65375 0.284206C8.45474 0.00701989 8.02447 -0.0829405 7.6931 0.0837381L5.29269 1.29084C4.96146 1.4574 4.85406 1.81752 5.05317 2.09486L5.4138 2.59716Z" />
<path d="M19.8982 13.6746C19.6975 13.398 19.2667 13.3097 18.9362 13.4777L15.0293 15.4641C15.2151 15.8371 15.3359 16.2375 15.3812 16.6562L19.6629 14.4793C19.9938 14.3113 20.0988 13.9512 19.8982 13.6746Z" />
<path d="M16.1021 18.8281H14.0019V17.0312C14.0019 15.4158 12.4316 14.1016 10.5015 14.1016C8.57132 14.1016 7.00102 15.4158 7.00102 17.0312V18.8281H4.90077C4.51414 18.8281 4.20068 19.0905 4.20068 19.414C4.20068 19.7376 4.51414 20 4.90077 20H16.1021C16.4888 20 16.8022 19.7376 16.8022 19.414C16.8022 19.0905 16.4888 18.8281 16.1021 18.8281ZM10.5015 17.6172C10.1148 17.6172 9.80136 17.3548 9.80136 17.0312C9.80136 16.7076 10.1148 16.4453 10.5015 16.4453C10.8881 16.4453 11.2015 16.7076 11.2015 17.0312C11.2015 17.3548 10.8881 17.6172 10.5015 17.6172Z" />
<path d="M5.29542 4.70725L6.03396 5.73595L7.5272 4.98025C9.29725 4.08451 11.5792 4.58369 12.6296 6.02056C13.7105 7.49958 13.1439 9.42903 11.3665 10.3199L9.86511 11.0725L10.3435 11.7387C10.5434 12.0172 10.9755 12.1057 11.3062 11.9381C11.3282 11.927 11.5626 11.8092 11.9164 11.6312L12.9905 13.1273C13.1899 13.4052 13.6207 13.494 13.9511 13.3278L16.3515 12.1207C16.6829 11.954 16.7901 11.5941 16.591 11.3166L15.5169 9.82056C15.8753 9.64036 16.1048 9.52493 16.1048 9.52493C16.4362 9.35825 16.5435 8.99829 16.3444 8.72091C16.3276 8.69759 11.2917 1.68186 11.2734 1.65948C11.0638 1.40417 10.653 1.32948 10.3358 1.48905L5.53494 3.90322C5.20352 4.0699 5.09627 4.42986 5.29542 4.70725Z" />
<path d="M5.60068 17.0315C5.60068 15.8848 6.16603 14.8468 7.07534 14.1018H6.30077C5.14269 14.1018 4.20051 13.3133 4.20051 12.344C4.20051 11.3747 5.14269 10.5862 6.30049 10.5862C6.30081 10.5862 7.9161 10.5868 7.91601 10.5868C8.04272 10.5867 8.16701 10.558 8.27571 10.5035L10.647 9.31491C11.7558 8.75913 12.1095 7.5553 11.4351 6.63253C10.77 5.72273 9.34189 5.43168 8.25158 5.98343L6.0998 7.07245C2.71815 7.16132 0 9.4919 0 12.344C0 15.0537 2.45469 17.2923 5.60068 17.5847V17.0315Z" />
</svg>
