<svg xmlns="http://www.w3.org/2000/svg" xmlns:xlink="http://www.w3.org/1999/xlink" viewBox="0 0 541.38 360.19"><defs><style>.cls-1{fill:none;}.cls-2{fill:url(#linear-gradient);}.cls-3{fill:url(#linear-gradient-2);}.cls-4{fill:#64a4ff;}.cls-5{fill:#bbd070;}.cls-6{fill:#97a43c;}.cls-7{fill:#48753a;}.cls-8{fill:#dbd8e3;}.cls-9{fill:#323657;}.cls-10{fill:#eea987;}.cls-11{fill:#e8734d;}.cls-12{fill:#c4c1cc;}.cls-13{fill:#efaa88;}.cls-14{fill:#eea886;}.cls-15{fill:#16202e;}.cls-16{fill:#a77860;}.cls-17{fill:#4da8f2;}.cls-18{fill:#ffc955;}.cls-19{clip-path:url(#clip-path);}.cls-20{fill:#96cbff;}.cls-21{fill:#95caff;}.cls-22{fill:#94c9ff;}.cls-23{fill:#93c9ff;}.cls-24{fill:#92c8ff;}.cls-25{fill:#91c7ff;}.cls-26{fill:#90c6ff;}.cls-27{fill:#8fc6ff;}.cls-28{fill:#8ec5ff;}.cls-29{fill:#8dc4ff;}.cls-30{fill:#8cc3ff;}.cls-31{fill:#8bc2ff;}.cls-32{fill:#8ac2ff;}.cls-33{fill:#89c1ff;}.cls-34{fill:#88c0ff;}.cls-35{fill:#87bfff;}.cls-36{fill:#86bfff;}.cls-37{fill:#85beff;}.cls-38{fill:#84bdff;}.cls-39{fill:#83bcff;}.cls-40{fill:#82bbff;}.cls-41{fill:#81bbff;}.cls-42{fill:#80baff;}.cls-43{fill:#7fb9ff;}.cls-44{fill:#7eb8ff;}.cls-45{fill:#7db7ff;}.cls-46{fill:#7cb7ff;}.cls-47{fill:#7bb6ff;}.cls-48{fill:#7ab5ff;}.cls-49{fill:#79b4ff;}.cls-50{fill:#78b4ff;}.cls-51{fill:#77b3ff;}.cls-52{fill:#76b2ff;}.cls-53{fill:#74b1ff;}.cls-54{fill:#73b0ff;}.cls-55{fill:#72b0ff;}.cls-56{fill:#71afff;}.cls-57{fill:#70aeff;}.cls-58{fill:#6fadff;}.cls-59{fill:#6eadff;}.cls-60{fill:#6dacff;}.cls-61{fill:#6cabff;}.cls-62{fill:#6baaff;}.cls-63{fill:#6aa9ff;}.cls-64{fill:#69a9ff;}.cls-65{fill:#68a8ff;}.cls-66{fill:#67a7ff;}.cls-67{fill:#66a6ff;}.cls-68{fill:#65a6ff;}.cls-69{fill:#64a5ff;}.cls-70{fill:#63a4ff;}.cls-71{fill:#62a3ff;}.cls-72{fill:#61a2ff;}.cls-73{fill:#60a2ff;}.cls-74{fill:#5fa1ff;}.cls-75{fill:#5ea0ff;}.cls-76{fill:#5d9fff;}.cls-77{fill:#5c9eff;}.cls-78{fill:#5b9eff;}.cls-79{fill:#5a9dff;}.cls-80{fill:#599cff;}.cls-81{fill:#589bff;}.cls-82{fill:#579bff;}.cls-83{fill:#569aff;}.cls-84{fill:#59f;}.cls-85{fill:#cfa345;}.cls-86{fill:#6069a8;}.cls-87{fill:#202338;}.cls-88{fill:#464240;}.cls-89{fill:#eb4747;}.cls-90{fill:#5f8cc9;}.cls-91{fill:#5e5853;}.cls-92{fill:#91887f;}.cls-93{fill:#eddad3;}.cls-94{fill:#6e6760;}.cls-95{fill:#807066;}.cls-96{fill:#ffcb55;}.cls-97{fill:#cf8c6c;}.cls-98{fill:#3b3f66;}.cls-99{fill:#555c94;}.cls-100{fill:#354c70;}.cls-101{fill:#deb135;}.cls-102{fill:#f2c344;}.cls-103{fill:#d9d0c4;}.cls-104{fill:#ffd255;}.cls-105{fill:#3c5780;}.cls-106{fill:#c48a6f;}.cls-107{clip-path:url(#clip-path-2);}.cls-108{fill:#db9c7c;}.cls-109{clip-path:url(#clip-path-3);}.cls-110{fill:#293b57;}.cls-111{fill:#e3f2ff;}.cls-112{fill:#ebebeb;}.cls-113{fill:#162d40;}.cls-114{fill:#1d3b54;}.cls-115{fill:#d1c0ba;}.cls-116{fill:#fae6de;}.cls-117{fill:#54281a;}.cls-118{fill:#366e9c;}.cls-119{fill:#5c544d;}.cls-120{fill:#3c4145;}.cls-121{fill:#fccca2;}.cls-122{fill:#e2d2ca;}.cls-123{fill:#f25f54;}.cls-124{fill:#c98462;}.cls-125{fill:#de9d7d;}.cls-126{fill:#252e3b;}.cls-127{fill:#5fa0ff;}.cls-128{fill:#5189db;}.cls-129{fill:#c2bebc;}.cls-130{fill:#d6d6d6;}.cls-131{fill:#e8e8e8;}.cls-132{fill:#c2c2c2;}</style><linearGradient id="linear-gradient" x1="386.99" y1="225.24" x2="541.38" y2="225.24" gradientUnits="userSpaceOnUse"><stop offset="0" stop-color="#96cbff"/><stop offset="1" stop-color="#59f"/></linearGradient><linearGradient id="linear-gradient-2" x1="-147.74" y1="796.5" x2="-32.46" y2="796.5" gradientTransform="matrix(0.99, -0.1, 0.1, 0.99, 149.38, -677.09)" xlink:href="#linear-gradient"/><clipPath id="clip-path"><rect class="cls-1" x="30.74" y="251.19" width="308.12" height="4.88"/></clipPath><clipPath id="clip-path-2"><path class="cls-1" d="M297,283.89l.53-.25-2.42-5.13-1.36.63,2.05,4.36A.84.84,0,0,0,297,283.89Z"/></clipPath><clipPath id="clip-path-3"><polygon class="cls-1" points="291.96 279.62 297.3 278.63 296.43 274.25 291.13 275.46 291.96 279.62"/></clipPath></defs><g id="Layer_2" data-name="Layer 2"><g id="Слой_1" data-name="Слой 1"><path class="cls-2" d="M521.15,259.49a65.9,65.9,0,0,0,7.21-17l12.76-2.44.13-14.11.13-14.11-12.71-2.68a65.8,65.8,0,0,0-6.89-17.1l7.29-10.74-9.89-10.07-9.88-10.07-10.87,7.08a66.6,66.6,0,0,0-17-7.21L479,148.31l-14.11-.13-14.11-.13-2.68,12.7a66.15,66.15,0,0,0-17.1,6.89l-10.74-7.28-10.07,9.88-10.07,9.88L407.21,191A66.18,66.18,0,0,0,400,208l-12.75,2.44-.13,14.11L387,238.63l12.7,2.68a66.21,66.21,0,0,0,6.89,17.11l-7.28,10.74,9.88,10.07,9.88,10.07,10.88-7.09a66,66,0,0,0,17,7.21l2.44,12.76,14.11.13,14.11.13,2.68-12.71a65.86,65.86,0,0,0,17.11-6.89l10.74,7.29,10.07-9.89,10.07-9.88Zm-81.66-10a34.6,34.6,0,1,1,48.93.45A34.6,34.6,0,0,1,439.49,249.48Z"/><path class="cls-3" d="M186.08,145.57a49.49,49.49,0,0,0,4.06-13.16l9.29-2.79-1-10.49-1-10.49-9.64-1a49.24,49.24,0,0,0-6.43-12.18L186,86.9l-8.12-6.72-8.11-6.73-7.53,6.1a49.13,49.13,0,0,0-13.16-4.06l-2.79-9.29-10.49,1-10.49,1-1,9.64a49.72,49.72,0,0,0-12.18,6.42l-8.53-4.59-6.73,8.11-6.73,8.11,6.1,7.54a49,49,0,0,0-4.06,13.16l-9.29,2.78,1,10.5,1,10.49,9.64,1a49.6,49.6,0,0,0,6.43,12.18l-4.6,8.53,8.11,6.73,8.11,6.72,7.54-6.09a49.49,49.49,0,0,0,13.16,4.06l2.79,9.29,10.49-1,10.49-1,1-9.65a49,49,0,0,0,12.18-6.42l8.53,4.59,6.73-8.11,6.72-8.11Zm-61.42-1.21A25.83,25.83,0,1,1,161,141,25.84,25.84,0,0,1,124.66,144.36Z"/><path class="cls-4" d="M497.39,357.74h-.88V294.88a25.4,25.4,0,0,0-25.37-25.37H406.46a26.28,26.28,0,0,1-26.25-26.25V125.75a25.4,25.4,0,0,0-25.37-25.37H189.91V99.5H354.84a26.28,26.28,0,0,1,26.25,26.25V243.26a25.4,25.4,0,0,0,25.37,25.37h64.68a26.27,26.27,0,0,1,26.25,26.25Z"/><path class="cls-5" d="M232.19,59.68s10,39.75-14,50.61-19.37-9-19.37-9-9.83-2.73,16.92-17.9C228.36,76.22,232.19,59.68,232.19,59.68Z"/><path class="cls-6" d="M295,63.15s4.91,34.64-40.44,49.62-51.82,34-51.82,34S201.33,70,295,63.15Z"/><path class="cls-7" d="M202.49,132.63C189,127.5,221,100,245.58,100.72s41.21,9.84,57.67,6C303.25,106.71,268.72,157.91,202.49,132.63Z"/><path class="cls-8" d="M247.67,155.63q1.17-15.67,1.62-29.33c-2.52-1.34-5.55-2.9-8-4-7.51-3.57-18-8.39-24.68-11.47-3.93-1.8-7.78-3.12-7.78-3.12s-26.82-2.57-29-2.43a68.15,68.15,0,0,0-8.44,2.88c-9.51,3.61-27.85,11-30.77,13.06-4.28,3.06-19.6,78.16-20,83.26s20.84,11.73,40.5,16.93c0,7.61-.17,18.28-.34,28,0,1.67-.06,3.3-.09,4.88h86.05c-.12-1.67-.22-3.32-.3-4.88,0-.2,0-.41,0-.61-.33-6.6-1.61-18.41-1.29-29.91,0,0-.21-12.13,1-17.35C246.28,178.46,247.67,155.63,247.67,155.63Zm-109.1,44.16c.14-9.78,13.16-28,13.16-28a6.37,6.37,0,0,1,.61-.23s.67-.09.67-.08,2-1.92,2-1.92c.48,1.74,4.79,26.3,5.85,40.6C148.67,207.79,138.5,204.45,138.57,199.79Z"/><path class="cls-9" d="M249.27,249.37c-.57-4.07-1.11-8.14-1.59-12.13,0,0,0,0,0-.05-.15-1.33-.31-2.64-.46-3.95,0-.06,0-.13,0-.2-.63-5.49-1.15-10.76-1.53-15.58a49.34,49.34,0,0,1,.48-10.83c1.5-24.66,2.24-50.65,2.24-50.65.79-10.64,1.24-20.59,1.54-29.85,0,0-33.68-15.92-36.73-16.83,0,0,6.39,15,11.18,48.53,1.84,12.87,5.25,34.55,7.73,56.68h0c1.34,11.94,3.85,24.1,5.76,34.86.29,1.67.57,3.3.83,4.88H250C249.72,252.63,249.49,251,249.27,249.37Z"/><path class="cls-9" d="M193.19,209.77c1.33-12.46,2.53-24.91,1.95-31.72-4.64-54.8-17.79-69.31-19.69-71.43-1.48.56-7.09,2.66-8.73,3.31-9,3.55-27.31,10-29.78,11.82-4.28,3.06-21.16,81.79-21.67,86.89-.34,3.44,21.69,10.63,44.17,17.05-.21,6.16.37,14.85-1.68,23.93a20.77,20.77,0,0,0-1,4.76l31.33-.13c.19-1.62.39-3.24.59-4.88.6-4.89,1.22-9.91,1.84-15.24,9.4,2.43,15.79,4,15.79,4s8.82-14.92,11.38-21C218.16,216.13,206.8,213.4,193.19,209.77Zm-40.51-18.86c-.3-11.22-.25-19-.25-19,1.11,3.84,2.65,14.83,4,25.75C151.88,195.31,152.73,193.17,152.68,190.91Z"/><path class="cls-10" d="M178.46,106.09s3.41-6.45,2.47-24.75c-.26-5.07,26.63,12,26.63,12s-.1,1.75-.15,4.11c0,1,0,2,0,3.16v.92c0,.5,0,1,0,1.49s0,1.21.07,1.79.07,1.29.13,1.86a17.93,17.93,0,0,0,1,3.59C209.81,113.12,188.53,113.29,178.46,106.09Z"/><path class="cls-11" d="M201,117.73l5,6.65s-2.9,3.89-8.06,1Z"/><path class="cls-11" d="M204.63,124.65S222.79,169,218.92,225.34l-5.73,10.39-6.46-8.85s-1-74.82-6.19-102.4Z"/><path class="cls-10" d="M206.31,111.52,201,117.73s-8.51-1.65-11-6.1S206.31,111.52,206.31,111.52Z"/><path class="cls-12" d="M207.53,106.08s-.62,4.74-6.53,11.65l6.45,8.66,3.49-18Z"/><path class="cls-12" d="M180.08,100.39s12.31,13.93,20.92,17.34l-4,9.9L177.35,106Z"/><path class="cls-9" d="M306.67,226.41s-16.34-15.85-27.06-18.49c-5-1.22-11.49-8.06-17.69-16.11-2-2.64-4.05-5.42-6-8.17v0c-7.61-11-13.58-21.52-13.58-21.52s-22.49-26.36-4.44-38.11c0,0,7.74-.17,12,2.14s13.67,21.79,15.25,25.23,18.67,35.38,19.82,36.1,3.05,3.35,9.89,7c8.37,4.51,21.53,17.7,21.53,17.7Z"/><path class="cls-13" d="M228.21,244.76a10.63,10.63,0,0,1-3.26-.62s-1.71-1.1-3-1.8a8.68,8.68,0,0,0-1-.51,19.06,19.06,0,0,1-5.49-2.61c-2.15-1.64-9.15-8.2-9.15-8.2l4.53-7,2.09-6.89s16.33,1.62,18.51,2.92a4.47,4.47,0,0,1,.6.4c1.74,1.27,2.5,2.95,3.34,3.73.3.28,3.15,3.33,3,4.56a4.08,4.08,0,0,1-2.13,3.34s-.58,3.34-2.3,4.83a6.06,6.06,0,0,1-3.11,4.34S230.07,244.39,228.21,244.76Z"/><path class="cls-14" d="M202.2,34.12S231.73,27,225.51,64.39s-13.3,40.42-31.29,33S177.48,66,176.41,54.29,192.75,34.67,202.2,34.12Z"/><path class="cls-14" d="M186.69,60c-.44-3.28-7-4.39-7.41.55s3.15,13.54,5.61,12.65S187.29,64.54,186.69,60Z"/><path class="cls-15" d="M178.13,73.4s.59-11.76,4.88-12.19,5,4.29,5,4.29l4.34.76S190.85,56,195.11,54.12s27.84,5.26,31.24,2.19,1.47-23.94-4.8-26.71-23.53-8.91-36-.21c0,0-9.83-1-11.17,7S175.38,67.55,178.13,73.4Z"/><path class="cls-9" d="M218.53,217.17l-12.19,21s-32.3-8.32-39.84-10.45l17.23-20.51S209.13,213,218.53,217.17Z"/><path class="cls-16" d="M207.45,104.83h0a28.23,28.23,0,0,1-22-13.8,32.74,32.74,0,0,0,21.89,9.6v.92c0,.5,0,1,0,1.49S207.42,104.25,207.45,104.83Z"/><path class="cls-17" d="M426.16,290.64a4.82,4.82,0,0,0-8.41,1.35h0a4.84,4.84,0,0,0-.26,1.48,4.65,4.65,0,0,0,.3,1.72,4.77,4.77,0,0,0,4.08,3.14l.38,0h.32a5.36,5.36,0,0,0,1.39-.28,4.82,4.82,0,0,0,2.2-7.43Zm-2.62,6.29h0a3.49,3.49,0,0,1-1,.21h-.25a3.93,3.93,0,0,1-1-.15,3.68,3.68,0,0,1-1.18-.61,2.74,2.74,0,0,1-.36-.32,3.54,3.54,0,0,1-1-2.58,3.16,3.16,0,0,1,.09-.76,3.57,3.57,0,0,1,.1-.35,3.61,3.61,0,1,1,4.65,4.55Z"/><path class="cls-14" d="M241.45,200c18.36,18.9,42.61,42.69,42.61,42.69l9.48-18s-21.54-25.25-36.15-42.1C252.92,184.73,244.7,190,241.45,200Z"/><path class="cls-14" d="M230.11,225.36a52.76,52.76,0,0,1,6.23,3.45c1.29,1.06,6.52,5,7.79,5.9s-1.91,3.54-11.26-.51S230.11,225.36,230.11,225.36Z"/><polygon class="cls-18" points="230.54 171.27 221.93 251.36 335.3 251.36 343.92 171.27 230.54 171.27"/><path class="cls-18" d="M341.78,247.66H227.51l8.71-81H350.48Zm-113.28-.89H341l8.52-79.19H237Z"/><rect class="cls-18" x="212.91" y="244.15" width="18.94" height="7.21" transform="translate(444.75 495.51) rotate(180)"/><g class="cls-19"><path class="cls-20" d="M30.74,251.19v0Z"/><rect class="cls-20" x="30.74" y="251.19" width="4.74" height="4.88"/><rect class="cls-21" x="35.48" y="251.19" width="4.74" height="4.88"/><rect class="cls-22" x="40.22" y="251.19" width="4.74" height="4.88"/><rect class="cls-23" x="44.96" y="251.19" width="4.74" height="4.88"/><rect class="cls-24" x="49.7" y="251.19" width="4.74" height="4.88"/><rect class="cls-25" x="54.44" y="251.19" width="4.74" height="4.88"/><rect class="cls-26" x="59.18" y="251.19" width="4.74" height="4.88"/><rect class="cls-27" x="63.92" y="251.19" width="4.74" height="4.88"/><rect class="cls-28" x="68.66" y="251.19" width="4.74" height="4.88"/><rect class="cls-29" x="73.4" y="251.19" width="4.74" height="4.88"/><rect class="cls-30" x="78.14" y="251.19" width="4.74" height="4.88"/><rect class="cls-31" x="82.88" y="251.19" width="4.74" height="4.88"/><rect class="cls-32" x="87.62" y="251.19" width="4.74" height="4.88"/><rect class="cls-33" x="92.36" y="251.19" width="4.74" height="4.88"/><rect class="cls-34" x="97.1" y="251.19" width="4.74" height="4.88"/><rect class="cls-35" x="101.84" y="251.19" width="4.74" height="4.88"/><rect class="cls-36" x="106.58" y="251.19" width="4.74" height="4.88"/><rect class="cls-37" x="111.32" y="251.19" width="4.74" height="4.88"/><rect class="cls-38" x="116.06" y="251.19" width="4.74" height="4.88"/><rect class="cls-39" x="120.8" y="251.19" width="4.74" height="4.88"/><rect class="cls-40" x="125.55" y="251.19" width="4.74" height="4.88"/><rect class="cls-41" x="130.29" y="251.19" width="4.74" height="4.88"/><rect class="cls-42" x="135.03" y="251.19" width="4.74" height="4.88"/><rect class="cls-43" x="139.77" y="251.19" width="4.74" height="4.88"/><rect class="cls-44" x="144.51" y="251.19" width="4.74" height="4.88"/><rect class="cls-45" x="149.25" y="251.19" width="4.74" height="4.88"/><rect class="cls-46" x="153.99" y="251.19" width="4.74" height="4.88"/><rect class="cls-47" x="158.73" y="251.19" width="4.74" height="4.88"/><rect class="cls-48" x="163.47" y="251.19" width="4.74" height="4.88"/><rect class="cls-49" x="168.21" y="251.19" width="4.74" height="4.88"/><rect class="cls-50" x="172.95" y="251.19" width="4.74" height="4.88"/><rect class="cls-51" x="177.69" y="251.19" width="4.74" height="4.88"/><rect class="cls-52" x="182.43" y="251.19" width="4.74" height="4.88"/><rect class="cls-53" x="187.17" y="251.19" width="4.74" height="4.88"/><rect class="cls-54" x="191.91" y="251.19" width="4.74" height="4.88"/><rect class="cls-55" x="196.65" y="251.19" width="4.74" height="4.88"/><rect class="cls-56" x="201.39" y="251.19" width="4.74" height="4.88"/><rect class="cls-57" x="206.13" y="251.19" width="4.74" height="4.88"/><rect class="cls-58" x="210.87" y="251.19" width="4.74" height="4.88"/><rect class="cls-59" x="215.61" y="251.19" width="4.74" height="4.88"/><rect class="cls-60" x="220.35" y="251.19" width="4.74" height="4.88"/><rect class="cls-61" x="225.09" y="251.19" width="4.74" height="4.88"/><rect class="cls-62" x="229.83" y="251.19" width="4.74" height="4.88"/><rect class="cls-63" x="234.57" y="251.19" width="4.74" height="4.88"/><rect class="cls-64" x="239.31" y="251.19" width="4.74" height="4.88"/><rect class="cls-65" x="244.05" y="251.19" width="4.74" height="4.88"/><rect class="cls-66" x="248.79" y="251.19" width="4.74" height="4.88"/><rect class="cls-67" x="253.53" y="251.19" width="4.74" height="4.88"/><rect class="cls-68" x="258.27" y="251.19" width="4.74" height="4.88"/><rect class="cls-69" x="263.01" y="251.19" width="4.74" height="4.88"/><rect class="cls-70" x="267.75" y="251.19" width="4.74" height="4.88"/><rect class="cls-71" x="272.5" y="251.19" width="4.74" height="4.88"/><rect class="cls-72" x="277.24" y="251.19" width="4.74" height="4.88"/><rect class="cls-73" x="281.98" y="251.19" width="4.74" height="4.88"/><rect class="cls-74" x="286.72" y="251.19" width="4.74" height="4.88"/><rect class="cls-75" x="291.46" y="251.19" width="4.74" height="4.88"/><rect class="cls-76" x="296.2" y="251.19" width="4.74" height="4.88"/><rect class="cls-77" x="300.94" y="251.19" width="4.74" height="4.88"/><rect class="cls-78" x="305.68" y="251.19" width="4.74" height="4.88"/><rect class="cls-79" x="310.42" y="251.19" width="4.74" height="4.88"/><rect class="cls-80" x="315.16" y="251.19" width="4.74" height="4.88"/><rect class="cls-81" x="319.9" y="251.19" width="4.74" height="4.88"/><rect class="cls-82" x="324.64" y="251.19" width="4.74" height="4.88"/><rect class="cls-83" x="329.38" y="251.19" width="4.74" height="4.88"/><rect class="cls-84" x="334.12" y="251.19" width="4.74" height="4.88"/><path class="cls-84" d="M338.86,256.07v0Z"/></g><rect class="cls-18" x="260.19" y="355.31" width="266.96" height="4.88"/><path class="cls-85" d="M276.63,210c-.91,4.46,1.17,8.65,4.64,9.36s7-2.33,8-6.79-1.17-8.65-4.65-9.36S277.54,205.57,276.63,210Z"/><path class="cls-86" d="M492.86,178.29s2.61,4.43,3.72,5.15c1.49,1,.55,2-.16,2s-4.34.26-5.15-.65-1.19-3.63-1.94-4.34-1.51-3.55.36-4.24C491.35,175.58,492.86,178.29,492.86,178.29Z"/><path class="cls-87" d="M491.72,176.33s3,5.2,3.51,6-1,.77-1.89.4-3.24-4.08-3.58-4.76a2.56,2.56,0,0,1-.07-1.74Z"/><polygon class="cls-86" points="488.69 179.13 489.38 184.45 489.75 184.47 489.63 180.64 488.69 179.13"/><path class="cls-86" d="M466.92,178.29s2.62,4.43,3.72,5.15c1.5,1,.56,2-.15,2s-4.35.26-5.15-.65-1.2-3.63-1.94-4.34-1.54-3.62.36-4.24C465.43,175.65,466.92,178.29,466.92,178.29Z"/><path class="cls-87" d="M466,176.35s2.83,5.18,3.35,5.94-1,.77-1.89.4-3.25-4.08-3.58-4.76a2.49,2.49,0,0,1-.07-1.74Z"/><polygon class="cls-86" points="462.75 179.13 463.45 184.45 463.81 184.47 463.7 180.64 462.75 179.13"/><path class="cls-87" d="M455.32,137.94,479,148.72a4.54,4.54,0,0,1,2.94,3.79c.93,9.16,7.77,23.68,7.77,23.68,2.2,1.08,2,.14,2,.14-1.38-4.44-3.07-22.76-3.67-30.13-.13-1.56-.21-2.62-.22-3s-.27-.53-.71-.89c-3.24-2.63-16.61-8.08-16.61-8.08C460.48,134,455.32,137.94,455.32,137.94Z"/><path class="cls-87" d="M450.86,142.57c.73,6.4,9.86,5.66,9.86,5.66h11.07a68.82,68.82,0,0,0-4,11.93c-1.19,5.79-4,16-4,16s.18.35,2.19.16c0,0,8.68-17.32,12-21.67a29.71,29.71,0,0,0,3.12-9.06c.12-1,0-1.8-.34-2.12a24.38,24.38,0,0,0-2.44-1.67c-3.47-2.19-9.49-5.55-12.84-6.31-4.49-1-11.6-2.9-11.6-2.9A12.2,12.2,0,0,0,450.86,142.57Z"/><path class="cls-88" d="M458.39,93.3a10.31,10.31,0,0,1-.85-6.5c.81-3.35,3.92-6.68,8.46-5.15s8.23,5.07,5.51,9.15,2.46,5.94,1.14,7.88-.82,4-.26,4.43,2.37,2.06,2.17,4-8.83-5.56-8.83-5.56S461,92.08,458.39,93.3Z"/><path class="cls-89" d="M472.26,133.49s-.69,3.33-18.36-.87C453.9,132.62,459.82,130.65,472.26,133.49Z"/><path class="cls-90" d="M453.7,133.55l-.83,1.57,19.39.56c-1-3.42-.69-8.05-.51-11.57.21-4.3,2.59-7.28,2.33-11.63,1.28.21,1.5.25,2.78.44-1.95-5.58-2.62-8.34-8.71-10.49a11.42,11.42,0,0,0-5.42-.66c-7,.58-9.17.67-12.63,7,5.42.86,4.53,2.81,6.17,8.19.8,2.63,1.64,5.56,1.21,8.33S453.7,131.06,453.7,133.55Z"/><path class="cls-14" d="M464.94,103.79c-2.89-.55-2.27-2.15-2.27-2.15s.13-.91.18-2c0-.29,0-.6,0-.92a10.9,10.9,0,0,0-.08-1.41c-.23-1.94,5.24-.78,5.24-.78s-.32,3.91.43,5.08S467.82,104.33,464.94,103.79Z"/><path class="cls-14" d="M459.44,101.63s5.81,6.71,8,8.27c0,0,2.47-2.23,1-8.13C468.35,101.77,465.54,100.37,459.44,101.63Z"/><path class="cls-14" d="M459.6,85.47s-3,5.82,0,11.33,8.88-2.4,9.26-3.33,2.4-6.18-1.61-7.77S460.45,83.89,459.6,85.47Z"/><path class="cls-88" d="M460.6,87.53s-2.08,2.73-2.32,4.75a10.81,10.81,0,0,1,1.51-7.48c2.34-3.66,8.29-.17,9.08,1.29s3.13,2.76-.79,9C468.08,95.14,461,90.24,460.6,87.53Z"/><path class="cls-16" d="M465.43,97.38a5.72,5.72,0,0,1-2.58,2.21c0-.29,0-.6,0-.92A4.86,4.86,0,0,0,465.43,97.38Z"/><path class="cls-14" d="M434.91,128.32s-1.44.63-2.12.34a6.54,6.54,0,0,0-2.06-.34c-.45,0-1.84-.5-1.81,0s2.25.93,2.71,1.1-1.37,1.17-1.54,1.61,1.89,3.38,3.05,2.54,1.79-2.5,2-2.6a8.81,8.81,0,0,0,.87-.57Z"/><path class="cls-14" d="M430.31,130.82a31.25,31.25,0,0,0-3.42,3.16c-.05.38.13.56.45.31l3.34-2.6s-3.37,4-3.48,4.28.25.53.44.41,3.78-3.86,3.78-3.86-3.14,3.72-3.16,4a.36.36,0,0,0,.61.25c.26-.26,3.39-3.55,3.39-3.55s-2.11,2.86-2,3.11.35.48.87-.27,1.94-2.41,1.94-2.41Z"/><path class="cls-18" d="M470.63,148.23h-9.91s-9.13.74-9.86-5.66a12.2,12.2,0,0,1,3-9.95s4.82,1.28,9,2.3a32.2,32.2,0,0,1,7.61-.66s17.86,5.9,17.32,9C487.83,143.26,480.36,139.27,470.63,148.23Z"/><polygon class="cls-91" points="464.18 137.16 483.08 136.88 473.54 141.72 464.18 137.16"/><path class="cls-90" d="M470.05,134.74a16.13,16.13,0,0,1-9.46.16l-.24-2,10.73.6Z"/><polygon class="cls-92" points="473.54 141.72 464.18 138.1 464.18 137.16 474.28 140.8 473.54 141.72"/><path class="cls-93" d="M470,135.64a.94.94,0,0,0,1.3.93l1.09-.47a.78.78,0,0,0,.47-.84c-.46-2.86-1.44-14,0-15.9a7,7,0,0,0,1.05-1.86c.95,2.44,2.12,5.58,2.59,7.27l8.93,11.88,3,.75a101,101,0,0,0-6.73-13.77c-.59-1.56-2.26-6.31-3.75-10.54-.93-2.67-1.8-5.14-2.26-6.46a3,3,0,0,0-1.3-1.6c-1.39-.83-3.69-2.13-5.78-3.15h0l-.2-.1h0c4,6,2.42,23,1.64,33.85Z"/><path class="cls-93" d="M455.24,102.29c-1.28.19-4.43,3.26-6.11,6.35-1.91,3.53-3.86,7.55-5.32,8.87-2.68,2.43-10.19,11-10.55,10.81A23.64,23.64,0,0,0,435.6,131c.14.06,12.35-10.51,13.52-12.12s4.08-7.94,5-7.8h0a50.19,50.19,0,0,1,2.17,5.91c0,.06,0,.12.05.17a19,19,0,0,1,.26,7.9,26.82,26.82,0,0,1-2.92,7.55,1.19,1.19,0,0,0,0,.92h0a.65.65,0,0,0,.32.38l3.59,1.33.84.31a1.81,1.81,0,0,0,1.71-.24,1.79,1.79,0,0,0,.74-1.24c.8-6.13,1.81-12.39,2.61-14.75a22.32,22.32,0,0,0-1.38-18.13A65.71,65.71,0,0,0,455.24,102.29Z"/><polygon class="cls-94" points="473.54 141.72 479.16 126.38 497.28 126.67 491.92 140.81 473.54 141.72"/><path class="cls-95" d="M485,133.17c-.55,1.1-.39,2.3.37,2.68s1.82-.2,2.38-1.31.38-2.31-.38-2.69S485.51,132.06,485,133.17Z"/><path class="cls-88" d="M465.86,91.26a3.26,3.26,0,0,1,.08,3.37c-1.07,1.56.27,3.09.51,4.73s-4.48,6,.76,8.24,6.9-1.44,5.57-3.44a11.3,11.3,0,0,1-2.4-6.5C470.26,94.8,469.32,90.34,465.86,91.26Z"/><polygon class="cls-96" points="440.26 83.77 451.19 83.77 451.19 91.68 451.19 93.35 449.52 91.68 440.26 91.68 440.26 83.77"/><path class="cls-5" d="M378.92,205.29S355.11,228,366.7,245.6s17,2.19,17,2.19,7.84,2.36-3.79-19.39C374.43,218.14,378.92,205.29,378.92,205.29Z"/><path class="cls-6" d="M334.89,180.72s-18.19,21.38,6.13,51S361.57,277,361.57,277,395.43,225.49,334.89,180.72Z"/><path class="cls-7" d="M367.06,268c11.32,2.29,2.16-30.62-14.81-40.65s-32.16-11-41.67-20.67C310.58,206.7,311.32,256.75,367.06,268Z"/><path class="cls-14" d="M293.09,282.46s.52-1.29.61-1.48a3.16,3.16,0,0,1,1.18-.82,3.78,3.78,0,0,1,1.67-.41.61.61,0,0,1,.37.34,1.13,1.13,0,0,1,.09.57.7.7,0,0,1,.25.62.61.61,0,0,1,.14.66.53.53,0,0,1,.14.55,4.38,4.38,0,0,0-.66.49,9.46,9.46,0,0,1-2.36,1.16S293.33,284.16,293.09,282.46Z"/><path class="cls-97" d="M294.93,281.76a3.61,3.61,0,0,1-.08.89c-.1.2,1.41.63,1.41.63S295.78,281.76,294.93,281.76Z"/><polygon class="cls-98" points="266.81 349.8 267.47 347.75 270.26 348.2 269.84 350.05 266.81 349.8"/><polygon class="cls-99" points="289.63 349.56 289.79 350.69 292.84 350.18 292.68 348.5 289.63 349.56"/><path class="cls-100" d="M283,318s-.45,2.45-1,5.16l-.27,1.44c-.51,2.61-1,5.13-1.22,5.65-.43,1.18-9.76,18.28-9.76,18.28s-3.82-.29-4-.78c0,0,7.82-18.57,7.78-19.24s.95-19.71.95-19.71S282.83,316.89,283,318Z"/><path class="cls-100" d="M287.3,307.7s3.65,18.7,4,20.13,1.7,20.58,1.7,20.58-.82,1.7-3.86,1.06c0,0-4.13-20.58-4.48-21.27-1.35-2.68-8-15.64-8.63-17.49a11.14,11.14,0,0,1-.45-4S280.47,303.93,287.3,307.7Z"/><path class="cls-101" d="M285.76,283.48s1.6,4,2,3.88,5-5.53,5-5.53,2.11,2.63,1.82,2.93-5.82,9.46-6.57,9.3-4.09-5.69-4.09-5.69S283.74,284.2,285.76,283.48Z"/><path class="cls-102" d="M278.91,275.86a65.29,65.29,0,0,1,5.3,4.43c1.15,1.26,4.31,6.48,4.08,8A113.59,113.59,0,0,0,287,303.6c0,3.58,1.11,4.5.4,4.55s-11.26,3.85-12.81,4.31c0,0,1-12.6,1.53-14.06S274.46,281.71,278.91,275.86Z"/><path class="cls-103" d="M305.66,269.84l.93,4.69.93,4.7a25.57,25.57,0,0,0-11.38-.47l-.41-2.07-.41-2.08A25.77,25.77,0,0,0,305.66,269.84Z"/><path class="cls-38" d="M289.79,350.69s2.3-.45,2.38-.52.58-1,.93-.82.36,1.26.71,1.45,3.09,2,3.43,2.38,2.42.14,2.65.73.26,2-2.84,1.65-6.64.17-7.31-.19S289.58,351.58,289.79,350.69Z"/><path class="cls-38" d="M266.78,349.75s2.34-.07,2.43-.13.72-.87,1.05-.66.15,1.31.47,1.55,2.72,2.51,3,2.9,2.36.52,2.51,1.14-.06,2-3.07,1.17-6.59-.89-7.19-1.36S266.42,350.6,266.78,349.75Z"/><path class="cls-10" d="M285,308.57s.28,1.13.73,1.38-2.1,2.68-2.1,2.68a20.89,20.89,0,0,1-1-2.48A15,15,0,0,1,285,308.57Z"/><path class="cls-104" d="M277.07,280.78s-3,14.18-3.23,15.63,8.74,14.49,8.74,14.49l3-1.77s-7.23-13.16-7.22-13.76,3.47-12,3.47-12a2.69,2.69,0,1,0-4.74-2.56Z"/><path class="cls-105" d="M286.71,309.54a48.71,48.71,0,0,1,.91,6.3c-.05,1.48-5.56-2.32-5.28-3.79Z"/><path class="cls-14" d="M278.91,275.86s7.57,8.26,7.1,7.34c-1.66-3.26-2.82-3.81-2.8-4.42s.2-1.83.24-2.28c.05-.87.12-1.57.12-1.57s-3.76-5.28-3.59-3.48A11,11,0,0,1,278.91,275.86Z"/><path class="cls-14" d="M286.12,266.13a18.73,18.73,0,0,1,1.05,3,12.94,12.94,0,0,0,0,1.67,24,24,0,0,1,.59,2.51c-.08.48-1.09.23-1.23,1s-.87,2.26-1.23,2.3c-.94.07-4.52-1.39-4.75-2.14s-1.53-4.93-1.93-5.73,6.31-5.16,6.92-3.9Z"/><path class="cls-15" d="M277,267.94c-.48-2.07,1.9-2.32,1.9-2.32s1.55-1.81,5.26-1.59,3.15,5.05,3.15,5.05a14,14,0,0,0-3.69-.1,17.82,17.82,0,0,0,0,2.58l-1.4-.12s.16-1.84-.52-1.93-.89,3.89-2.14,4.76a1.48,1.48,0,0,0-.17-.55h0a16.38,16.38,0,0,1-1-2A23,23,0,0,1,277,267.94Z"/><path class="cls-14" d="M282.61,270a1.06,1.06,0,0,0-1.75-.49c-.9.66,0,3,.89,3S283,271.18,282.61,270Z"/><path class="cls-106" d="M280.3,273.84a2.76,2.76,0,0,0,.39.92,7.84,7.84,0,0,0,2.78,1.45l-.15,1.47S280.14,276.45,280.3,273.84Z"/><g class="cls-107"><path class="cls-20" d="M293.74,278.51v0Z"/><rect class="cls-20" x="293.74" y="278.51" width="0.06" height="5.62"/><rect class="cls-21" x="293.8" y="278.51" width="0.06" height="5.62"/><rect class="cls-22" x="293.86" y="278.51" width="0.06" height="5.62"/><rect class="cls-23" x="293.92" y="278.51" width="0.06" height="5.62"/><rect class="cls-24" x="293.98" y="278.51" width="0.06" height="5.62"/><rect class="cls-25" x="294.03" y="278.51" width="0.06" height="5.62"/><rect class="cls-26" x="294.09" y="278.51" width="0.06" height="5.62"/><rect class="cls-27" x="294.15" y="278.51" width="0.06" height="5.62"/><rect class="cls-28" x="294.21" y="278.51" width="0.06" height="5.62"/><rect class="cls-29" x="294.27" y="278.51" width="0.06" height="5.62"/><rect class="cls-30" x="294.32" y="278.51" width="0.06" height="5.62"/><rect class="cls-31" x="294.38" y="278.51" width="0.06" height="5.62"/><rect class="cls-32" x="294.44" y="278.51" width="0.06" height="5.62"/><rect class="cls-33" x="294.5" y="278.51" width="0.06" height="5.62"/><rect class="cls-34" x="294.56" y="278.51" width="0.06" height="5.62"/><rect class="cls-35" x="294.61" y="278.51" width="0.06" height="5.62"/><rect class="cls-36" x="294.67" y="278.51" width="0.06" height="5.62"/><rect class="cls-37" x="294.73" y="278.51" width="0.06" height="5.62"/><rect class="cls-38" x="294.79" y="278.51" width="0.06" height="5.62"/><rect class="cls-39" x="294.85" y="278.51" width="0.06" height="5.62"/><rect class="cls-40" x="294.91" y="278.51" width="0.06" height="5.62"/><rect class="cls-41" x="294.96" y="278.51" width="0.06" height="5.62"/><rect class="cls-42" x="295.02" y="278.51" width="0.06" height="5.62"/><rect class="cls-43" x="295.08" y="278.51" width="0.06" height="5.62"/><rect class="cls-44" x="295.14" y="278.51" width="0.06" height="5.62"/><rect class="cls-45" x="295.2" y="278.51" width="0.06" height="5.62"/><rect class="cls-46" x="295.25" y="278.51" width="0.06" height="5.62"/><rect class="cls-47" x="295.31" y="278.51" width="0.06" height="5.62"/><rect class="cls-48" x="295.37" y="278.51" width="0.06" height="5.62"/><rect class="cls-49" x="295.43" y="278.51" width="0.06" height="5.62"/><rect class="cls-50" x="295.49" y="278.51" width="0.06" height="5.62"/><rect class="cls-51" x="295.54" y="278.51" width="0.06" height="5.62"/><rect class="cls-52" x="295.6" y="278.51" width="0.06" height="5.62"/><rect class="cls-53" x="295.66" y="278.51" width="0.06" height="5.62"/><rect class="cls-54" x="295.72" y="278.51" width="0.06" height="5.62"/><rect class="cls-55" x="295.78" y="278.51" width="0.06" height="5.62"/><rect class="cls-56" x="295.83" y="278.51" width="0.06" height="5.62"/><rect class="cls-57" x="295.89" y="278.51" width="0.06" height="5.62"/><rect class="cls-58" x="295.95" y="278.51" width="0.06" height="5.62"/><rect class="cls-59" x="296.01" y="278.51" width="0.06" height="5.62"/><rect class="cls-60" x="296.07" y="278.51" width="0.06" height="5.62"/><rect class="cls-61" x="296.12" y="278.51" width="0.06" height="5.62"/><rect class="cls-62" x="296.18" y="278.51" width="0.06" height="5.62"/><rect class="cls-63" x="296.24" y="278.51" width="0.06" height="5.62"/><rect class="cls-64" x="296.3" y="278.51" width="0.06" height="5.62"/><rect class="cls-65" x="296.36" y="278.51" width="0.06" height="5.62"/><rect class="cls-66" x="296.41" y="278.51" width="0.06" height="5.62"/><rect class="cls-67" x="296.47" y="278.51" width="0.06" height="5.62"/><rect class="cls-68" x="296.53" y="278.51" width="0.06" height="5.62"/><rect class="cls-69" x="296.59" y="278.51" width="0.06" height="5.62"/><rect class="cls-70" x="296.65" y="278.51" width="0.06" height="5.62"/><rect class="cls-71" x="296.71" y="278.51" width="0.06" height="5.62"/><rect class="cls-72" x="296.76" y="278.51" width="0.06" height="5.62"/><rect class="cls-73" x="296.82" y="278.51" width="0.06" height="5.62"/><rect class="cls-74" x="296.88" y="278.51" width="0.06" height="5.62"/><rect class="cls-75" x="296.94" y="278.51" width="0.06" height="5.62"/><rect class="cls-76" x="297" y="278.51" width="0.06" height="5.62"/><rect class="cls-77" x="297.05" y="278.51" width="0.06" height="5.62"/><rect class="cls-78" x="297.11" y="278.51" width="0.06" height="5.62"/><rect class="cls-79" x="297.17" y="278.51" width="0.06" height="5.62"/><rect class="cls-80" x="297.23" y="278.51" width="0.06" height="5.62"/><rect class="cls-81" x="297.29" y="278.51" width="0.06" height="5.62"/><rect class="cls-82" x="297.34" y="278.51" width="0.06" height="5.62"/><rect class="cls-83" x="297.4" y="278.51" width="0.06" height="5.62"/><rect class="cls-84" x="297.46" y="278.51" width="0.06" height="5.62"/><path class="cls-84" d="M297.52,284.12v0Z"/></g><path class="cls-108" d="M296.39,279.82s-1.52.83-1.41,1.1a.43.43,0,0,0,.3.29l-.47.62s-.08.59.59.5c0,0-.13.55.5.38,0,0,.07.4.38.38a6.24,6.24,0,0,0,1.26-.6s.14-.22-.14-.55a.61.61,0,0,0-.14-.66.67.67,0,0,0-.25-.62s.14-.74-.46-.91Z"/><g class="cls-109"><path class="cls-20" d="M291.13,274.25v0Z"/><rect class="cls-20" x="291.13" y="274.25" width="0.09" height="5.37"/><rect class="cls-21" x="291.22" y="274.25" width="0.09" height="5.37"/><rect class="cls-22" x="291.32" y="274.25" width="0.1" height="5.37"/><rect class="cls-23" x="291.41" y="274.25" width="0.09" height="5.37"/><rect class="cls-24" x="291.51" y="274.25" width="0.09" height="5.37"/><rect class="cls-25" x="291.6" y="274.25" width="0.09" height="5.37"/><rect class="cls-26" x="291.7" y="274.25" width="0.09" height="5.37"/><rect class="cls-27" x="291.79" y="274.25" width="0.09" height="5.37"/><rect class="cls-28" x="291.89" y="274.25" width="0.09" height="5.37"/><rect class="cls-29" x="291.98" y="274.25" width="0.09" height="5.37"/><rect class="cls-30" x="292.08" y="274.25" width="0.1" height="5.37"/><rect class="cls-31" x="292.17" y="274.25" width="0.09" height="5.37"/><rect class="cls-32" x="292.27" y="274.25" width="0.09" height="5.37"/><rect class="cls-33" x="292.36" y="274.25" width="0.09" height="5.37"/><rect class="cls-34" x="292.46" y="274.25" width="0.09" height="5.37"/><rect class="cls-35" x="292.55" y="274.25" width="0.09" height="5.37"/><rect class="cls-36" x="292.65" y="274.25" width="0.09" height="5.37"/><rect class="cls-37" x="292.74" y="274.25" width="0.09" height="5.37"/><rect class="cls-38" x="292.84" y="274.25" width="0.1" height="5.37"/><rect class="cls-39" x="292.93" y="274.25" width="0.09" height="5.37"/><rect class="cls-40" x="293.03" y="274.25" width="0.09" height="5.37"/><rect class="cls-41" x="293.12" y="274.25" width="0.09" height="5.37"/><rect class="cls-42" x="293.22" y="274.25" width="0.09" height="5.37"/><rect class="cls-43" x="293.31" y="274.25" width="0.09" height="5.37"/><rect class="cls-44" x="293.41" y="274.25" width="0.09" height="5.37"/><rect class="cls-45" x="293.5" y="274.25" width="0.09" height="5.37"/><rect class="cls-46" x="293.6" y="274.25" width="0.09" height="5.37"/><rect class="cls-47" x="293.69" y="274.25" width="0.09" height="5.37"/><rect class="cls-48" x="293.79" y="274.25" width="0.09" height="5.37"/><rect class="cls-49" x="293.88" y="274.25" width="0.1" height="5.37"/><rect class="cls-50" x="293.98" y="274.25" width="0.09" height="5.37"/><rect class="cls-51" x="294.07" y="274.25" width="0.09" height="5.37"/><rect class="cls-52" x="294.16" y="274.25" width="0.09" height="5.37"/><rect class="cls-53" x="294.26" y="274.25" width="0.09" height="5.37"/><rect class="cls-54" x="294.35" y="274.25" width="0.09" height="5.37"/><rect class="cls-55" x="294.45" y="274.25" width="0.09" height="5.37"/><rect class="cls-56" x="294.54" y="274.25" width="0.09" height="5.37"/><rect class="cls-57" x="294.64" y="274.25" width="0.1" height="5.37"/><rect class="cls-58" x="294.73" y="274.25" width="0.09" height="5.37"/><rect class="cls-59" x="294.83" y="274.25" width="0.09" height="5.37"/><rect class="cls-60" x="294.92" y="274.25" width="0.09" height="5.37"/><rect class="cls-61" x="295.02" y="274.25" width="0.09" height="5.37"/><rect class="cls-62" x="295.11" y="274.25" width="0.09" height="5.37"/><rect class="cls-63" x="295.21" y="274.25" width="0.09" height="5.37"/><rect class="cls-64" x="295.3" y="274.25" width="0.09" height="5.37"/><rect class="cls-65" x="295.4" y="274.25" width="0.09" height="5.37"/><rect class="cls-66" x="295.49" y="274.25" width="0.1" height="5.37"/><rect class="cls-67" x="295.59" y="274.25" width="0.09" height="5.37"/><rect class="cls-68" x="295.68" y="274.25" width="0.09" height="5.37"/><rect class="cls-69" x="295.78" y="274.25" width="0.09" height="5.37"/><rect class="cls-70" x="295.87" y="274.25" width="0.09" height="5.37"/><rect class="cls-71" x="295.97" y="274.25" width="0.09" height="5.37"/><rect class="cls-72" x="296.06" y="274.25" width="0.09" height="5.37"/><rect class="cls-73" x="296.16" y="274.25" width="0.09" height="5.37"/><rect class="cls-74" x="296.25" y="274.25" width="0.1" height="5.37"/><rect class="cls-75" x="296.35" y="274.25" width="0.09" height="5.37"/><rect class="cls-76" x="296.44" y="274.25" width="0.09" height="5.37"/><rect class="cls-77" x="296.54" y="274.25" width="0.09" height="5.37"/><rect class="cls-78" x="296.63" y="274.25" width="0.09" height="5.37"/><rect class="cls-79" x="296.73" y="274.25" width="0.09" height="5.37"/><rect class="cls-80" x="296.82" y="274.25" width="0.09" height="5.37"/><rect class="cls-81" x="296.91" y="274.25" width="0.09" height="5.37"/><rect class="cls-82" x="297.01" y="274.25" width="0.09" height="5.37"/><rect class="cls-83" x="297.1" y="274.25" width="0.1" height="5.37"/><rect class="cls-84" x="297.2" y="274.25" width="0.09" height="5.37"/><path class="cls-84" d="M297.29,279.62v0Z"/></g><path class="cls-14" d="M293.74,281a5.72,5.72,0,0,1,1.84.23c.15.06.28.14.28.31s-.23.36-.74.4a4.22,4.22,0,0,0-1.16.33S293.42,282.1,293.74,281Z"/><path class="cls-110" d="M282.06,323.15l-.27,1.44-3-8C279.16,317.37,282.06,323.15,282.06,323.15Z"/><rect class="cls-18" x="61.05" y="139.23" width="60.62" height="88.34" rx="6.4"/><rect class="cls-111" x="112.09" y="196.28" width="3.14" height="23.9"/><rect class="cls-111" x="105.88" y="198.96" width="3.14" height="21.22"/><rect class="cls-111" x="99.14" y="202.44" width="3.14" height="17.74"/><rect class="cls-111" x="92.22" y="206.84" width="3.14" height="13.35"/><polygon class="cls-111" points="73.48 204 72.8 203.76 78.72 187.15 91.56 183.75 96.18 165.51 106.09 161.14 108.31 146.96 109.02 147.07 106.74 161.64 96.79 166.03 92.16 184.34 79.27 187.75 73.48 204"/><path class="cls-18" d="M93.35,182.82a1.93,1.93,0,1,1-2.71-.27A1.93,1.93,0,0,1,93.35,182.82Z"/><path class="cls-111" d="M93.31,185.81a2.29,2.29,0,1,1,.32-3.22A2.29,2.29,0,0,1,93.31,185.81Zm-2.44-3a1.57,1.57,0,1,0,2.2.22A1.56,1.56,0,0,0,90.87,182.83Z"/><path class="cls-18" d="M98,164.66a1.93,1.93,0,1,1-2.71-.27A1.93,1.93,0,0,1,98,164.66Z"/><path class="cls-111" d="M98,167.65a2.29,2.29,0,1,1,.32-3.22A2.29,2.29,0,0,1,98,167.65Zm-2.44-3a1.56,1.56,0,1,0,2.2.22A1.56,1.56,0,0,0,95.55,164.67Z"/><path class="cls-18" d="M107.79,160.16a1.93,1.93,0,1,1-2.71-.27A1.93,1.93,0,0,1,107.79,160.16Z"/><path class="cls-111" d="M107.75,163.15a2.29,2.29,0,1,1,.32-3.22A2.3,2.3,0,0,1,107.75,163.15Zm-2.44-3a1.56,1.56,0,1,0,2.2.22A1.57,1.57,0,0,0,105.31,160.17Z"/><path class="cls-18" d="M80.56,186.39a1.93,1.93,0,1,1-2.71-.27A1.93,1.93,0,0,1,80.56,186.39Z"/><path class="cls-111" d="M80.52,189.38a2.29,2.29,0,1,1,.32-3.22A2.3,2.3,0,0,1,80.52,189.38Zm-2.44-3a1.56,1.56,0,1,0,2.2.22A1.57,1.57,0,0,0,78.08,186.4Z"/><rect class="cls-112" x="67.49" y="164.3" width="19.3" height="4" rx="1.38"/><rect class="cls-112" x="67.49" y="157.31" width="19.3" height="4" rx="1.38"/><path class="cls-15" d="M53.64,171.52s-.56,5.51.46,6.9c0,0-2.7-.59-3.32-1.52S53.64,171.52,53.64,171.52Z"/><path class="cls-14" d="M70.49,189.14l1.14-.76a2.91,2.91,0,0,1,1.23,0,3.39,3.39,0,0,1,1.37.51.51.51,0,0,1,.09.41.9.9,0,0,1-.2.45.6.6,0,0,1-.13.56.52.52,0,0,1-.22.53s.07.32-.16.45a4.8,4.8,0,0,0-.69,0,8.15,8.15,0,0,1-2.22-.3S69.59,190.77,70.49,189.14Z"/><path class="cls-97" d="M72.16,189.59a2.7,2.7,0,0,1-.45.62c-.16.1.75,1.08.75,1.08S72.78,190,72.16,189.59Z"/><path class="cls-14" d="M69.91,189.23a4.21,4.21,0,0,0,1-.24c.38-.18-.07,1.92-.07,1.92a3.93,3.93,0,0,0-1.52-.66C68.71,190.23,69.91,189.23,69.91,189.23Z"/><path class="cls-113" d="M44.39,245a33.83,33.83,0,0,0,2.6,3.41s1.34.7,1.38,1.26c.08,1.05.14,1.67-1.63,1.72s-2.87,0-3.2-1.08a8,8,0,0,0-.88-1.91l-.13,2.79h-.4S42,248.4,41.92,248s-.28-1.93.56-2.61A2.32,2.32,0,0,1,44.39,245Z"/><path class="cls-113" d="M47.24,248.56a4.41,4.41,0,0,1-2.09,0c-1.14-.29-2.23-3-2.56-3.23l-.29-1.1h2.21a4,4,0,0,0,.38,1.51A27.23,27.23,0,0,0,47.24,248.56Z"/><path class="cls-113" d="M56.89,244a7.32,7.32,0,0,0,.83,1.39c.4.52,1.65,2.67,2.19,2.81s2.25.45,2.39,1.4.23,1.62-1.44,1.69-2.76.18-3.56-1a8.78,8.78,0,0,0-2.07-2v3.05h-.64a26.6,26.6,0,0,0-.48-3.4A3.84,3.84,0,0,1,55,244C56.58,242.68,56.89,244,56.89,244Z"/><path class="cls-113" d="M59.91,248.15s-1.49.38-2.06,0-2.52-3.66-3.17-3.86c0,0,.63-1.26,2.21-.34C56.89,244,59.49,247.61,59.91,248.15Z"/><path class="cls-114" d="M43.54,198.23a15.61,15.61,0,0,0-2.68,6c-.57,3.25.34,14.15.32,15.76s-1.42,6.6-1.12,9.62,1.86,15.65,1.86,15.65l3.65-.06s-.73-13.63-.54-14.9.78-6.67.85-7.19S50,208.75,50,206.41,48.62,194.41,43.54,198.23Z"/><path class="cls-114" d="M54.12,199.3s3.46,13.21,3.87,15,1.23,4.22,1.2,4.55-.44,6-.44,6l-1,19.19H54.12S53,231.85,52.76,229.39s1.35-6.28,1-7.32-6-13.11-6-13.11S43.45,195.47,54.12,199.3Z"/><path class="cls-93" d="M53.05,179.54a4.2,4.2,0,0,1,2.43,1.25,15.65,15.65,0,0,1,2.3,3.5c.27.6,4.11,6.14,4.31,6.26s1.88-.32,3.22-.43a29.17,29.17,0,0,0,5.48-1.3l.48,2.48s-8.07,2.6-9.93,2.14c-2.28-.56-7.52-7.28-7.52-7.28S49.91,181.58,53.05,179.54Z"/><path class="cls-93" d="M50.64,178.57a19.65,19.65,0,0,0,2.41,1c.62.12,3,3.26,3.46,4.4s0,2.87-.87,4.88,0,2.69-.45,4.71a55.39,55.39,0,0,0-.32,8.63c.07,1.12-11.53,3.23-13.84,1.19,0,0,1.57-5.16,3.42-7.11.4-.42.36-3.21.09-3.91s-3.36-5.9-3.36-5.9-.23-5.28,1.12-6.32c1.17-.91,4.36-1.23,4.93-1.43A9.64,9.64,0,0,1,50.64,178.57Z"/><path class="cls-115" d="M51.21,182.56l1.09-1.27-.95-3.36A21.84,21.84,0,0,0,51.21,182.56Z"/><path class="cls-14" d="M44.38,179.54a3.11,3.11,0,0,0-3.55,1.84c-1.3,2.49-1,3.83-1.27,5s-1.5,8.61-1.57,8.94-1.22,4.13-1.07,5.3,1.22,10,1.17,10.33,2.07-.28,2.07-.28-.09-9.05,0-9.8.15-4.67.71-5.68,1.94-7.16,2.24-7.8S46.29,180.35,44.38,179.54Z"/><path class="cls-14" d="M51.49,176.5a41.48,41.48,0,0,0-.28,4.36s-1.86,1.86-4-2.18a5.57,5.57,0,0,0,.22-3.94C46.78,172.47,51.49,176.5,51.49,176.5Z"/><polygon class="cls-14" points="51.21 180.86 51.21 182.56 49.21 180.79 51.21 180.86"/><polygon class="cls-115" points="51.21 182.56 50.32 181.46 47.32 178.47 46.2 178.97 51.21 182.56"/><polygon class="cls-116" points="52.3 181.29 53.67 181.66 51.35 177.93 52.3 181.29"/><polygon class="cls-116" points="50.32 181.46 49.06 183.47 46.15 178.9 47.4 178.26 50.32 181.46"/><path class="cls-115" d="M56.7,189.56a15.31,15.31,0,0,0,0-4.79s-.27,1.46-.91,3.74Z"/><path class="cls-115" d="M42.78,189.17l1.31-4.33a35.07,35.07,0,0,1-.55,5.64Z"/><polygon class="cls-117" points="88.94 168.62 69.44 193.19 70.12 193.72 88.94 168.62"/><path class="cls-108" d="M74.08,188.86s-1.47-.14-1.52.09a.37.37,0,0,0,.07.35l-.63.22s-.33.38.18.63c0,0-.35.32.17.51,0,0-.14.31.09.44a4.89,4.89,0,0,0,1.17.18s.21-.08.16-.45a.5.5,0,0,0,.22-.53.56.56,0,0,0,.13-.56s.45-.45.11-.86Z"/><path class="cls-14" d="M71.67,188.38a5.2,5.2,0,0,1,1.19,1.05c.07.11.13.23,0,.34s-.34.15-.72-.06a3.69,3.69,0,0,0-1-.33S70.89,189.05,71.67,188.38Z"/><path class="cls-14" d="M50,165.31s3.3-.09,3.91,3.82-.8,7.34-1.35,7.89-3.85.13-4.63-1.9-1.91-3.51-1.74-5.25S45.92,165.24,50,165.31Z"/><path class="cls-15" d="M54,170.61s.88-4.88-3.5-5.75-5.92,2.12-6.33,3.91.07,6.8.07,6.8a22.88,22.88,0,0,0,4.67,3.23s-1.46-5.35-.91-9.18a18.72,18.72,0,0,0,5.92,0S54,170.4,54,170.61Z"/><path class="cls-16" d="M51.42,177.23a5.62,5.62,0,0,1-2.71-1,6.41,6.41,0,0,0,2.63,1.88S51.43,177.41,51.42,177.23Z"/><rect class="cls-118" x="32.84" y="203.37" width="12.91" height="9.55" transform="matrix(0.99, -0.16, 0.16, 0.99, -33.03, 9.05)"/><path class="cls-14" d="M37.65,213.73a1.71,1.71,0,0,1-.22-.51s0-.34,0-.58a.82.82,0,0,0,0-.18,3.4,3.4,0,0,1-.15-1,22,22,0,0,1,.64-2.36l1.13,0,1.06-.11a20.53,20.53,0,0,1,1.31,2.87V212a4.38,4.38,0,0,1-.21.81c0,.07-.16.74-.35.84a.7.7,0,0,1-.66,0,1.63,1.63,0,0,1-.88.13,1,1,0,0,1-.9,0S37.87,214,37.65,213.73Z"/><path class="cls-93" d="M44.38,179.54a3.11,3.11,0,0,0-3.55,1.84,11.23,11.23,0,0,0-1.46,4.76c-.17,1.15-1.75,8-1.82,8.3s-.59,4.58-.63,6.13c0,1.18.25,8.91.2,9.21s3.57-.52,3.57-.52-.4-7.13-.32-7.88a39.77,39.77,0,0,1,.6-5.56c.42-1.29,2.12-7.76,2.42-8.4S46.29,180.35,44.38,179.54Z"/><path class="cls-119" d="M161.14,246.56l.23-2.19a17,17,0,0,0-3.45.24s.27,1.84.3,2.11S161.14,246.56,161.14,246.56Z"/><path class="cls-120" d="M155.89,251.14c3.67,0,5.44.22,5.84-.38s-.57-4.4-.57-4.4a7.65,7.65,0,0,1-3,.13,7.87,7.87,0,0,1-1.8,1.59c-.88.48-2.27.67-2.8,1.17C153.22,249.61,152.22,251.17,155.89,251.14Z"/><path class="cls-119" d="M140.46,246.56l.24-2.19a16.94,16.94,0,0,0-3.45.24s.26,1.84.3,2.11S140.46,246.56,140.46,246.56Z"/><path class="cls-120" d="M135.22,251.14c3.67-.1,5.44.22,5.83-.38s-.56-4.4-.56-4.4a7,7,0,0,1-3,.13,7.87,7.87,0,0,1-1.8,1.59c-.89.48-4.14.88-4.66,1.38S130.05,251.27,135.22,251.14Z"/><path class="cls-8" d="M156.9,197.16a27.29,27.29,0,0,1,1.33,8.49c-.2,3.93.8,8.23,1.2,12.34.46,4.57,2.32,15.41,2.38,17.86s-.29,10.27-.29,10.27l-3.71.08s-3.13-18.94-3.94-20.88-4.82-15.71-5-17.26S156.9,197.16,156.9,197.16Z"/><path class="cls-8" d="M141.26,198s-2,10.77-2.31,13.18-.45,11.64-.58,13.14-.9,19.68-1.62,21.91h4.75s3.65-13.21,3.65-19.46S148,213.15,149.79,209s6-4.22,7.11-11.87C156.9,197.16,142.78,195.54,141.26,198Z"/><path class="cls-14" d="M150.93,161.15s-3.75-1.4-5.48,1.45-1.56,8.57.33,9.27,4.73.33,5.69-1.45a14.32,14.32,0,0,0,1.8-6.09A3.75,3.75,0,0,0,150.93,161.15Z"/><path class="cls-14" d="M146.41,171.69a3.17,3.17,0,0,1-.1,1.47c-.25.48,4.71.5,4.71.5a33.37,33.37,0,0,1,1.17-4.86C153,166.58,146.41,171.69,146.41,171.69Z"/><path class="cls-121" d="M152.19,168.8s-.34.57-1.74.35-3.11-2.08-3.69-2.29-.59-.55-.59-.55l-.37.54-.62,0s.57-1.67-.28-2.35.88-5.38,5.37-3.82c0,0,3.21.64,3.41,2.59A9,9,0,0,1,152.19,168.8Z"/><path class="cls-122" d="M146,173.1s0-.92.44-1a30,30,0,0,1,5.14-.29v1.07S150.6,173.48,146,173.1Z"/><path class="cls-14" d="M146.26,165.6c.08-.33.92-1.27,1.24-.26s-.49,2.36-.93,2.24S146.06,166.44,146.26,165.6Z"/><path class="cls-70" d="M146,173.1s-2.3.83-5,2a5.59,5.59,0,0,0-3.41,4.54c-.18,1.8-2.09,11.36-2.45,12.17s-4.62,13.8-4.77,14.07,3.47,1.78,3.71,1.66,4.12-11.86,4.51-12.73c0,0,2.24-7,2.29-8.08,0,0,.07,3,.19,3.83s-2,17.13-1.93,17.58,9.57,1,13.38.6a46.26,46.26,0,0,0,6.87-1.3s-3-12.85-2.9-14.28c.2-3.11,1.24-8.95,1.24-8.95l3.1,5.84-4,10.22.91,3.11s7.38-11.15,7.62-12.17a5.49,5.49,0,0,0-.75-3.16c-.39-.84-3-7.22-3.55-8.12s-1.61-4.5-4.06-5.5a38.39,38.39,0,0,0-5.48-1.53Z"/><rect class="cls-123" x="124.83" y="197.19" width="17.95" height="12.52" transform="translate(54.72 -26.86) rotate(14.38)"/><path class="cls-124" d="M128.9,208.51s-.5.8-.68,1,.45.37.72.14S128.9,208.51,128.9,208.51Z"/><path class="cls-125" d="M132.52,211.25a2.21,2.21,0,0,0,.36-.5s.08-.37.16-.63c0-.08.05-.15.07-.19a3.79,3.79,0,0,0,.4-1.06c.07-.49.29-2.72.29-2.72l-1.35-.34-1.08-.23a22.18,22.18,0,0,0-2.46,2.79l0,.13a5.08,5.08,0,0,0,0,.93c0,.07,0,.85.19,1a.76.76,0,0,0,.72.17,1.71,1.71,0,0,0,.93.35,1.1,1.1,0,0,0,1,.18S132.22,211.44,132.52,211.25Z"/><path class="cls-70" d="M137.78,197.18s-3.09,9.34-3.66,10.33a10.21,10.21,0,0,1-3.71-1.66l3.39-10.08Z"/><path class="cls-126" d="M416.16,211.75s11.45-33.59-10.41-44-40.41,4.64-43.92,12.79-2.58,23,.41,33.29,2.56,26.05-3.94,31.31-14.55,14-14.15,31.77c.25,11,43.4-28.21,43.4-28.21Z"/><path class="cls-104" d="M385.45,251.71s-18,4-25.1,8.15-23,23.34-23,31.58,69.26,15.95,69.26,15.95l13.12,47.92s35-8.54,39.18-15.63-13.3-57.86-16.29-68.13c-3-10.49-15.59-17.79-30.18-19.84A100.26,100.26,0,0,0,385.45,251.71Z"/><path class="cls-14" d="M411.22,251.55s-.4,21.83-17.72,22.48-13.71-20.94-13.71-20.94S392.46,248,411.22,251.55Z"/><path class="cls-126" d="M418.55,185.65s6.13,35.12-11.32,60.49C389.16,272.42,418.55,185.65,418.55,185.65Z"/><path class="cls-14" d="M407.51,236.11s-1.21,10.44.8,16.94-26.48,6.67-26.46,1.33c0-6.07,2.91-11.13.19-21.53S407.51,236.11,407.51,236.11Z"/><path class="cls-16" d="M385.41,237.44s9,9.37,20.5,1c0,0-1,6-9.23,6.76S385.41,237.44,385.41,237.44Z"/><path class="cls-14" d="M396.67,173.47s22.74,6.73,19.49,38.28-18.1,29.93-19.49,30.16-19,1.39-24.59-36.89S396.67,173.47,396.67,173.47Z"/><path class="cls-126" d="M390.8,187.54s12.36,19.65,25.36,24.21c0,0,7.1-33-22.22-39.88s-24.73,33.3-22.54,44A87.06,87.06,0,0,1,390.8,187.54Z"/><path class="cls-34" d="M374.23,184.58s6.51-12.59,17.49-13.15,17.51,9,17.51,9a18.68,18.68,0,0,0-17.5-10.73C378.52,169.66,374.23,184.58,374.23,184.58Z"/><polygon class="cls-127" points="418.94 283.63 426.65 355.31 325.17 355.31 317.46 283.63 418.94 283.63"/><path class="cls-127" d="M424.21,352.85H321.84L314,280.28H416.4ZM322.63,352H423.22l-7.61-70.79H315Z"/><path class="cls-128" d="M378.35,318.31c.91,4.46-1.17,8.65-4.65,9.36s-7-2.33-7.94-6.79,1.17-8.65,4.64-9.36S377.44,313.85,378.35,318.31Z"/><rect class="cls-127" x="417.05" y="348.1" width="18.94" height="7.21" transform="translate(853.04 703.41) rotate(180)"/><path class="cls-4" d="M358.18,140.09a15.61,15.61,0,1,1,15.61-15.61A15.62,15.62,0,0,1,358.18,140.09Zm0-30.34a14.73,14.73,0,1,0,14.72,14.73A14.75,14.75,0,0,0,358.18,109.75Z"/><path class="cls-129" d="M82.87,298.81l0-1.33c2.65,0,5.32-.1,7.93-.22l.07,1.33C88.21,298.71,85.53,298.78,82.87,298.81Zm-8-.09c-2.62-.07-5.31-.19-8-.36L67,297c2.65.17,5.32.29,7.93.37Zm23.93-.67-.11-1.32c2.62-.23,5.27-.51,7.88-.84l.17,1.31C104.12,297.54,101.45,297.82,98.81,298.05Zm-39.87-.33c-2.72-.27-5.39-.61-7.93-1l.21-1.31c2.52.41,5.16.76,7.85,1ZM114.65,296l-.22-1.31c2.56-.43,5.18-.92,7.8-1.46l.27,1.3C119.86,295.11,117.22,295.6,114.65,296Zm-71.49-.93c-2.67-.64-5.26-1.4-7.69-2.23l.43-1.26c2.39.82,4.94,1.57,7.57,2.2Zm87.13-2.28-.31-1.29c2.43-.59,5-1.23,7.7-2l.34,1.29C135.26,291.6,132.73,292.24,130.29,292.83ZM28,289.85a57.58,57.58,0,0,1-7-3.94l.74-1.11a56.19,56.19,0,0,0,6.84,3.86Zm117.67-1.1-.36-1.27,3.3-.94,4.37-1.23.36,1.28L149,287.82Zm69.19-1.11c-2.45-1.15-4.9-2.17-7.29-3l.45-1.25c2.43.87,4.92,1.91,7.41,3.08ZM161,284.52l-.33-1.28c2.85-.73,5.4-1.33,7.78-1.82l.27,1.3C166.4,283.21,163.87,283.8,161,284.52Zm39-2.14a62.45,62.45,0,0,0-7.76-1.28l.13-1.32a63.64,63.64,0,0,1,7.93,1.31Zm-23.49-1-.17-1.31a75.48,75.48,0,0,1,8-.62l0,1.33A75.42,75.42,0,0,0,176.55,281.4Zm-161.86-.46a44.3,44.3,0,0,1-5.4-6l1.07-.79A42.85,42.85,0,0,0,15.59,280Zm-9.6-12.88a47.53,47.53,0,0,1-2.9-7.53l1.27-.37a47.1,47.1,0,0,0,2.82,7.31ZM.54,252.65a63.43,63.43,0,0,1-.54-8H1.33a60.62,60.62,0,0,0,.53,7.85Zm1.18-15.91L.4,236.6c.26-2.6.67-5.27,1.19-7.94l1.3.26C2.38,231.55,2,234.18,1.72,236.74Zm3-15.5-1.27-.37a71.2,71.2,0,0,1,2.6-7.62l1.22.52A72.07,72.07,0,0,0,4.76,221.24Z"/><path class="cls-129" d="M426.44,60.17s-2.24-2-6.21-4.93l.8-1.07c4,3,6.27,5,6.3,5Zm-12.7-9.51c-2.18-1.45-4.44-2.88-6.71-4.25l.69-1.13c2.28,1.37,4.56,2.81,6.76,4.28Zm-13.6-8.18c-2.33-1.26-4.71-2.47-7.07-3.6l.57-1.2c2.38,1.14,4.78,2.36,7.13,3.63Zm-14.31-6.85c-2.46-1-4.94-2-7.4-2.86l.45-1.25c2.48.88,5,1.85,7.46,2.89ZM285,34l0-1.33a56.73,56.73,0,0,0,7.83-.73l.22,1.31A57.94,57.94,0,0,1,285,34Zm-8-.41A59.45,59.45,0,0,1,269.06,32l.34-1.28a58.32,58.32,0,0,0,7.71,1.52Zm23.88-2.15-.37-1.27c.85-.25,1.72-.53,2.58-.81,1.66-.56,3.35-1.08,5-1.56l.36,1.28c-1.66.47-3.33,1-5,1.53C302.58,30.92,301.7,31.2,300.83,31.45Zm70.07-1.14c-2.55-.75-5.13-1.43-7.67-2l.3-1.29c2.56.59,5.17,1.28,7.74,2Zm-109.46-.78c-2.34-.91-4.73-2-7.33-3.22l.58-1.2c2.56,1.24,4.93,2.28,7.23,3.18Zm54.67-2.29-.26-1.3c2.61-.52,5.27-1,7.91-1.28l.16,1.32C321.31,26.3,318.68,26.72,316.11,27.24Zm39.35-.49c-2.61-.43-5.25-.78-7.85-1l.13-1.32c2.62.26,5.29.61,7.94,1ZM122.22,25.49l-.72-1.12c2.28-1.47,4.55-2.89,6.77-4.23l.68,1.14C126.75,22.6,124.49,24,122.22,25.49Zm209.58-.18L331.74,24c2.64-.13,5.33-.15,8-.08l0,1.32C337.07,25.16,334.41,25.19,331.8,25.31ZM247,22.64c-2.25-1.23-4.48-2.48-7-3.88l.65-1.16c2.48,1.4,4.7,2.65,7,3.87ZM135.83,17.3l-.65-1.16c2.38-1.31,4.76-2.56,7.08-3.71l.59,1.19C140.55,14.76,138.19,16,135.83,17.3Zm97.28-2.42c-2.59-1.43-4.89-2.64-7-3.7l.59-1.19c2.15,1.07,4.46,2.29,7.07,3.72ZM150,10.27l-.53-1.22c2.5-1.08,5-2.08,7.43-3l.45,1.24C155,8.2,152.51,9.19,150,10.27Zm68.88-2.42c-2.55-1.07-5-2-7.4-2.78l.41-1.26c2.47.81,4.92,1.73,7.5,2.82Zm-54-3-.36-1.27c2.61-.76,5.23-1.4,7.78-1.92L172.58,3C170.07,3.48,167.49,4.12,164.9,4.86ZM203.9,3a71.84,71.84,0,0,0-7.77-1.27l.14-1.32a75,75,0,0,1,7.92,1.29ZM180.38,1.77,180.24.45a77.76,77.76,0,0,1,8-.45V1.33A72.59,72.59,0,0,0,180.38,1.77Z"/><polygon class="cls-130" points="261.07 302.21 227.72 292.51 237.72 289.49 261.07 302.21"/><polygon class="cls-131" points="261.07 302.21 248.6 289.68 240.93 291.24 261.07 302.21"/><polygon class="cls-132" points="235.39 294.74 235.66 298.6 261.07 302.21 235.39 294.74"/><polygon class="cls-130" points="93.17 47.55 122.58 31.11 112.47 30.44 93.17 47.55"/><polygon class="cls-131" points="93.17 47.55 102.22 33 109.81 32.8 93.17 47.55"/><polygon class="cls-132" points="115.81 34.89 116.4 38.6 93.17 47.55 115.81 34.89"/></g></g></svg>