<svg xmlns="http://www.w3.org/2000/svg" xmlns:xlink="http://www.w3.org/1999/xlink" viewBox="0 0 2046.63 1728.66"><defs><style>.cls-1{fill:url(#linear-gradient);}.cls-2{fill:url(#linear-gradient-2);}.cls-3{fill:url(#linear-gradient-3);}.cls-4{fill:url(#linear-gradient-4);}.cls-5{fill:#f0c141;}.cls-6{fill:#8f8f8f;}.cls-7{fill:#f0f0f0;}.cls-8{fill:#fff;}.cls-9{fill:url(#linear-gradient-5);}.cls-10{fill:#ccc;}.cls-11{fill:#f5f7ff;}.cls-12{fill:#e6e6e6;}.cls-13{fill:#78c2ff;}.cls-14{fill:#f3f3f3;}.cls-15{fill:url(#linear-gradient-6);}.cls-16{fill:url(#linear-gradient-7);}.cls-17{fill:url(#linear-gradient-8);}.cls-18{fill:url(#linear-gradient-9);}.cls-19{fill:url(#linear-gradient-10);}.cls-20{fill:url(#linear-gradient-11);}.cls-21{fill:#eea886;}.cls-22{fill:#db9c7c;}.cls-23{fill:#323657;}.cls-24{fill:#4da8f2;}.cls-25{fill:#efaa88;}.cls-26{fill:#424773;}.cls-27{fill:#292c47;}.cls-28{fill:#d88a51;}.cls-29{fill:#e2d2ca;}.cls-30{fill:#dfe1e8;}.cls-31{fill:#de9673;}.cls-32{fill:#2f4563;}.cls-33{fill:#1e2d40;}.cls-34{fill:#23344a;}.cls-35{fill:#41608a;}.cls-36{fill:#eea987;}.cls-37{fill:#eb4747;}.cls-38{fill:#464240;}.cls-39{fill:#a77860;}.cls-40{fill:#6e6760;}.cls-41{fill:#5c544d;}.cls-42{fill:#3c4145;}.cls-43{fill:#33373b;}.cls-44{fill:#fccca2;}.cls-45{fill:#d6d6d6;}.cls-46{fill:#c98462;}.cls-47{fill:#de9d7d;}.cls-48{fill:#1d3b54;}.cls-49{fill:#434343;}.cls-50{fill:#cf8c6c;}.cls-51{fill:#eef0f7;}.cls-52{fill:#e0e0e0;}.cls-53{fill:#b8b8b8;}.cls-54{fill:#d9d9d9;}.cls-55{fill:url(#linear-gradient-12);}.cls-56{fill:url(#linear-gradient-13);}</style><linearGradient id="linear-gradient" x1="-11763.79" y1="361.18" x2="-11375.7" y2="361.18" gradientTransform="matrix(-1, -0.05, -0.05, 1, -11212.85, -276.25)" gradientUnits="userSpaceOnUse"><stop offset="0" stop-color="#40d5e6"/><stop offset="1" stop-color="#57f"/></linearGradient><linearGradient id="linear-gradient-2" x1="-3289.84" y1="3869.1" x2="-3289.84" y2="3596.21" gradientTransform="translate(431.18 -4187.05) rotate(-41.45)" xlink:href="#linear-gradient"/><linearGradient id="linear-gradient-3" x1="-11726.65" y1="244.04" x2="-11542.94" y2="244.04" xlink:href="#linear-gradient"/><linearGradient id="linear-gradient-4" x1="-1621.79" y1="3260.34" x2="-1621.79" y2="2992.38" gradientTransform="translate(285.05 -2894.24) rotate(-29.45)" xlink:href="#linear-gradient"/><linearGradient id="linear-gradient-5" x1="469.07" y1="411.91" x2="1580.38" y2="411.91" gradientTransform="translate(2049.46 823.82) rotate(-180)" xlink:href="#linear-gradient"/><linearGradient id="linear-gradient-6" x1="-4933.87" y1="1193.84" x2="-4714.46" y2="1193.84" gradientTransform="matrix(-1, 0, 0, 1, -4574.5, 0)" xlink:href="#linear-gradient"/><linearGradient id="linear-gradient-7" x1="-4772.92" y1="1316.27" x2="-4574.5" y2="1316.27" gradientTransform="matrix(-1, 0, 0, 1, -4574.5, 0)" xlink:href="#linear-gradient"/><linearGradient id="linear-gradient-8" x1="-4755.96" y1="1345.12" x2="-4607.03" y2="1345.12" gradientTransform="matrix(-1, 0, 0, 1, -4574.5, 0)" xlink:href="#linear-gradient"/><linearGradient id="linear-gradient-9" x1="-4809.73" y1="1225.28" x2="-4636.3" y2="1225.28" gradientTransform="matrix(-1, 0, 0, 1, -4574.5, 0)" xlink:href="#linear-gradient"/><linearGradient id="linear-gradient-10" x1="108.96" y1="1474.05" x2="269" y2="1474.05" gradientTransform="translate(6.03)" gradientUnits="userSpaceOnUse"><stop offset="0" stop-color="#ff9340"/><stop offset="1" stop-color="#ffce45"/></linearGradient><linearGradient id="linear-gradient-11" x1="108.96" y1="1474.05" x2="269" y2="1474.05" gradientTransform="translate(6.03)" gradientUnits="userSpaceOnUse"><stop offset="0" stop-color="#c97332"/><stop offset="1" stop-color="#ffce45"/></linearGradient><linearGradient id="linear-gradient-12" x1="1198.34" y1="623.13" x2="584.75" y2="623.13" gradientTransform="matrix(1, 0, 0, 1, 0, 0)" xlink:href="#linear-gradient"/><linearGradient id="linear-gradient-13" x1="530.8" y1="608.5" x2="1132.5" y2="608.5" gradientTransform="matrix(1, 0, 0, 1, 0, 0)" xlink:href="#linear-gradient"/></defs><g id="Layer_2" data-name="Layer 2"><g id="Слой_1" data-name="Слой 1"><path class="cls-1" d="M479.76,727.44c25.15,54.89,39.29,106.84,20.77,130a30.43,30.43,0,0,1-3.59,3.76c-14.27,12.57-42.33,12.85-89.7-5.86C281.15,805.55,275.16,719.6,249.66,635.66c-25.14-82.89-113-68.88-115.2-68.51C339.08,495.88,437.08,634.37,479.76,727.44Z"/><path class="cls-2" d="M500.53,857.46a30.43,30.43,0,0,1-3.59,3.76c-23.68-14.26-69-44.52-90.42-78.48-10.08-16-18.56-34-27.55-53.11-17-36.06-34.54-73.35-65.21-102l3.42-3.68c31.37,29.27,49.13,67,66.32,103.5,8.91,18.93,17.32,36.81,27.27,52.56C431.62,813.19,477.44,843.56,500.53,857.46Z"/><path class="cls-3" d="M457.85,749.87c-1.48,3.65-2.44,5.72-2.55,6-.39-2-.76-4-1.15-6-16.82-86.19-39.31-95.19-106.76-170.58-69-77.11-29.3-148.95-29.3-148.95C549.16,497.11,473.55,711.34,457.85,749.87Z"/><path class="cls-4" d="M457.85,749.87c-1.48,3.65-2.44,5.72-2.55,6-.39-2-.76-4-1.15-6,7.49-74.51-37.46-161.94-51.58-177.63-14.62-16.24-23.62-38.58-27-47-.58-1.4-1.11-2.73-1.29-3l3.26-1.84c.29.51.66,1.44,1.49,3.48,3.33,8.25,12.17,30.14,26.34,45.88C423.25,589.62,464.72,677.47,457.85,749.87Z"/><path class="cls-5" d="M1768.36,395.59,1739.88,349a8.11,8.11,0,0,1,13.84-8.46l20.14,33,53.54-31.69a8.11,8.11,0,1,1,8.26,14Z"/><path class="cls-5" d="M1787.48,467.46a102.42,102.42,0,1,1,102.41-102.41A102.53,102.53,0,0,1,1787.48,467.46Zm0-190.2a87.79,87.79,0,1,0,87.78,87.79A87.89,87.89,0,0,0,1787.48,277.26Z"/><path class="cls-5" d="M1451.18,245l-17.59-28.81a5,5,0,1,1,8.55-5.23l12.45,20.38,33.08-19.58a5,5,0,1,1,5.11,8.63Z"/><path class="cls-5" d="M1463,289.37a63.29,63.29,0,1,1,63.29-63.29A63.36,63.36,0,0,1,1463,289.37Zm0-117.54a54.25,54.25,0,1,0,54.25,54.25A54.32,54.32,0,0,0,1463,171.83Z"/><path class="cls-5" d="M1125.73,138.6l-27-44.2a7.69,7.69,0,0,1,13.13-8L1131,117.64l50.75-30a7.69,7.69,0,0,1,7.83,13.24Z"/><path class="cls-5" d="M1143.85,206.74a97.09,97.09,0,1,1,97.09-97.09A97.2,97.2,0,0,1,1143.85,206.74Zm0-180.31a83.22,83.22,0,1,0,83.22,83.22A83.31,83.31,0,0,0,1143.85,26.43Z"/><path class="cls-5" d="M840.18,244.55l-17.84-29.21a5.08,5.08,0,0,1,8.68-5.29l12.61,20.65,33.54-19.85a5.08,5.08,0,1,1,5.17,8.75Z"/><path class="cls-5" d="M852.16,289.57a64.15,64.15,0,1,1,64.15-64.15A64.22,64.22,0,0,1,852.16,289.57Zm0-119.14a55,55,0,1,0,55,55A55.05,55.05,0,0,0,852.16,170.43Z"/><path class="cls-5" d="M589.57,104.26,567.24,67.69a6.36,6.36,0,1,1,10.85-6.63l15.79,25.86,42-24.85A6.36,6.36,0,1,1,642.34,73Z"/><path class="cls-5" d="M604.56,160.62a80.31,80.31,0,1,1,80.31-80.31A80.4,80.4,0,0,1,604.56,160.62Zm0-149.15A68.84,68.84,0,1,0,673.4,80.31,68.92,68.92,0,0,0,604.56,11.47Z"/><path class="cls-5" d="M305.1,286l-24.75-40.54a7,7,0,1,1,12-7.35l17.51,28.66,46.54-27.54a7.05,7.05,0,0,1,7.19,12.14Z"/><path class="cls-5" d="M321.72,348.5a89,89,0,1,1,89-89A89.13,89.13,0,0,1,321.72,348.5Zm0-165.35A76.32,76.32,0,1,0,398,259.47,76.4,76.4,0,0,0,321.72,183.15Z"/><path class="cls-5" d="M1663.39,119.35l-14.08-23a4,4,0,0,1,6.84-4.18l10,16.3,26.46-15.66a4,4,0,1,1,4.09,6.9Z"/><path class="cls-5" d="M1672.84,154.88a50.63,50.63,0,1,1,50.62-50.62A50.68,50.68,0,0,1,1672.84,154.88Zm0-94a43.4,43.4,0,1,0,43.39,43.4A43.45,43.45,0,0,0,1672.84,60.86Z"/><rect class="cls-6" x="954.91" y="1099.95" width="139.64" height="424.12" transform="translate(2049.46 2624.02) rotate(180)"/><rect class="cls-7" x="421.85" y="453.66" width="1205.75" height="850.6" rx="61.33" transform="translate(2049.46 1757.91) rotate(180)"/><rect class="cls-8" x="469.07" y="363.12" width="1111.31" height="807.83" transform="translate(2049.46 1534.08) rotate(180)"/><rect class="cls-9" x="469.07" y="363.12" width="1111.31" height="97.57" transform="translate(2049.46 823.82) rotate(180)"/><path class="cls-10" d="M1445.15,1232c0,21.48,20.47,38.9,45.73,38.9s45.73-17.42,45.73-38.9-20.47-38.89-45.73-38.89S1445.15,1210.47,1445.15,1232Z"/><rect class="cls-10" x="710.63" y="1508.06" width="628.2" height="32.01"/><rect class="cls-11" x="515.49" y="393.48" width="158.5" height="36.87" rx="13.25"/><rect class="cls-12" x="550.49" y="800.66" width="581.84" height="20"/><rect class="cls-12" x="550.49" y="836.68" width="431.55" height="20"/><rect class="cls-12" x="550.49" y="914.95" width="273.63" height="20"/><rect class="cls-12" x="550.49" y="950.97" width="491.6" height="20"/><rect class="cls-12" x="550.49" y="1037.04" width="460.53" height="20"/><rect class="cls-12" x="550.49" y="1073.06" width="562.36" height="20"/><rect class="cls-13" x="522.1" y="800.66" width="14.62" height="56.02"/><rect class="cls-13" x="522.1" y="914.95" width="14.62" height="56.02"/><rect class="cls-13" x="522.1" y="1037.04" width="14.62" height="56.02"/><rect class="cls-13" x="1262.2" y="1038.15" width="80.14" height="80.14" rx="16.77"/><path class="cls-14" d="M1299.73,1095.87l-20.26-17.66a4,4,0,0,1,5.25-6l14.32,12.49,20.43-22.78a4,4,0,0,1,6,5.32Z"/><path class="cls-13" d="M1324.12,996.24h-43.7A18.28,18.28,0,0,1,1262.16,978V934.29A18.29,18.29,0,0,1,1280.42,916h43.7a18.29,18.29,0,0,1,18.26,18.27V978A18.28,18.28,0,0,1,1324.12,996.24Zm-43.7-75.13a13.19,13.19,0,0,0-13.17,13.18V978a13.19,13.19,0,0,0,13.17,13.17h43.7A13.19,13.19,0,0,0,1337.29,978V934.29a13.19,13.19,0,0,0-13.17-13.18Z"/><path class="cls-13" d="M1444.78,1118.33h-43.69a18.28,18.28,0,0,1-18.27-18.27v-43.68a18.28,18.28,0,0,1,18.27-18.27h43.69a18.28,18.28,0,0,1,18.26,18.27v43.68A18.28,18.28,0,0,1,1444.78,1118.33Zm-43.69-75.13a13.19,13.19,0,0,0-13.18,13.18v43.68a13.19,13.19,0,0,0,13.18,13.18h43.69a13.19,13.19,0,0,0,13.17-13.18v-43.68a13.19,13.19,0,0,0-13.17-13.18Z"/><rect class="cls-13" x="1382.86" y="916.06" width="80.14" height="80.14" rx="16.77"/><path class="cls-14" d="M1420.39,973.78l-20.26-17.66a4,4,0,0,1,5.25-6l14.32,12.49,20.43-22.78a4,4,0,0,1,5.95,5.32Z"/><path class="cls-13" d="M1444.78,874.15h-43.69a18.28,18.28,0,0,1-18.27-18.26V812.2a18.29,18.29,0,0,1,18.27-18.27h43.69A18.29,18.29,0,0,1,1463,812.2v43.69A18.28,18.28,0,0,1,1444.78,874.15ZM1401.09,799a13.19,13.19,0,0,0-13.18,13.18v43.69a13.2,13.2,0,0,0,13.18,13.18h43.69A13.2,13.2,0,0,0,1458,855.89V812.2A13.19,13.19,0,0,0,1444.78,799Z"/><rect class="cls-13" x="1262.2" y="793.97" width="80.14" height="80.14" rx="16.77"/><path class="cls-14" d="M1299.73,851.69,1279.47,834a4,4,0,0,1,5.25-6L1299,840.5l20.43-22.78a4,4,0,1,1,6,5.33Z"/><path class="cls-15" d="M340.19,903.92c-18.91-9-37.74,51.17-37.74,51.17-32.16,42.49-77.1-14-72.7,49.49,7.69,111.14-127.94,34.95-65.37,151s-55.25,65.61-16.36,159.18-11.52,205.16,47,159.3c0,0,51.51-113,104.64-147.92s-31.83-76.42-15.21-123.89c24.15-69,82.32-66.25,40.37-140.34S404.5,934.67,340.19,903.92Z"/><path class="cls-8" d="M176.48,1431.53c25.36-17.83,55-142.12,56.81-216.15.91-37.92,12.12-53.71,22-67.65,9.45-13.33,17.62-24.83,12.86-51.25-9.09-50.5,14.81-72.29,15-72.5l-2.77-3.16c-1.06.93-25.95,23.41-16.41,76.4,4.45,24.69-2.88,35-12.15,48.08-9.73,13.71-21.84,30.78-22.78,70-1.9,79.45-32.24,196.8-55,212.82Z"/><path class="cls-16" d="M123.33,1395.28c-2.4-5.42-4.87-11-7.68-17-14.49-30.59-27.32-35.62-48.58-44-5.19-2-11.08-4.35-17.55-7.25-30.45-13.69-24.56-33.86-19.35-51.65.72-2.49,1.45-5,2.08-7.43,2.68-10.47-2.47-15.72-10.26-23.67-5.79-5.9-13-13.26-18.55-24.87-6.08-12.71-3-19.52.69-23,7.73-7.32,25.54-6,42.36,3.21h0c5.23,2.85,9.53,7.36,14.08,12.13,10.73,11.22,24.07,25.2,57.82,25.36,19.25.09,29.79,2.74,35.25,8.88,6.19,7,5,17.38,3.41,31.81-.56,5-1.19,10.64-1.58,16.75-2.3,36.45,19.22,62.75,19.44,63,12.85,15.31,28.69,47.07,21.85,66.62-2.86,8.19-9.27,13.35-19,15.32a54.08,54.08,0,0,1-10.73,1.17C143.39,1440.75,134.75,1421.17,123.33,1395.28Zm-78.85-191.9c-15-8.2-31.13-9.85-37.46-3.84-4.82,4.56-2.55,12.38.21,18.14,5.25,11,11.89,17.77,17.76,23.75,8.15,8.31,14.59,14.88,11.32,27.64-.64,2.5-1.38,5-2.12,7.56-5.18,17.72-10.07,34.46,17.05,46.65,6.37,2.87,12.21,5.16,17.36,7.18,21.47,8.42,35.64,14,50.84,46.07,2.83,6,5.32,11.61,7.72,17.06,13.12,29.73,21,47.68,49.72,41.88,8.23-1.66,13.58-5.9,15.93-12.6,6-17.23-8.39-47.39-21.12-62.54-.93-1.12-22.81-27.79-20.41-66,.4-6.21,1-11.92,1.6-17,1.49-13.35,2.58-23-2.38-28.55-4.52-5.09-14.43-7.4-32.13-7.48-35.53-.17-49.56-14.86-60.83-26.66-4.51-4.72-8.4-8.8-13.06-11.34Z"/><path class="cls-17" d="M177.26,1465l4.19-.22c-.2-3.94-5.49-96.69-42.73-123.83-40.86-29.79-53.74-61.79-59.87-83.27-7.23-25.32-44-32.08-45.59-32.36l-.73,4.13c.36.07,35.78,6.59,42.28,29.38,6.31,22.08,19.54,55,61.44,85.5C171.89,1370.28,177.21,1464,177.26,1465Z"/><path class="cls-18" d="M92.12,997.52c26.46-9.08,21,41.94,32.15,79.69s124.43,16.46,76.89,111,60.12,31.61,28,114.1-2.79,170.7-37.74,148.26-19.64-126.31-56-138.65-42.28-26.74-6.29-60.29S34.79,1184.75,67,1117,61.53,1008,92.12,997.52Z"/><path class="cls-8" d="M175.16,1446.61c3.33-14.12,31.76-138.39,5.23-153.41-23.38-13.24-22.8-64.74-19.15-113.36,3.22-43-52.06-63.16-54.41-64l-1.41,4c.55.2,54.62,19.89,51.63,59.74-3.74,49.93-4.14,102.92,21.27,117.32,20.15,11.4,1.6,111.28-7.24,148.8Z"/><polygon class="cls-19" points="275.03 1402.36 237.24 1545.74 152.78 1545.74 114.99 1402.36 275.03 1402.36"/><path class="cls-20" d="M275,1402.36s-83.2,15.62-83.2,143.38H152.78L115,1402.36Z"/><path class="cls-21" d="M936.91,1307.21s2.91,4.76,3.28,8.65c.29,3.08,2.87,7.68,4,10.22s4.73,14,4.86,17c.05,1.23-2.68,8.94-2.29,11.41s1.8,7.35-.42,7.68-4.72-3.68-4.72-3.68a3.24,3.24,0,0,1-1.67,3.13c-3.64,1.69-5.57.21-5.57.21s-1.35,2.49-3,2.83c-3.72.74-5.54-.75-5.54-.75a6.71,6.71,0,0,1-4.21,1.35,5.51,5.51,0,0,1-4.67-2.9s-4.17.84-5.38-1.1-1-4-1.49-5.78-.13-17.66,5.28-29.12-1.38-22.61-1.38-22.61Z"/><path class="cls-22" d="M942.19,1357s.37-14.28-3.38-17.31-4.19,2.11-4.19,2.11.52-5.09-3.59-5.78-4.28,5.36-4.28,5.36a4,4,0,0,0-5-3.12c-4.31.81-3.28,5.82-3.28,5.82s-4.12-4.91-6.79-.19c-4.51,8-.17,17.37-.17,17.37s1.28,2.15,5.38,1.1c0,0,2.74,5.53,8.88,1.55,0,0,6.29,3.46,8.58-2.08C934.37,1361.86,941.29,1365.15,942.19,1357Z"/><path class="cls-23" d="M985.32,1101.65s-24.43,81.42-32.68,111.45c-2.59,9.42-8.85,99.36-10,103s-32.09,8.59-32.09,8.59,3.76-112.52,4.11-118.66,34.18-131.79,44-136.28c7.37-3.35,11.27-.58,20.56,6.32C992.31,1085.73,985.32,1101.65,985.32,1101.65Z"/><rect class="cls-24" x="1219.44" y="968.91" width="66.82" height="4.96" transform="translate(-327.39 844.7) rotate(-33.2)"/><path class="cls-25" d="M1288.13,972.05a14.44,14.44,0,0,1-1.44,4.43s-1.83,2.19-3,3.82a12.57,12.57,0,0,0-.88,1.29,26.81,26.81,0,0,1-4.62,7.18c-2.66,2.7-13,11.29-13,11.29l-8.88-7.54-9.23-4.13s5.17-22.46,7.36-25.26a8.55,8.55,0,0,1,.66-.77c2.09-2.19,4.56-3,5.79-4,.45-.37,5.2-3.79,6.89-3.35a5.7,5.7,0,0,1,4.26,3.56s4.55,1.4,6.32,4.06c0,0,4.23,1.16,5.49,5.1C1283.78,967.75,1288,969.41,1288.13,972.05Z"/><path class="cls-26" d="M965.5,1657.53s-2.23,15.46-2.51,17.78-24.77-1.37-24.77-1.37l-2-18.4S962.44,1655.35,965.5,1657.53Z"/><path class="cls-27" d="M963.26,1673.34s7.76,9.32,15.26,13.38,19.3,5.66,23.74,9.86c3.2,3,11.67,16.1-19.51,15.83s-46.2,1.85-49.54-3.16,4.84-37,4.84-37S945.43,1675,963.26,1673.34Z"/><path class="cls-26" d="M1141,1657.53s-2.23,15.46-2.51,17.78-24.77-1.37-24.77-1.37l-2-18.4S1137.92,1655.35,1141,1657.53Z"/><path class="cls-27" d="M1138.74,1673.34s7.76,9.32,15.27,13.38,35.12,7.39,39.56,11.59c3.2,3,8.53,15.24-35.33,14.1-31.16-.81-46.2,1.85-49.54-3.16s4.83-37,4.83-37S1120.49,1675.13,1138.74,1673.34Z"/><path class="cls-27" d="M985.78,1260.39s-23,36.57-21.3,69.62-8.34,69.13-11.8,103.66c-3.85,38.49-19.62,129.61-20.19,150.2s2.44,86.33,2.44,86.33l31.58.72s26.51-159.3,33.38-175.55,40.92-132.14,42.07-145.14S985.78,1260.39,985.78,1260.39Z"/><path class="cls-27" d="M1106.93,1265.35s17.34,90.58,19.63,110.81,3.81,97.89,5,110.54,10.69,165.06,13.73,184.22h-40.36s-31-111.08-31-163.63S1050,1393,1034.52,1358.36s-50.82-35.5-60.32-99.84C974.2,1258.52,1094.07,1244.94,1106.93,1265.35Z"/><path class="cls-21" d="M1024.18,953s30.89-11.53,45.13,12,12.87,70.59-2.69,76.37-39,2.77-46.94-11.95-15.16-36-14.82-50.19S1016.07,957.1,1024.18,953Z"/><path class="cls-21" d="M1063.26,1042.42s-1.28,8.34.84,12.45-40,4.21-40,4.21-3.42-22.34-9.9-41.22S1063.26,1042.42,1063.26,1042.42Z"/><path class="cls-28" d="M1014.18,1017.86s2.9,4.8,14.78,2.93,26.35-17.65,31.31-19.39,5-4.64,5-4.64l3.1,4.53,5.27.33s-4.81-14.13,2.44-19.89-7.52-45.74-45.6-32.43c0,0-29.24,8.06-28.18,24.7S1007.63,1009.58,1014.18,1017.86Z"/><path class="cls-29" d="M1066.6,1054.38s-.13-7.85-3.69-8.61-39.27-4.18-43.64-2.47v9.15S1027.69,1057.63,1066.6,1054.38Z"/><path class="cls-21" d="M1064.49,990.71c-.67-2.79-7.76-10.77-10.48-2.23s4.11,20,7.91,19S1066.18,997.78,1064.49,990.71Z"/><path class="cls-23" d="M1125.67,1066.26c-24.48-3.23-59.07-11.89-59.07-11.89l-47.33-1.92s-43.44,9.56-60.55,17.28c-1.62.74-1.63,38.76-6.08,48.73l14.18,29.92s8.2,59.28,9.9,85.64c.78,12.1-16.9,113.48-16.9,113.48s18.94,5.58,51.25,9.14,113-1.29,113.52-5.11-15.63-142.07-16.35-149.23c-1.09-11,3.79-69.38,3.79-69.38,7.46-5.78,73-36.18,90.81-52,4.78-4.24,25-23.89,30.7-30.67,20.31-24,37-44.63,39-49.07,2.3-2.53-22.59-15.95-24.8-16.68-1.94-.65-28.87,35.1-39.44,46.55-4.72,5.1-24.31,19.35-24.31,19.35S1141,1067.14,1125.67,1066.26Z"/><path class="cls-28" d="M1015.39,955.77s-39.39,3.08-1.21,62.09Z"/><polygon class="cls-30" points="1282.17 955.16 1285.4 950.23 1279.45 951.01 1282.17 955.16"/><path class="cls-31" d="M493.62,1238.47s19.16,1.16,24.53,4.15,41.59-8.44,42.26-11.07,0-3.93,0-3.93H489.3Z"/><path class="cls-31" d="M407.6,1154s-6.11,48,0,54.32c23.35,24,109.89,22.14,109.89,22.14l0,9.78s-131.55,16.41-143.77-9.11c-14.68-30.65-9-80.65-9-80.65Z"/><polygon class="cls-32" points="364.19 1660.14 372 1651.23 357.89 1636.47 345.98 1644.82 364.19 1660.14"/><path class="cls-33" d="M346,1644.82s16.1,12.13,20.58,12.61,6.59,2.49,6.06,9.31,6.54,35.56,11.47,36,21.72.55,24.76,11.62-53.25,8.74-56.74-.34-27.72-53.06-24.85-56.6S337.72,1646,346,1644.82Z"/><path class="cls-34" d="M449.29,1301s105.18,183.23,62.49,221.14c-16.75,14.86-32.87,28.31-56,48.2-12.32,10.58-27.19,22.83-44.82,41.18l-.73.77c-12.57,13.1-22.94,24.17-26.14,27.6a2.86,2.86,0,0,0-.3.32l-.36.38-11.71,11.17-17.17-15.1S374,1609.76,385,1589.07c15.41-29,41.3-63.18,53.27-72.71,20.53-16.31,26.17-19.51,26.17-35.11,0-16.73-96.41-110.2-96.41-110.2s-14-58.49,19.42-73.79C420,1282.34,449.29,1301,449.29,1301Z"/><path class="cls-35" d="M369.08,1688.52s-.67-8.44.76-13.84-21.78-2.3-21.78-2.3-3,22.54-2.12,27.7S369.08,1688.52,369.08,1688.52Z"/><path class="cls-32" d="M373.41,1674.71l-31.29,5.64s-2.25-39.92-1.85-70.5c.44-32.88-1.21-58.72,8.83-84.89,9.39-24.48,7.25-33.8,8.07-50.51s-8-102.75-8-102.75-10.68-38.52,14.05-65.7c24.11-26.48,86.46-.11,86.46-.11s-13,117.54-44.17,190.25c-8.83,20.58-4.06,33.08-15.32,64.87C390.17,1561,373.07,1630.35,373.41,1674.71Z"/><path class="cls-36" d="M400.64,1073.48a36.22,36.22,0,0,0-3.7,10.06,86.15,86.15,0,0,0-1.72,10.74,125,125,0,0,0-.63,13.66s-41.73-9.08-34.88-18.81,2.81-39.23,2.81-39.23S406.05,1064.38,400.64,1073.48Z"/><path class="cls-21" d="M424.12,993.1s10.69,9.27,5.91,36c0,0,2.36,21.29,5.62,25s-8.75,5.09-10,7.76-3.65,15.19-12,22.73-49.82-15.19-51.84-28-30.74-67.9,14.72-70.42S424.12,993.1,424.12,993.1Z"/><path class="cls-37" d="M452.72,1190.31c-.84,2.68,2.34,43.8,2,47.35-1.59,19.45,3.44,49,5.41,59.6.47,2.5.74,3.78.74,3.78-45.07,22-107.74,20.11-107.74,20.11.22-1.71,9-22.88,9.19-24.5,3.71-26.46,9.19-38.54,7.7-56.43h0c-.83-10-3.39-20.56-8.69-33.58-15.3-37.6-14.47-62.63-12-83.29s8.69-32.44,8.69-32.44l38.07,4.09c8.08,9,15.27,13.72,38.24,34.11C458.84,1150.81,463.12,1157.39,452.72,1190.31Z"/><path class="cls-34" d="M344.54,1694.23s22-6.26,22.67-6.88.8-1.94,3.84-.73,4.29,5.82,7.27,7.28,21.16,6.77,31.11,11.67c3.6,1.77,18.82,7.57,21,12.42s1.51,12.14-24.65,10.41-54.77,2-60.5-.9S343,1701.8,344.54,1694.23Z"/><path class="cls-38" d="M431.17,1019.49s5.11-55.5-48.7-45.59-26.08,70.57-18.83,90.34c0,0-.88-30.7,25-31.7S419.94,1025.54,431.17,1019.49Z"/><path class="cls-36" d="M384.46,1024.74c-3.24-5.63-14.35-2.63-13.08,6s10.18,17.15,13.13,13S389.22,1033,384.46,1024.74Z"/><path class="cls-36" d="M385.69,1133.78s-4.44,47.55,1.68,53.84c23.34,24.05,115.47,24.51,115.47,24.51l4.4,13.82s-136.94,9.33-149.16-16.19c-14.69-30.65-9-80.65-9-80.65Z"/><path class="cls-38" d="M365.41,987.56S344.69,967.68,330,990.2s17.51,53.93,30.58,35.29S365.41,987.56,365.41,987.56Z"/><path class="cls-39" d="M396.94,1083.54a86.15,86.15,0,0,0-1.72,10.74C381.35,1088,371,1068.65,371,1068.65c10,8.66,25.94,14.89,25.94,14.89Z"/><rect class="cls-40" x="464.42" y="1225.95" width="130.61" height="7.29"/><rect class="cls-40" x="555.89" y="1169.65" width="130.61" height="7.29" transform="translate(-706.15 1199.34) rotate(-63.23)"/><path class="cls-36" d="M483.61,1212.13s19.16-1.47,24.53-5.27,41.6,10.73,42.27,14.09,0,5,0,5H479.29Z"/><polygon class="cls-37" points="358.1 1090.91 360.78 1083.63 397.35 1090.91 397.35 1097.39 358.1 1090.91"/><path class="cls-36" d="M385.63,1134.41s3.93-27.56-15.26-30-21.29,24.78-21.29,24.78Z"/><path class="cls-41" d="M1635.54,1654s2.23,15.6,2.5,17.94,24.77-1.38,24.77-1.38l2-18.57S1638.6,1651.75,1635.54,1654Z"/><path class="cls-42" d="M1637.78,1669.91s-7.75,9.4-15.26,13.5-19.3,5.72-23.73,10c-3.21,3.06-11.67,16.24,19.5,16s46.19,1.87,49.53-3.19-4.83-37.3-4.83-37.3S1655.61,1671.53,1637.78,1669.91Z"/><path class="cls-41" d="M1460.08,1654s2.23,15.6,2.51,17.94,24.76-1.38,24.76-1.38l2-18.57S1463.14,1651.75,1460.08,1654Z"/><path class="cls-42" d="M1462.33,1669.91s-7.76,9.4-15.27,13.5-35.12,7.46-39.55,11.7c-3.21,3.06-8.53,15.39,35.32,14.23,31.15-.81,46.19,1.87,49.53-3.19s-4.83-37.3-4.83-37.3S1480.57,1671.71,1462.33,1669.91Z"/><path class="cls-43" d="M1626.84,1251.18s13,38.71,11.32,72.07,6.74,69.87,10.19,104.72c3.86,38.86,19.63,130.84,20.2,151.62s-2.45,87.14-2.45,87.14l-31.57.73s-26.51-160.8-33.37-177.21-40.92-133.38-42.07-146.5S1626.84,1251.18,1626.84,1251.18Z"/><path class="cls-42" d="M1494.14,1258.07s-17.34,91.44-19.63,111.86-3.82,98.81-5,111.57-7.63,167-13.73,186h40.35s31-112.12,31-165.17S1551.08,1387,1566.53,1352s50.81-35.83,60.31-100.77C1626.84,1251.18,1507,1237.47,1494.14,1258.07Z"/><path class="cls-21" d="M1576.15,945.57s-31.81-11.88-46.48,12.33-13.25,72.7,2.78,78.66,40.13,2.84,48.33-12.31,15.63-37.06,15.27-51.7S1584.5,949.79,1576.15,945.57Z"/><path class="cls-21" d="M1537.79,1035.07s1.29,8.34-.84,12.44,40,4.22,40,4.22,3.42-22.34,9.9-41.22S1537.79,1035.07,1537.79,1035.07Z"/><path class="cls-44" d="M1586.87,1010.51s-2.91,4.8-14.78,2.94-26.35-17.66-31.31-19.39-5-4.65-5-4.65l-3.1,4.53-5.27.34s4.8-14.13-2.44-19.89,7.52-45.73,45.59-32.43c0,0,29.24,8.06,28.18,24.69S1593.42,1002.23,1586.87,1010.51Z"/><path class="cls-29" d="M1534.45,1047s.14-7.85,3.69-8.6,39.27-4.19,43.64-2.47v9.14S1573.36,1050.27,1534.45,1047Z"/><path class="cls-21" d="M1536.57,983.36c.66-2.79,7.75-10.76,10.47-2.22s-4.1,20-7.91,19S1534.88,990.43,1536.57,983.36Z"/><path class="cls-37" d="M1534.45,1047s-19.57,7-42.25,16.67c0,0-26.08,9.74-28.9,38.55-1.5,15.29-17.78,96.44-20.83,103.3S1403.31,1322.71,1402,1325s29.46,15,31.5,14,35-100.61,38.26-108c0,0,19-59.72,19.46-68.62,0,0,.54,25.38,1.56,32.5s-16.85,145.39-16.34,149.2,81.2,8.66,113.5,5.1a395.46,395.46,0,0,0,58.36-11s-25.41-109.12-24.63-121.22c1.7-26.36,10.51-76,10.51-76l26.33,49.65-33.71,86.73,7.72,26.36s62.64-94.66,64.68-103.31-3.07-19.66-6.38-26.78-25-61.32-30.11-69-13.68-38.18-34.45-46.68c-17.37-7.11-46.52-12.94-46.52-12.94Z"/><rect class="cls-45" x="1354.63" y="1251.46" width="152.34" height="106.28" transform="translate(368.88 -314.51) rotate(14.38)"/><path class="cls-46" d="M1389.19,1347.51s-4.22,6.82-5.76,8.76,3.79,3.16,6.07,1.2S1389.19,1347.51,1389.19,1347.51Z"/><path class="cls-47" d="M1419.92,1370.79s2.49-2.6,3-4.27c0,0,.74-3.1,1.4-5.28a14.94,14.94,0,0,1,.58-1.66c.71-1.56,2.73-4.76,3.38-9s2.49-23.08,2.49-23.08l-11.43-2.88-9.19-1.94s-19.84,19.79-20.9,23.64a9.2,9.2,0,0,0-.24,1.11c-.58,3.35.39,6.08.29,7.87,0,.66.06,7.22,1.59,8.45a6.4,6.4,0,0,0,6.06,1.46s4.3,3.16,7.89,3c0,0,3.87,3,8.27,1.54C1413.14,1369.75,1417.41,1372.39,1419.92,1370.79Z"/><path class="cls-37" d="M1464.54,1251.38s-26.19,79.33-31,87.65c0,0-19.21-4-31.5-14l28.76-85.6Z"/><path class="cls-48" d="M2024.29,1346.08s-1.06-18.26-5.9-21.1-2,2.82-2,2.82,2.72,13.25,3.32,18.62C2019.7,1346.68,2024.29,1346.08,2024.29,1346.08Z"/><path class="cls-49" d="M1895.57,962s45.42-3.78,44.18,44-8.81,55,0,88.72-44.28-19.17-44.28-19.17Z"/><path class="cls-36" d="M1857.37,1091.05s-64.34,40.14-69.78,35.87c-7.61-6-28.28-56.9-28.28-56.9l-16.19,7.71s19.31,88.06,45.33,81.57,85.74-43.42,85.74-43.42Z"/><path class="cls-36" d="M1945.06,1257.19s16.73,21.32,22.63,35.42,15.74,45,14.43,69-9.18,68.87-6.89,79,4.59,31.16,7,38.37,12.3,28.21,13.29,49.85-13.78,116.75-13.12,125.61-16.73,3.6-16.73,3.6-5.9-85.92-9.18-100.68-7.21-64.93-10.17-68.54-11-41-9.77-46.89-32.2-94.45-34.17-112.16-51.29-72.56-51.29-72.56S1894.23,1240.71,1945.06,1257.19Z"/><path class="cls-36" d="M1865.24,1257.19s-.85,8.94-1.84,12.22-23.61,86.9-25.9,119-8.2,59.4-9.19,66.27,1,29.82,3,35.72-9.84,145.28-10.83,148.56,7.87,4.27,14.1,3.28,37.72-102.32,35.75-119.37-3.93-53.42,1.64-68.19S1927.68,1333,1928,1326.47,1949.72,1206.93,1865.24,1257.19Z"/><path class="cls-36" d="M1966,1647.57s-1.61,11.32-3.38,14.41-6.61,18.82-8.82,21.76-7.06,25,0,27.64,23.67,7.06,29.26-1.76a36.29,36.29,0,0,0,5.44-24.41c-.88-6.77-7.59-37.81-7.5-40.88S1966,1647.57,1966,1647.57Z"/><path class="cls-37" d="M1956.65,1677.63s-.76,17.13,12.18,17.13,18.67-15.59,18.67-15.59,4.41,7.66,0,24-22.79,12.93-26.91,12.35S1937,1709.75,1956.65,1677.63Z"/><path class="cls-37" d="M1821.84,1632.17s-9.14,16.37-14.58,19.68c-6.77,4.13-19.9,17.38-24.49,18s-21.09,3.54-17.9,12.86c2.61,7.63,42,6.53,46.39,2.71s17.71-17.55,23.06-17.25,3.37,19.8,3.37,19.8h5.81s2-19,2.28-22.23c.72-9.65-6.16-16.75-6.47-22.26s-.62-9.61-.62-9.61Z"/><path class="cls-36" d="M1784.08,1669.4s13,4.48,23-1.26,29.14-14.45,35.91-14.51c0,0-3.69-11.3-3.77-12.56s-.48-7.21-.48-7.21l-16.75-2.69s-10.86,15.95-15.65,19.71S1789.24,1664,1784.08,1669.4Z"/><path class="cls-37" d="M1850.86,1255.71s-4.67,19.43-6.4,25.09-12.77,93.42-15.49,148.32c0,0,66.16,25.08,157.17,20.9,0,0,2.21-100.84-6.15-129.37s-23.5-55.23-34.93-63.46C1934.9,1249.87,1850.86,1255.71,1850.86,1255.71Z"/><path class="cls-36" d="M2001.91,1305a133.09,133.09,0,0,1-3.84,16.08c-2.48,7.9-4.76,10.42-3.77,14.94.75,3.42,4.62,6,5.59,4.88s1.45-14.37,6.95-14.31-1.64,16.45,1.63,15.24,15.88-8.11,15.09-14.8-5.84-11.53-5.51-21.52c.29-9.07-2.53-12.86-2.53-12.86Z"/><path class="cls-21" d="M1738.75,1073.81s7.68,10,12.41,11,9.88-10.21,9.88-10.21l-2.79-10.15Z"/><path class="cls-21" d="M1757.71,1070.47s3.67-11.51,4.18-13.28-1.29-7-4.56-12a105.82,105.82,0,0,0-8.55-11.51c-.73-.73-1.13-1.54-3.53-.46a10,10,0,0,0-3.82,3.31s-3.58,0-5.14,2.83a5.28,5.28,0,0,0-4.6,3.67s-3.29.18-4,2.85a40.77,40.77,0,0,1,1.65,6.9c.06,2,4.06,12,9.37,21C1738.75,1073.81,1746.65,1080.61,1757.71,1070.47Z"/><path class="cls-50" d="M1749.28,1055.53s-4,4.6-4.42,6.45-12-5-12-5S1743.56,1050.86,1749.28,1055.53Z"/><path class="cls-22" d="M1749.38,1034.89s6.4,13.56,4.26,14.73a3.82,3.82,0,0,1-3.64.3l-.34,6.8s-2.76,4.37-6.72.08c0,0-2.16,4.36-5.49-.24,0,0-2.7,2.24-4.62.38s-5.1-11-5.1-11,.19-2.24,4-2.85a5.2,5.2,0,0,1,4.6-3.67s2-3.57,6-3.73a5.91,5.91,0,0,1,6.52-2A6.56,6.56,0,0,1,1749.38,1034.89Z"/><path class="cls-21" d="M1761.76,1056.73s-7.76-6.82-13.63-8.68c-1.33-.42-2.69-.59-3.59.48s-.46,3.74,2.75,6.86,5.93,8.64,5.93,8.64S1757.46,1066.27,1761.76,1056.73Z"/><path class="cls-21" d="M1742.26,1035.68s7.92,14.09,7.83,15.75,5.19-1.17,5.17-2.59-5.74-13.95-6.48-15.11S1743.68,1031.72,1742.26,1035.68Z"/><path class="cls-21" d="M1750.4,1036.44s-12.62-23.55-14.48-22.69c-2.7,1.25-2,7.77,8.67,25.35C1754.94,1056.19,1750.4,1036.44,1750.4,1036.44Z"/><path class="cls-23" d="M1853.92,1139.86l-26-34.47s46.44-36,60.77-13.1C1888.71,1092.29,1889.73,1130,1853.92,1139.86Z"/><path class="cls-23" d="M1838.32,1138.64c.73,11.56,6.64,21.15,7.62,25.33s0,13.77,1.23,23.37,4.92,55.34,3.69,68.37,89.48,7.15,96.36,3.22c0,0-15.28-27.32-15.69-38.63-.14-3.89-2.45-16,3.94-24.85,3.38-4.67,9.64-19.55,15.89-30.42h0c2.42-4.22,5-8.43,6.73-11.56h0a43.91,43.91,0,0,0,3.6-8.93s4-50.18-7-55.83-17-6.64-27.8-7.14a78.61,78.61,0,0,1-17.95-2.7l-25.34,2.7s-16.23,5.66-22.63,6.15-14.51,14.27-13.77,23.12S1837.58,1127.08,1838.32,1138.64Z"/><path class="cls-48" d="M2006.3,1326s-7.33,1.87-6.89,26.65l8.29-1.39s-.15-13.69,2.33-21.16C2010,1330.1,2009.61,1325.25,2006.3,1326Z"/><polygon class="cls-48" points="1975.88 1358.24 2040.48 1339.91 2040.29 1419.48 1976 1458.01 1975.88 1358.24"/><polygon class="cls-48" points="1976 1458.01 1984.1 1459.5 2046.63 1420.61 2045.85 1340.28 2040.48 1339.91 1976 1458.01"/><path class="cls-21" d="M1943.89,1084.1s20.11-.07,29.21,17.64,10.09,36.4,12.3,43,8,45.71,10.21,51.37,15.37,44.06,18.57,65.7a435.07,435.07,0,0,1,3.87,43.61l-16.14-.51s-16-58.89-21.54-72.91c-4.72-12-6.53-32.91-9.24-40.29s-19.43-59.27-22.87-63S1926.72,1087.37,1943.89,1084.1Z"/><path class="cls-23" d="M1950.47,1155.87l41-12.91s-12.57-60.47-47.58-58.86C1915.79,1085.4,1950.47,1155.87,1950.47,1155.87Z"/><path class="cls-21" d="M1900,966.79c-11.26-1.85-37,1-44.32,30.53a93.75,93.75,0,0,0,1.22,14.78c1.23,6.57-6.6,24.66-5.22,25.75s7.38,3,7.38,3,4.26,21.22,11.47,21.87,35-1.86,50.78-25.86S1945.48,974.23,1900,966.79Z"/><path class="cls-21" d="M1881.33,1054.48s.55,3,1.07,7.34c.26,2.23.52,4.83.68,7.58.45,7.62.22,16.44-2.38,22,0,0,14.11,8.74,29.23-12.28,0,0-1.48-26.23,7.21-40.09S1881.33,1054.48,1881.33,1054.48Z"/><path class="cls-49" d="M1855.7,997.32s16.94,14.64,34.89,19.25,27.45,24.78,27.45,24.78,31.76-31.68,12.59-62.42S1855.73,961.9,1855.7,997.32Z"/><path class="cls-39" d="M1882.4,1061.82c.26,2.23.52,4.83.68,7.58a79.29,79.29,0,0,0,24.56-18.21C1898.33,1057.86,1882.4,1061.82,1882.4,1061.82Z"/><path class="cls-49" d="M1893.89,1017.62s18.36,49.37,16.16,61.25c0,0,9.72-1.67,27,3.62C1937.07,1082.49,1928.71,994.42,1893.89,1017.62Z"/><path class="cls-21" d="M1916.18,1080.46s-6,37-28.43,32.84-5.4-31.31-5.4-31.31S1891.09,1074.15,1916.18,1080.46Z"/><path class="cls-51" d="M1479.42,620.19a118.08,118.08,0,1,1-118.07-118.07A117.57,117.57,0,0,1,1479.42,620.19Z"/><path class="cls-13" d="M1445.8,683.5a17,17,0,0,0-2-1.17,1.05,1.05,0,0,1-.11-.07h0c-5.18-2.86-20.37-10.41-50.33-19h0c-5.43-1.66-9.54-2.74-10.95-3.1l-2.54-4a124.82,124.82,0,0,1-.21-14.21c4.22-4.9,8-12.55,10.17-24.49.68.52,1.21-.6,1.21-.6-.38-.68,5.7-15.51,4.6-18.86-.62-1.9-1.88-1.66-2.86-1.1.14-.87.29-1.77.45-2.72,0,0,2.41-22.75-9.11-35.42-1.19-1.14-5.43-1.43-5.43-1.43-18.48-5.66-29.58-3.13-36.52-.16-10.3,8.44-11.08,22.79-10.61,30.7.21,1.87.42,3.75.63,5.58a.28.28,0,0,1,0,.06c.09.73.17,1.44.26,2.15-1-.59-2.22-.89-2.92,1-1.23,3.3,3.26,18.12,3.82,19,0,0,1,1.52,1.73.83,0,0,0,0,0,0,2.13,13,6,21.05,10,26-.3,5.28-1.06,11.49-1.6,15.46l-4.57,4.77h0l-.72.24v0c-51.68,13.79-66.29,23.39-66.29,23.39-1.3.8-2.63,2.94-4,6.12a118.09,118.09,0,0,0,183.84,3.77C1449.52,690.72,1447.92,685.62,1445.8,683.5Z"/><rect class="cls-52" x="529.75" y="527.15" width="2.11" height="199.53"/><rect class="cls-52" x="680.09" y="527.15" width="2.11" height="199.53"/><rect class="cls-52" x="830.43" y="527.15" width="2.11" height="199.53"/><rect class="cls-52" x="980.78" y="527.15" width="2.11" height="199.53"/><rect class="cls-52" x="1131.12" y="527.15" width="2.11" height="199.53"/><rect class="cls-53" x="530.8" y="738.5" width="23.92" height="6.93"/><rect class="cls-54" x="530.8" y="502.56" width="36.01" height="5.2"/><rect class="cls-54" x="530.8" y="512.18" width="51.08" height="5.2"/><rect class="cls-54" x="679.53" y="502.56" width="42.28" height="5.2"/><rect class="cls-54" x="679.53" y="512.18" width="27.03" height="5.2"/><rect class="cls-54" x="832.55" y="502.56" width="26.2" height="5.2"/><rect class="cls-54" x="832.55" y="512.18" width="30.54" height="5.2"/><rect class="cls-54" x="982.89" y="502.56" width="38.16" height="5.2"/><rect class="cls-54" x="982.89" y="512.18" width="30.54" height="5.2"/><rect class="cls-54" x="1132.18" y="502.56" width="22.79" height="5.2"/><rect class="cls-54" x="1132.18" y="512.18" width="18.24" height="5.2"/><rect class="cls-53" x="681.15" y="738.5" width="23.92" height="6.93"/><rect class="cls-53" x="832.55" y="738.5" width="23.92" height="6.93"/><rect class="cls-53" x="982.89" y="738.5" width="23.92" height="6.93"/><rect class="cls-53" x="1133.24" y="738.5" width="23.92" height="6.93"/><path class="cls-55" d="M1080.08,667.39c-46.89,0-87.66-18.23-130.15-37.24-52.47-23.46-106.72-47.73-179-41.08-46.15,4.24-75.12,21.15-100.68,36.06-23.15,13.51-45,25.38-74.66,26.4-47.89,1.64-64.51-16.73-64.79-17.86V621.89h0c.06.2,10.52,20.82,64.74,20.57,26.7-.12,46.4-11.62,69.22-24.93,26.52-15.48,56.57-33,105.15-37.48,75.17-6.91,130.75,18,184.5,42,56.24,25.15,109.91,48.74,177.77,28.27V660C1112.84,665.84,1097.37,667.39,1080.08,667.39Z"/><path class="cls-56" d="M798.6,665.13c-34.61,0-62.06-20.93-88.94-41.43-20.38-15.54-41.52-31.43-65.93-39.26-74.48-23.92-112.59,19.75-112.93,20.14V591.29c.41-.45,7.2-8.39,26.87-16,17.9-6.9,47.94-12.41,89.37.56,26.25,8.21,48.05,24.83,69.14,40.91,42.76,32.61,79.7,60.77,143.84,16.66,48.59-33.41,94.38-65.26,139.44-76.89,44.08-11.38,90-3,133,35.64l-.32,12.06c-91.36-82.53-169.16-30.24-266,36.39C840.48,658.3,818.37,665.13,798.6,665.13Z"/></g></g></svg>