<svg viewBox="0 0 20 20" fill="none" xmlns="http://www.w3.org/2000/svg">
<path d="M6.51074 18.1958C7.1031 19.2572 8.44366 20 9.9997 20C11.5557 20 12.8963 19.2572 13.4887 18.1958H6.51074Z" />
<path d="M9.99953 1.91081C11.0264 1.91081 12.0123 2.0544 12.9273 2.3173V2.22797C12.9273 0.99946 11.6663 0 10.1163 0H9.88332C8.33329 0 7.07227 0.99946 7.07227 2.22797V2.31616C7.98674 2.05405 8.9724 1.91081 9.99953 1.91081Z" />
<path d="M19.24 17.0221H0.760029C0.410412 17.0221 0.0901692 16.8352 0.0174517 16.5641C-0.0545253 16.2958 0.0997957 16.0309 0.412881 15.9162C0.487178 15.878 1.04641 15.5681 1.60628 14.6304C2.63454 12.9085 2.85037 10.4828 2.85037 8.75109C2.85037 5.6266 6.0576 3.08472 9.99974 3.08472C13.9326 3.08472 17.1339 5.61436 17.1491 8.72859C17.1494 8.73606 17.1496 8.74358 17.1496 8.75109C17.1496 10.4828 17.3654 12.9085 18.3937 14.6304C18.9536 15.5681 19.5128 15.8781 19.5871 15.9162C19.9002 16.0309 20.0546 16.2957 19.9825 16.5641C19.9098 16.8352 19.5896 17.0221 19.24 17.0221ZM19.5954 15.9204H19.5959H19.5954Z" />
</svg>
