<svg width="20" height="20" viewBox="0 0 20 20" fill="none" xmlns="http://www.w3.org/2000/svg">
<path d="M2.90931 8.271L0.617065 9.56835L2.90931 10.7848V8.271Z" />
<path d="M19.3647 9.55782L17.1124 8.28223V10.7577L19.3647 9.55782Z" />
<path d="M4.16589 0V8.01594V11.4516L9.99934 14.5473L15.8557 11.4273V8.02552V0L4.16589 0ZM10.6767 11.2212H9.36093V9.9929H10.6767V11.2212ZM10.6471 8.92027H9.3905V8.02021V7.50426C9.3905 7.01558 9.74931 6.5902 10.2631 6.46976C10.7319 6.35988 11.0479 5.95147 11.0144 5.49865C10.9805 5.03886 10.5835 4.66827 10.091 4.63655C9.80967 4.61817 9.54239 4.70651 9.33806 4.88459C9.13344 5.06291 9.02076 5.30488 9.02076 5.56598H7.76414C7.76414 4.9847 8.02527 4.42375 8.48063 4.027C8.94239 3.62465 9.54465 3.42549 10.1775 3.4662C11.2924 3.538 12.1912 4.37706 12.2681 5.41793C12.3416 6.41306 11.6638 7.31355 10.6472 7.58791V8.02122V8.92027H10.6471Z" />
<path d="M17.1124 12.1087L10.1667 15.809L10.0006 15.8974L9.8339 15.809L2.90933 12.1343L0 10.5904V20.0001H20V10.5703L17.1124 12.1087Z" />
</svg>
