<svg width="20" height="20" viewBox="0 0 20 20" fill="none" xmlns="http://www.w3.org/2000/svg">
<path d="M17.6562 1.5625H16.7188V0H15.1562V1.5625H4.84375V0H3.28125V1.5625H2.34375C1.05141 1.5625 0 2.61391 0 3.90625V17.6562C0 18.9486 1.05141 20 2.34375 20H17.6562C18.9486 20 20 18.9486 20 17.6562V3.90625C20 2.61391 18.9486 1.5625 17.6562 1.5625ZM18.4375 17.6562C18.4375 18.087 18.087 18.4375 17.6562 18.4375H2.34375C1.91297 18.4375 1.5625 18.087 1.5625 17.6562V7.34375H18.4375V17.6562ZM18.4375 5.78125H1.5625V3.90625C1.5625 3.47547 1.91297 3.125 2.34375 3.125H3.28125V4.6875H4.84375V3.125H15.1562V4.6875H16.7188V3.125H17.6562C18.087 3.125 18.4375 3.47547 18.4375 3.90625V5.78125Z"/>
<path d="M8.39697 8.98438H6.83447V10.5469H8.39697V8.98438Z" />
<path d="M11.522 8.98438H9.95947V10.5469H11.522V8.98438Z" />
<path d="M14.647 8.98438H13.0845V10.5469H14.647V8.98438Z" />
<path d="M17.772 8.98438H16.2095V10.5469H17.772V8.98438Z" />
<path d="M5.27197 12.1094H3.70947V13.6719H5.27197V12.1094Z" />
<path d="M8.39697 12.1094H6.83447V13.6719H8.39697V12.1094Z" />
<path d="M11.522 12.1094H9.95947V13.6719H11.522V12.1094Z" />
<path d="M14.647 12.1094H13.0845V13.6719H14.647V12.1094Z" />
<path d="M5.27197 15.2344H3.70947V16.7969H5.27197V15.2344Z" />
<path d="M8.39697 15.2344H6.83447V16.7969H8.39697V15.2344Z" />
<path d="M11.522 15.2344H9.95947V16.7969H11.522V15.2344Z" />
<path d="M14.647 15.2344H13.0845V16.7969H14.647V15.2344Z" />
<path d="M17.772 12.1094H16.2095V13.6719H17.772V12.1094Z" />
</svg>
