<svg xmlns="http://www.w3.org/2000/svg" xmlns:xlink="http://www.w3.org/1999/xlink" viewBox="0 0 636.24 400.77"><defs><style>.cls-1,.cls-11,.cls-13,.cls-23,.cls-29,.cls-30,.cls-33,.cls-34,.cls-4,.cls-5,.cls-6{fill:none;}.cls-2{fill:#e3cdc9;}.cls-3{fill:#8155ff;}.cls-13,.cls-23,.cls-30,.cls-4,.cls-5{stroke:#fff;}.cls-11,.cls-13,.cls-34,.cls-4,.cls-5{stroke-miterlimit:10;}.cls-4{stroke-width:0.62px;}.cls-5{stroke-width:1.09px;}.cls-6{stroke:#fafafa;stroke-width:1.1px;}.cls-23,.cls-29,.cls-30,.cls-33,.cls-6{stroke-linecap:round;stroke-linejoin:round;}.cls-7{fill:#fdb9b9;}.cls-8{fill:#fff;}.cls-9{fill:#2b4183;}.cls-10{fill:#ffcb2d;}.cls-11{stroke:#f0e0df;stroke-width:2.21px;}.cls-12{fill:#f88aa0;}.cls-13{stroke-width:2.02px;}.cls-14{fill:#ffa80a;}.cls-15{fill:#f67b91;}.cls-16{fill:#f6f6f6;}.cls-17{opacity:0.71;}.cls-18{clip-path:url(#clip-path);}.cls-19{fill:#8054ff;}.cls-20{fill:#7041fd;}.cls-21{fill:#fa849b;}.cls-22{fill:#181f42;}.cls-23{stroke-width:1.5px;}.cls-24{fill:#ffcd2e;}.cls-25{fill:#f2bb19;}.cls-26{fill:#e6728c;}.cls-27{fill:#312725;}.cls-28{fill:#f8879d;}.cls-29,.cls-33{stroke:#312725;}.cls-29{stroke-width:0.6px;}.cls-30{stroke-width:1.55px;}.cls-31{fill:#243b77;}.cls-32{fill:#32292a;}.cls-33{stroke-width:0.6px;}.cls-34{stroke:#281f27;stroke-width:0.76px;}</style><clipPath id="clip-path"><circle class="cls-1" cx="401.65" cy="307.18" r="60.09"/></clipPath></defs><g id="Layer_2" data-name="Layer 2"><g id="OBJECTS"><path class="cls-2" d="M113.47,343.81A71.12,71.12,0,0,1,128,347h0l.19.07.52.18c26.4,9.42,38.53,7.65,48.91,4.47,28-8.61,44.66-45.68,90.07-38.51,19.26,3,34.76,7.18,46.83,15.6v0l.25.2c1.73,1.21,3.42,2.45,5,3.72,23.61,15.42,47.14-4.68,53.9-9.23.49-.36,1-3.22,1.51-3.58l.42-.32v0c29.59-20.86,76.66-42,122-36.8,78,8.91,109.34,97.33,109.34,97.33H24.42C33.52,359.23,69.92,338.83,113.47,343.81Z"/><rect class="cls-3" x="52.41" y="102.32" width="49.81" height="16.64" rx="1.94" transform="translate(154.63 221.29) rotate(180)"/><line class="cls-4" x1="62.17" y1="108.78" x2="94.79" y2="108.78"/><line class="cls-4" x1="62.17" y1="112.5" x2="71.77" y2="112.5"/><polygon class="cls-3" points="96.29 116.75 96.29 124.28 86.7 116.75 96.29 116.75"/><ellipse class="cls-5" cx="593.04" cy="192.18" rx="5.58" ry="5.66"/><ellipse class="cls-5" cx="31.77" cy="227.85" rx="7.97" ry="8.08"/><path class="cls-5" d="M335.12,59.45a3,3,0,1,1-3-3.08A3.06,3.06,0,0,1,335.12,59.45Z"/><path class="cls-6" d="M73.75,42.92H203.83s-.63-5.17-15.08-9.3-24.83,6.46-41.17,0-25-15.72-46.05-10.56S73.75,42.92,73.75,42.92Z"/><path class="cls-6" d="M486.09,88.54h67.27s-.32-3.25-7.8-5.85-12.83,4.06-21.28,0-12.93-9.89-23.82-6.64A22.69,22.69,0,0,0,486.09,88.54Z"/><circle class="cls-7" cx="428.67" cy="22.05" r="22.05" transform="translate(338.71 441.75) rotate(-80.85)"/><rect class="cls-8" x="187.52" y="149.33" width="228.9" height="229.63"/><path class="cls-3" d="M416.42,113.21v36.12H187.52V113.21a13,13,0,0,1,13-13H403.43A13,13,0,0,1,416.42,113.21Z"/><circle class="cls-9" cx="380.95" cy="122.64" r="10.77"/><path class="cls-10" d="M381,126.69h0a6.17,6.17,0,0,0,6.17-6.17V92.64A6.17,6.17,0,0,0,381,86.47h0a6.18,6.18,0,0,0-6.18,6.17v27.88A6.18,6.18,0,0,0,381,126.69Z"/><circle class="cls-9" cx="304.95" cy="122.64" r="10.77"/><path class="cls-10" d="M305,126.69h0a6.17,6.17,0,0,0,6.17-6.17V92.64A6.17,6.17,0,0,0,305,86.47h0a6.17,6.17,0,0,0-6.17,6.17v27.88A6.17,6.17,0,0,0,305,126.69Z"/><circle class="cls-9" cx="228.95" cy="122.64" r="10.77"/><path class="cls-10" d="M229,126.69h0a6.17,6.17,0,0,0,6.17-6.17V92.64A6.17,6.17,0,0,0,229,86.47h0a6.17,6.17,0,0,0-6.17,6.17v27.88A6.17,6.17,0,0,0,229,126.69Z"/><rect class="cls-11" x="339.07" y="186.23" width="43.52" height="43.52" transform="translate(721.67 415.99) rotate(180)"/><rect class="cls-11" x="281.17" y="186.23" width="43.52" height="43.52" transform="translate(605.86 415.99) rotate(180)"/><rect class="cls-11" x="223.26" y="186.23" width="43.52" height="43.52" transform="translate(490.04 415.99) rotate(180)"/><rect class="cls-11" x="339.07" y="241.48" width="43.52" height="43.52" transform="translate(721.67 526.48) rotate(180)"/><rect class="cls-11" x="281.17" y="241.48" width="43.52" height="43.52" transform="translate(605.86 526.48) rotate(180)"/><rect class="cls-12" x="223.26" y="241.48" width="43.52" height="43.52" transform="translate(490.04 526.48) rotate(180)"/><line class="cls-13" x1="238.99" y1="257.02" x2="251.06" y2="269.46"/><line class="cls-13" x1="251.06" y1="257.02" x2="238.99" y2="269.46"/><rect class="cls-11" x="339.07" y="296.73" width="43.52" height="43.52" transform="translate(721.67 636.98) rotate(180)"/><rect class="cls-11" x="281.17" y="296.73" width="43.52" height="43.52" transform="translate(605.86 636.98) rotate(180)"/><rect class="cls-11" x="223.26" y="296.73" width="43.52" height="43.52" transform="translate(490.04 636.98) rotate(180)"/><rect class="cls-14" x="391.31" y="227.65" width="21.18" height="13.95"/><path class="cls-10" d="M415.76,231.27H388.05a5.71,5.71,0,0,1-5.71-5.71h0a5.72,5.72,0,0,1,5.71-5.72h27.71a5.72,5.72,0,0,1,5.71,5.72h0A5.71,5.71,0,0,1,415.76,231.27Z"/><rect class="cls-14" x="340.34" y="253.04" width="16.89" height="11.91" transform="translate(-80.98 322.49) rotate(-45)"/><path class="cls-10" d="M354.31,248.32,337.63,265a4.31,4.31,0,0,1-6.09,0h0a4.31,4.31,0,0,1,0-6.09l16.69-16.68a4.3,4.3,0,0,1,6.08,0h0A4.31,4.31,0,0,1,354.31,248.32Z"/><circle class="cls-15" cx="401.65" cy="307.18" r="71.59"/><circle class="cls-12" cx="401.65" cy="307.18" r="67.74"/><circle class="cls-16" cx="401.65" cy="307.18" r="60.09"/><g class="cls-17"><g class="cls-18"><polygon class="cls-8" points="335.92 259.64 426.99 400.77 468.14 365.38 378.03 239.06 335.92 259.64"/><polygon class="cls-8" points="384.45 225.64 475.53 366.77 480.82 349.08 390.71 222.76 384.45 225.64"/></g></g><path class="cls-19" d="M402,260.63a1.52,1.52,0,0,1-1.51-1.51v-3.55a1.52,1.52,0,0,1,3,0v3.55A1.52,1.52,0,0,1,402,260.63Z"/><path class="cls-19" d="M402,361a1.52,1.52,0,0,1-1.51-1.52V356a1.52,1.52,0,1,1,3,0v3.54A1.52,1.52,0,0,1,402,361Z"/><path class="cls-19" d="M367.71,274.81a1.55,1.55,0,0,1-1.07-.44l-2.51-2.51a1.51,1.51,0,0,1,2.14-2.14l2.51,2.51a1.51,1.51,0,0,1-1.07,2.58Z"/><path class="cls-19" d="M438.7,345.8a1.47,1.47,0,0,1-1.06-.44l-2.51-2.51a1.51,1.51,0,1,1,2.13-2.14l2.51,2.51a1.51,1.51,0,0,1,0,2.14A1.47,1.47,0,0,1,438.7,345.8Z"/><path class="cls-19" d="M365.2,345.8a1.51,1.51,0,0,1-1.07-2.58l2.51-2.51a1.51,1.51,0,1,1,2.14,2.14l-2.51,2.51A1.47,1.47,0,0,1,365.2,345.8Z"/><path class="cls-19" d="M436.19,274.81a1.51,1.51,0,0,1-1.06-2.58l2.51-2.51a1.51,1.51,0,0,1,2.13,2.14l-2.51,2.51A1.51,1.51,0,0,1,436.19,274.81Z"/><path class="cls-19" d="M353.53,309.05H350a1.51,1.51,0,1,1,0-3h3.55a1.51,1.51,0,1,1,0,3Z"/><path class="cls-19" d="M453.93,309.05h-3.55a1.51,1.51,0,1,1,0-3h3.55a1.51,1.51,0,0,1,0,3Z"/><path class="cls-19" d="M405.57,307h-7.23V275.66a3.61,3.61,0,0,1,3.61-3.61h0a3.61,3.61,0,0,1,3.62,3.61Z"/><circle class="cls-9" cx="401.95" cy="306.97" r="8.28"/><path class="cls-20" d="M154.81,232.53l13.09,57.7a15.6,15.6,0,0,1-5.53,14.39L123.3,335.16,124,307l19.51-15.93L123.3,231Z"/><polygon class="cls-21" points="104.27 335.4 123.07 325.56 115.65 315.08 95.22 326.19 101.74 334.45 104.27 335.4"/><path class="cls-22" d="M99.79,321.78s3.18,11.65,12.33,11l3.53,27.76-27-34.24Z"/><rect class="cls-8" x="78.73" y="342.62" width="43.61" height="4.12" transform="translate(308.93 52.31) rotate(51.74)"/><path class="cls-23" d="M112.58,336.4a16.59,16.59,0,0,0-5.26-.53"/><path class="cls-23" d="M113.36,340.47a16.24,16.24,0,0,0-5.26-.53"/><path class="cls-23" d="M114.14,344.53a16.24,16.24,0,0,0-5.26-.53"/><polygon class="cls-21" points="121.05 369.39 122.96 348.53 110.13 347.87 108.22 370.79 118.74 370.79 121.05 369.39"/><path class="cls-22" d="M106.58,364.47s11.11,4.72,16.27-2.87l24,14.41h-43.6Z"/><rect class="cls-8" x="103.22" y="376.01" width="43.61" height="4.12"/><path class="cls-23" d="M126,363.48a16.5,16.5,0,0,0-3.67,3.81"/><path class="cls-23" d="M129.66,365.39a16.21,16.21,0,0,0-3.68,3.8"/><path class="cls-23" d="M133.33,367.29a16.07,16.07,0,0,0-3.67,3.8"/><polygon class="cls-3" points="111.62 231.12 105.73 352.81 128.05 352.81 144.31 231.52 111.62 231.12"/><polygon class="cls-3" points="154.81 232.53 154.81 232.53 141.28 253.74 138.46 232 154.81 232.53"/><polygon class="cls-21" points="212.82 211.92 199.49 212.96 201.88 199.57 215.8 200.74 212.82 211.92"/><path class="cls-21" d="M224.05,211.27a9.35,9.35,0,1,1,1-13.18A9.35,9.35,0,0,1,224.05,211.27Z"/><path class="cls-21" d="M218.45,194.84s-1.7-3.9-5.66-1-7.47,8.83-1.92,16.42Z"/><path class="cls-21" d="M218.45,194.79l10.73-2.7a1.76,1.76,0,0,1,2.19,1.06h0a1.52,1.52,0,0,1-.81,1.9l-10.9,4.88Z"/><path class="cls-24" d="M162.48,176.16,180.09,204a9.73,9.73,0,0,1-3.17,12.9h0a9.74,9.74,0,0,1-13.46-2.8L144,187.36a10.79,10.79,0,0,1,1.38-13.57h0A10.79,10.79,0,0,1,162.48,176.16Z"/><polygon class="cls-25" points="156.97 205.31 158.01 190.06 161.79 211.97 156.97 205.31"/><path class="cls-24" d="M171,201.24l38.78-4.56-.13,17.71L173.54,219a9,9,0,0,1-10.71-9.17h0A9,9,0,0,1,171,201.24Z"/><path class="cls-21" d="M103.85,253.74s4.33.35,3.62-4.6-4.35-10.93-13.83-9.59Z"/><rect class="cls-24" x="72.56" y="249.84" width="43.52" height="43.52" transform="translate(188.65 543.21) rotate(180)"/><rect class="cls-24" x="74.58" y="249.84" width="43.52" height="43.52" transform="translate(192.67 543.21) rotate(180)"/><path class="cls-21" d="M86.41,250.9a9.52,9.52,0,1,1,11.36,7.23A9.52,9.52,0,0,1,86.41,250.9Z"/><path class="cls-24" d="M105,203.65l-.43,39-17.1-.8L87,204a9,9,0,0,1,10.46-9.46h0A9,9,0,0,1,105,203.65Z"/><path class="cls-24" d="M127,187.3l-23.59,23a9.73,9.73,0,0,1-13.27-.43h0A9.74,9.74,0,0,1,90,196.15l22.14-24.56a10.8,10.8,0,0,1,13.57-1.47h0A10.79,10.79,0,0,1,127,187.3Z"/><path class="cls-24" d="M153.28,170.59l-33.54-2.21c-3-.2-8.42,5.3-8.1,8.31l0,54.43,43.19,1.41,4.39-55.24A6.35,6.35,0,0,0,153.28,170.59Z"/><polygon class="cls-25" points="111.62 202.27 121.36 192.76 111.62 218.51 111.62 202.27"/><path class="cls-26" d="M147.81,148.07a4.55,4.55,0,0,0,4,5,4.5,4.5,0,0,0,4.82-4.18,4.56,4.56,0,0,0-4-5A4.51,4.51,0,0,0,147.81,148.07Z"/><path class="cls-21" d="M145.23,158.84l-.2,11c-.06,3.84-2.4,5.85-6.06,5.75h0c-3.14-.09-6.55-1.68-6.35-5.07l1.13-17.22Z"/><path class="cls-27" d="M145.12,166.12s-8.94.59-11.52-9.51c-.82-3.18,11.68,1.1,11.68,1.1Z"/><path class="cls-28" d="M141.89,162h0c6.25.13,11.51-4.87,11.79-10.14l.53-11a12.12,12.12,0,0,0-10.82-12.88h0c-6.54-.59-13.45,4.31-14,11.06l-.31,8.6A13.77,13.77,0,0,0,141.89,162Z"/><polyline class="cls-29" points="147.17 146.99 147.47 150.6 145.92 150.63"/><path class="cls-27" d="M140.39,139.69s2.56-.18,2.57.9c0,0,0,.73-2.25.84s-2.82-.08-3-.77S139.18,139.67,140.39,139.69Z"/><path class="cls-27" d="M151.1,142.22s-2.11-.27-2.3.74c0,0-.12.69,1.73.87s2.46,0,2.64-.59S152.1,142.25,151.1,142.22Z"/><path class="cls-27" d="M149.48,146.32a1.08,1.08,0,1,0,1.13-1.06A1.1,1.1,0,0,0,149.48,146.32Z"/><path class="cls-27" d="M140.06,145.83a1.08,1.08,0,1,0,1.13-1.06A1.1,1.1,0,0,0,140.06,145.83Z"/><path class="cls-29" d="M142.66,152.19a3.55,3.55,0,0,0,3.59,1.18"/><path class="cls-27" d="M151.63,122.55c-2.39-1-8.51-2.17-9.86,3.24-6.09-.46-15.78-.35-16.75,4.93-1.43,7.75,4.08,15.44,4.08,15.44l1.54.79s3.94-2,2.92-11.33c0,0,14.07,3.39,20.67-.18S158.83,125.65,151.63,122.55Z"/><path class="cls-28" d="M123.31,147.24a4.5,4.5,0,0,0,4,4.92,4.45,4.45,0,0,0,4.77-4.13,4.5,4.5,0,0,0-4-4.92A4.44,4.44,0,0,0,123.31,147.24Z"/><path class="cls-29" d="M129.1,148.86s.28-3.28-2.81-3"/><path class="cls-21" d="M128.38,169l20.08,1.32s.64,6.92-8.29,6.45C130.12,176.18,128.38,169,128.38,169Z"/><polygon class="cls-21" points="548.24 336.33 528.45 327.11 535.59 315.98 557.11 326.44 550.8 335.24 548.24 336.33"/><path class="cls-22" d="M552.2,322.12s-2.71,12.13-12.15,11.89l-2.32,28.69,26.14-36.47Z"/><rect class="cls-8" x="530.09" y="343.58" width="44.87" height="4.24" transform="matrix(-0.58, 0.81, -0.81, -0.58, 1155.41, 98.08)"/><path class="cls-30" d="M539.75,337.76a16.56,16.56,0,0,1,5.38-.79"/><path class="cls-30" d="M539.13,342a17,17,0,0,1,5.39-.79"/><path class="cls-30" d="M538.52,346.18a17,17,0,0,1,5.38-.79"/><path class="cls-31" d="M502.3,215.83s-12.93,48.27-14.84,57.78-5.71,28.55,2.29,35.41,38.7,23.28,38.7,23.28L539.75,312l-18.3-11Z"/><polygon class="cls-21" points="519.74 369.32 515.71 347.86 528.91 347.18 532.95 370.76 522.12 370.76 519.74 369.32"/><path class="cls-22" d="M533.6,364.26s-11.44,4.86-16.74-2.95l-24.67,14.83h44.86Z"/><rect class="cls-8" x="492.19" y="376.14" width="44.87" height="4.24" transform="translate(1029.24 756.52) rotate(180)"/><path class="cls-30" d="M513.63,363.25a16.78,16.78,0,0,1,3.78,3.91"/><path class="cls-30" d="M509.85,365.2a17,17,0,0,1,3.78,3.92"/><path class="cls-30" d="M506.07,367.16a16.78,16.78,0,0,1,3.78,3.91"/><path class="cls-9" d="M502.3,215.83,501,288.64a40,40,0,0,0,.62,7.8l10.82,56.15h22.63l-6.31-63.33c.26-11.65,4.13-24.69,5.58-38.9,0,0,4.43-26.35-7.73-34.4Z"/><path class="cls-21" d="M487.81,205.84l-37-13.55-4.3,7.21,36.08,19.12a8.25,8.25,0,0,0,11.06-9.19h0C493.11,206.53,490.59,206.83,487.81,205.84Z"/><path class="cls-21" d="M446.25,186.8a2.75,2.75,0,0,0-2.58-.81,1.65,1.65,0,0,0-1.05,2.56l.54.87c-1.19.46-3.64.57-8.13-4a2.26,2.26,0,0,0-2.77-.4,1.38,1.38,0,0,0-.42,1.82.41.41,0,0,0,.05.09,2.09,2.09,0,0,0-1.8.19,1.4,1.4,0,0,0-.42,1.83,1.75,1.75,0,0,0,.16.25,1.93,1.93,0,0,0-.85.3,1.39,1.39,0,0,0-.42,1.82,1.92,1.92,0,0,0,.38.53l.18.17-.08.05a1.38,1.38,0,0,0-.42,1.82,2.13,2.13,0,0,0,.38.54,26.3,26.3,0,0,0,3.67,3.12h0l.05,0a18.35,18.35,0,0,0,1.7,1c2.59,1.51,8.14.25,12.91,1l3.72-7Z"/><rect class="cls-24" x="399.36" y="160.32" width="44.62" height="44.62" transform="translate(758.04 -130.44) rotate(113.64)"/><path class="cls-21" d="M446.86,187.54l-3.63-4.23a1.47,1.47,0,0,0-2.23,0h0a1.46,1.46,0,0,0-.2,1.63l1.82,3.61a10,10,0,0,0,2.16,9.14Z"/><path class="cls-21" d="M504.22,206.61l-13.48,10.76a8.22,8.22,0,0,1-9.47.58h0c-4.17-2.57-6.72-4.95-3.71-8.82l14.8-15Z"/><path class="cls-20" d="M514.65,193.73s-1.79,8.84-12.42,16.87l-16.38-15.47,13.26-14.78Z"/><path class="cls-21" d="M540.23,205.42l28.49,35.94,6.45-4.28s-16.35-30.43-23.95-40A8.24,8.24,0,0,0,537,199.36h0C536,202.13,538.33,203.15,540.23,205.42Z"/><path class="cls-21" d="M570.1,248.58a2.68,2.68,0,0,0,1.83,1.9,1.6,1.6,0,0,0,2.08-1.7l0-1c1.23.17,3.37,1.21,5.1,7.17a2.2,2.2,0,0,0,2.18,1.63,1.36,1.36,0,0,0,1.21-1.36s0-.07,0-.11a2,2,0,0,0,1.63.68,1.36,1.36,0,0,0,1.21-1.36,2.71,2.71,0,0,0,0-.29,1.78,1.78,0,0,0,.85.14,1.35,1.35,0,0,0,1.21-1.36,2.08,2.08,0,0,0-.08-.64c0-.08,0-.15-.07-.23h.09a1.34,1.34,0,0,0,1.21-1.36,2,2,0,0,0-.08-.63,25.69,25.69,0,0,0-1.68-4.38h0l0-.06a18.78,18.78,0,0,0-1-1.67c-1.52-2.49-6.85-4-10.56-6.87l-6.45,4.28Z"/><path class="cls-21" d="M536,183.26l13,11.37a8.24,8.24,0,0,1,2.23,9.23h0c-1.8,4.55-3.69,7.48-8,5.21l-17.38-11.94Z"/><path class="cls-3" d="M519.29,175.33a34.53,34.53,0,0,1,20.88,9.22L531.34,201,514,195Z"/><path class="cls-3" d="M505.24,176.31s-10.78,3-10.81,17.42c0,7.89,7.87,22.1,7.87,22.1l24.33.13s3.57-9.91,5.71-18.86-4.71-17.47-13.05-21.77Z"/><polygon class="cls-20" points="531.34 200.97 521.8 194.12 529.16 208.38 531.34 200.97"/><path class="cls-28" d="M511.37,180.93h0c3.38-.5,4.57-2.76,4.07-6.13l-3.75-19.34-10.18,1.63,2.84,18.65A6.17,6.17,0,0,0,511.37,180.93Z"/><path class="cls-32" d="M509.36,159.28s3.3,10.31-5.45,13.82L503.1,167l9-6.8"/><path class="cls-28" d="M501.82,168.27h0c6.35-.6,11.07-5.69,10.53-11.36l-1.76-18.58-10.71,0c-3.95.37-9.38,5.61-9.05,9.13L492.7,159C493.09,163.16,496.47,168.78,501.82,168.27Z"/><path class="cls-28" d="M493.19,152.3l-2.43,6.22a.9.9,0,0,0,.93,1.34l4.19-.39Z"/><path class="cls-27" d="M495.33,149.4s-2.29.07-2.21,1c0,0,.08.65,2.07.55s2.48-.3,2.6-.93S496.39,149.29,495.33,149.4Z"/><path class="cls-27" d="M495.45,153.91a1,1,0,0,1-.81,1.11,1,1,0,0,1-1.09-.83,1,1,0,0,1,.81-1.12A1,1,0,0,1,495.45,153.91Z"/><path class="cls-29" d="M494.72,161.15a2.68,2.68,0,0,0,2.33-1.87"/><path class="cls-28" d="M512.39,174.23l6.9,1.1s-7.24,11.73-14.37,8.92c-8.23-3.25,2.68-9.42,2.68-9.42Z"/><path class="cls-32" d="M509.5,153.14a8.87,8.87,0,0,1-6.41-6.42l-14.25,2.81s-2.21-14.19,14.85-16.87c8.55-1.34,14,2.79,16.9,6.93a13.89,13.89,0,0,1,1.1,13.49,21.86,21.86,0,0,1-8.68,9.48l-1.32-7.1S510.46,153.39,509.5,153.14Z"/><path class="cls-28" d="M516.34,152.12a4.54,4.54,0,0,1-4.49,4.56,4.59,4.59,0,1,1,4.49-4.56Z"/><path class="cls-33" d="M510.37,153.19s0-3.32,3.1-2.79"/><path class="cls-32" d="M539,133.91a11.08,11.08,0,1,1-12.77-9.08A11.08,11.08,0,0,1,539,133.91Z"/><line class="cls-34" x1="636.24" y1="380.73" y2="380.73"/></g></g></svg>