<svg width="20" height="20" viewBox="0 0 20 20" xmlns="http://www.w3.org/2000/svg">
<g clip-path="url(#clip0)">
<path d="M19.7722 18.6726L14.8912 13.7917C16.1045 12.3328 16.8354 10.4593 16.8354 8.41797C16.8354 3.77628 13.0592 0 8.41776 0C3.77618 0 0 3.77628 0 8.41797C0 13.0593 3.77618 16.8353 8.41776 16.8353C10.459 16.8353 12.3326 16.1045 13.7915 14.8912L18.6726 19.7722C18.8244 19.9241 19.0234 20 19.2224 20C19.4214 20 19.6204 19.9241 19.7723 19.7722C20.076 19.4685 20.076 18.9763 19.7722 18.6726ZM1.55518 8.41797C1.55518 4.63381 4.6337 1.55518 8.41776 1.55518C12.2017 1.55518 15.2801 4.63381 15.2801 8.41797C15.2801 12.2018 12.2017 15.2801 8.41776 15.2801C4.6337 15.2801 1.55518 12.2018 1.55518 8.41797Z"/>
</g>
<defs>
<clipPath id="clip0">
<rect width="20" height="20"/>
</clipPath>
</defs>
</svg>
