<svg xmlns="http://www.w3.org/2000/svg" viewBox="0 0 484.47 405.97"><defs><style>.cls-1{isolation:isolate;}.cls-2{fill:#fff;}.cls-3,.cls-7{fill:#e6e6e6;}.cls-4{fill:#333;}.cls-5{fill:#a14723;}.cls-6{fill:#d65e2f;}.cls-7{mix-blend-mode:multiply;}</style></defs><g class="cls-1"><g id="Layer_2" data-name="Layer 2"><g id="Layer_1-2" data-name="Layer 1"><path class="cls-2" d="M414.05,136.53c3.34,8.86,7.55,19.93,2.37,28.89-5.38,9.33-18.09,13.52-26.62,19.28-.12.08-.45.26-.58.37q-8.34-32.77-19.09-64.93c8.05-.74,16.09-1.84,24.18-2,3.95-.06,7.49-.23,10.51,2.58C409.39,125,411.89,130.8,414.05,136.53Z"/><path class="cls-3" d="M386.89,176.11q1.19,4.47,2.33,9c.13-.11.46-.29.58-.37,8.53-5.76,21.24-9.95,26.62-19.28,4.39-7.59,2-16.68-.81-24.68C413.37,159.2,398.76,170.16,386.89,176.11Z"/><path class="cls-2" d="M148.73,385.78c-8,4.79-15.89,10.32-24.19,14.53-4.75,2.41-11.15,4.87-15.87,1-2.65-2.16-4.61-5.53-6.53-8.3-9.48-13.63-16.09-28.56-23.35-43.43C70.2,332,63.69,313.93,58,295.25q29.75-5.19,59.1-12.36c7.53,19.58,16,38.59,27.8,56,2.78,4.1,5.65,8.15,8.66,12.08,3.43,4.46,8.74,8.58,10.72,14C168,375.2,155.84,381.52,148.73,385.78Z"/><path class="cls-2" d="M383.11,310.43c-1.48-.39-2.92-.79-4.31-1.15-16.21-4.12-32.32-8.64-48.4-13.27-26.52-7.63-53-15.61-80.3-20.22-29.95-5.06-60.3-5.56-90.52-2.81-7.49.68-15,1.57-22.41,2.57-11.31-38-22.28-76.18-31.8-114.71C160.76,136.2,206.82,93.49,248.7,50.6c7.54-7.73,15-15.56,22.49-23.3a164.34,164.34,0,0,1,14.69-13.85c1.92-1.56,4-3.16,6.2-4.65,9,14,14.94,30.39,21.09,45.78,8.34,20.83,16.09,41.91,23.56,63.07,5,14.06,10.06,28.16,14.23,42.48,6.7,23.05,12.2,46.51,17.46,69.93C374.36,256.52,380.46,283.38,383.11,310.43Z"/><path class="cls-4" d="M459.24,142.48c8,.73,16,1.15,24,2.13,1.68.21,1.7,2.87,0,2.66-8-1-16-1.4-24-2.13C457.55,145,457.54,142.32,459.24,142.48Z"/><path class="cls-4" d="M444.21,98.11l17.93-17.45c1.23-1.19,3.11.69,1.88,1.88L446.09,100C444.86,101.19,443,99.31,444.21,98.11Z"/><path class="cls-4" d="M438,190.71A233.08,233.08,0,0,1,457.56,209c1.19,1.23-.69,3.11-1.88,1.88a233.08,233.08,0,0,0-19.57-18.27C434.79,191.5,436.68,189.63,438,190.71Z"/><path class="cls-4" d="M404,48.72c-.7,10.23-1.19,20.47-1.9,30.69-.11,1.71-2.77,1.71-2.65,0,.7-10.22,1.19-20.46,1.89-30.69C401.41,47,404.07,47,404,48.72Z"/><path class="cls-4" d="M69.78,221.75c1.51-.77,5-2.49,1.48-5.06-1-.72-5.12.45-6.49.8-3,.78-6,1.89-9,2.91-4.83,1.59-10.47,2.5-15,4.88-3.45,1.81-4.41,4.88.07,5.26,1.29.11,3-.6,4.24-.89q4.23-1,8.37-2.25C58.84,225.76,64.81,224.3,69.78,221.75Zm-14.69-3.91c3.16-1.09,22.58-8.64,20.59,1.26-.66,3.26-4,4.85-6.8,6-5,2-10.22,3.57-15.34,5.11-4.13,1.25-19.24,7.37-18.48-2,.26-3.15,2.36-4.32,5-5.44C45,220.71,50.12,219.48,55.09,217.84Z"/><path class="cls-4" d="M66.94,197.63c-.42-.45-2-.49-2.53-.53-5.48-.45-11.95,2.67-17.08,4.36-4,1.14-10.72,2.33-13.67,5.53a2.25,2.25,0,0,0,.94,3.87,7,7,0,0,0,2.3-.43c5.6-1.12,11.16-2.54,16.62-4.18a78.54,78.54,0,0,0,9.07-3.17,11.75,11.75,0,0,0,2.85-1.44C66.17,201,68.13,198.89,66.94,197.63ZM46.62,198.9c5.05-1.67,18.68-8.21,23.35-2.44,5.31,6.57-12.47,11.37-15.74,12.35-4.53,1.36-9.13,2.54-13.75,3.57-2.09.47-4.76,1.46-6.95,1.15-4.05-.57-4.83-5-2.45-7.73C34.56,201.73,41.8,200.27,46.62,198.9Z"/><path class="cls-4" d="M133.1,276.1a1.4,1.4,0,0,1,.34-.05l1.06-.14C123.24,238,112.32,200.06,102.84,161.7Q68,170,33.39,179.43c-8.43,2.3-20.27,3.7-26.54,10.38C.4,196.67,2.56,209.47,3.52,218a134.26,134.26,0,0,0,18,53.27c4.44,7.45,9.63,15.82,16.17,21.62,4.57,4.06,12.92.94,18.32,0q7.6-1.32,15.19-2.76,31-5.89,61.56-14A1.09,1.09,0,0,1,133.1,276.1Zm15.63,109.68c7.11-4.26,19.31-10.58,15.53-20.84-2-5.38-7.29-9.5-10.72-14-3-3.93-5.88-8-8.66-12.08-11.8-17.42-20.27-36.43-27.8-56Q87.74,290,58,295.25C63.69,313.93,70.2,332,78.79,349.6c7.26,14.87,13.87,29.8,23.35,43.43,1.92,2.77,3.88,6.14,6.53,8.3,4.72,3.85,11.12,1.39,15.87-1C132.84,396.1,140.72,390.57,148.73,385.78Zm230.07-76.5c1.39.36,2.83.76,4.31,1.15-2.65-27.05-8.75-53.91-14.69-80.37-5.26-23.42-10.76-46.88-17.46-69.93-4.17-14.32-9.27-28.42-14.23-42.48-7.47-21.16-15.22-42.24-23.56-63.07C307,39.19,301.08,22.82,292.08,8.8c-2.2,1.49-4.28,3.09-6.2,4.65A164.34,164.34,0,0,0,271.19,27.3C263.67,35,256.24,42.87,248.7,50.6c-41.88,42.89-87.94,85.6-143.33,110.24,9.52,38.53,20.49,76.67,31.8,114.71,7.45-1,14.92-1.89,22.41-2.57,30.22-2.75,60.57-2.25,90.52,2.81,27.26,4.61,53.78,12.59,80.3,20.22C346.48,300.64,362.59,305.16,378.8,309.28Zm11-124.58c8.53-5.76,21.24-9.95,26.62-19.28,5.18-9,1-20-2.37-28.89-2.16-5.73-4.66-11.51-9.23-15.76-3-2.81-6.56-2.64-10.51-2.58-8.09.11-16.13,1.21-24.18,2q10.72,32.12,19.09,64.93C389.35,185,389.68,184.78,389.8,184.7Zm29.41-18.81c-5.41,10.42-18.88,14.91-28.07,21.11a8.85,8.85,0,0,1-1.24.81q5.43,21.62,9.76,43.4c3.11,15.69,5.43,31.46,7.51,47.32,1.29,9.92,3.4,24.26-4.87,32-3.07,2.89-7.25,3.94-11.39,3.82-7.55-.2-15.28-3.12-22.52-5-16.08-4.23-32.06-8.84-48-13.45-27.81-8-55.77-15.93-84.57-19.53-33.94-4.25-68.18-2.42-102,2.31-4.71,1.24-9.42,2.43-14.14,3.6,9.62,25,21.11,50.18,38.83,70.59,5.52,6.36,12.52,13.8,7.29,22.7-4.2,7.13-14,11.58-20.89,15.54-8.78,5-17.62,13.11-27.87,14.7-8.14,1.25-12.16-4.3-16.33-10.19-10.42-14.7-17.61-31-25.43-47.18-8.24-17-14.42-34.65-19.93-52.71l-.29.05c-4.4.75-9.92,2.57-14.42,1.65-3.68-.75-6.07-3.87-8.37-6.58A133.73,133.73,0,0,1,15.67,266.2,137,137,0,0,1,.24,210.69c-.48-8.42-.94-18.05,6.08-24s17.79-7.45,26.36-9.78q35.22-9.6,70.73-18.05,11.11-4.9,21.75-10.81c53.21-29.5,96.71-73.27,138.52-116.75,9.06-9.43,18.07-19.37,29.39-26.14,9.4-5.62,21.25-8.52,28.68,1.53,10.06,13.6,16.52,30.57,23,46q13.38,31.88,24.51,64.88c9.74-.87,19.68-2.66,29.46-1.94,10.2.74,14.71,11.78,17.89,20.2C420.11,145.06,424.13,156.41,419.21,165.89Zm-14,132.31c1.1-6.94,0-13.93-.83-20.83-1-8.22-2.12-16.43-3.47-24.6-2.57-15.67-5.76-31.24-9.38-46.7C378.33,149.79,360.44,93.76,336.81,41c-3.58-8-7.32-16-11.56-23.62-3.87-7-8.21-15.58-17.55-14.87-4.69.36-9.22,2.34-13.39,4.89,10.43,16.19,17.08,35.37,24.08,53.2,8.19,20.87,15.88,41.94,23.26,63.11,4.83,13.85,9.7,27.72,13.58,41.87,6.88,25.1,12.91,50.45,18.41,75.88,5,23,9.94,46.22,12.2,69.66,4.06.86,8.24,1.18,12-.64C402.5,308.17,404.42,303,405.18,298.2Z"/><path class="cls-5" d="M66.94,197.63c1.19,1.26-.77,3.38-1.5,4a11.75,11.75,0,0,1-2.85,1.44,78.54,78.54,0,0,1-9.07,3.17c-5.46,1.64-11,3.06-16.62,4.18a7,7,0,0,1-2.3.43,2.25,2.25,0,0,1-.94-3.87c3-3.2,9.65-4.39,13.67-5.53,5.13-1.69,11.6-4.81,17.08-4.36C65,197.14,66.52,197.18,66.94,197.63Z"/><path class="cls-5" d="M71.26,216.69c3.55,2.57,0,4.29-1.48,5.06-5,2.55-10.94,4-16.28,5.65q-4.14,1.28-8.37,2.25c-1.28.29-3,1-4.24.89-4.48-.38-3.52-3.45-.07-5.26,4.51-2.38,10.15-3.29,15-4.88,3-1,5.93-2.13,9-2.91C66.14,217.14,70.26,216,71.26,216.69Z"/><path class="cls-6" d="M404.35,277.37c.86,6.9,1.93,13.89.83,20.83-.76,4.83-2.68,10-7.35,12.24-3.75,1.82-7.93,1.5-12,.64-2.26-23.44-7.23-46.69-12.2-69.66-5.5-25.43-11.53-50.78-18.41-75.88-3.88-14.15-8.75-28-13.58-41.87-7.38-21.17-15.07-42.24-23.26-63.11-7-17.83-13.65-37-24.08-53.2,4.17-2.55,8.7-4.53,13.39-4.89,9.34-.71,13.68,7.88,17.55,14.87C329.49,25,333.23,33,336.81,41c23.63,52.8,41.52,108.83,54.69,165.11,3.62,15.46,6.81,31,9.38,46.7C402.23,260.94,403.33,269.15,404.35,277.37Z"/><path class="cls-6" d="M134.5,275.91l-1.06.14a1.4,1.4,0,0,0-.34.05,1.09,1.09,0,0,0-.31.08q-30.52,8-61.56,14-7.59,1.44-15.19,2.76c-5.4.93-13.75,4-18.32,0-6.54-5.8-11.73-14.17-16.17-21.62A134.26,134.26,0,0,1,3.52,218c-1-8.54-3.12-21.34,3.33-28.2,6.27-6.68,18.11-8.08,26.54-10.38Q68,170,102.84,161.7C112.32,200.06,123.24,238,134.5,275.91ZM75.68,219.1c2-9.9-17.43-2.35-20.59-1.26-5,1.64-10.13,2.87-15,4.87-2.69,1.12-4.79,2.29-5,5.44-.76,9.38,14.35,3.26,18.48,2,5.12-1.54,10.37-3.15,15.34-5.11C71.66,224,75,222.36,75.68,219.1ZM54.23,208.81c3.27-1,21.05-5.78,15.74-12.35-4.67-5.77-18.3.77-23.35,2.44-4.82,1.37-12.06,2.83-15.54,6.9-2.38,2.77-1.6,7.16,2.45,7.73,2.19.31,4.86-.68,6.95-1.15C45.1,211.35,49.7,210.17,54.23,208.81Z"/><path class="cls-7" d="M385.84,311.08c4.06.86,8.24,1.18,12-.64,4.67-2.27,6.59-7.41,7.35-12.24,1.1-6.94,0-13.93-.83-20.83-.65-5.2-1.33-10.4-2.09-15.59q-12.78-5.23-26.24-9.26C380.14,271.87,383.94,291.41,385.84,311.08Z"/><path class="cls-3" d="M128.93,247.56q4.08,14,8.24,28c7.45-1,14.92-1.89,22.41-2.57,30.22-2.75,60.57-2.25,90.52,2.81,27.26,4.61,53.78,12.59,80.3,20.22,16.08,4.63,32.19,9.15,48.4,13.27,1.39.36,2.83.76,4.31,1.15-1.93-19.71-5.7-39.32-9.9-58.75C296.76,229.44,206.59,234.58,128.93,247.56Z"/><path class="cls-7" d="M37.72,292.9c4.57,4.06,12.92.94,18.32,0q7.6-1.32,15.19-2.76,31-5.89,61.56-14a1.09,1.09,0,0,1,.31-.08,1.4,1.4,0,0,1,.34-.05l1.06-.14Q130.36,262,126.29,248c-39.36,6.69-75.39,15.34-104.67,23.4C26,278.82,31.21,287.13,37.72,292.9Z"/><path class="cls-3" d="M81,318.92c-.62-14.06,23.48-22.9,39.53-27.22q-1.78-4.38-3.48-8.81Q87.74,290,58,295.25C63.69,313.93,70.2,332,78.79,349.6c7.26,14.87,13.87,29.8,23.35,43.43,1.92,2.77,3.88,6.14,6.53,8.3,4.37,3.57,10.18,1.72,14.79-.48C109.37,379.11,81.73,334.59,81,318.92Z"/></g></g></g></svg>