<svg width="20" height="20" viewBox="0 0 20 20" fill="none"
  xmlns="http://www.w3.org/2000/svg">
  <path d="M9.84875 9.63402C11.4352 9.63402 12.8089 9.15932 13.9313 8.22274C15.0537 7.28632 15.6227 6.14054 15.6227 4.81685C15.6227 3.49362 15.0537 2.3477 13.9311 1.41097C12.8085 0.474697 11.435 0 9.84875 0C8.26216 0 6.88882 0.474697 5.76642 1.41112C4.64401 2.34755 4.07484 3.49347 4.07484 4.81685C4.07484 6.14054 4.64401 7.28647 5.7666 8.22289C6.88919 9.15917 8.26271 9.63402 9.84875 9.63402Z" />
  <path d="M19.9515 15.3788C19.9192 14.9891 19.8537 14.564 19.7573 14.1151C19.66 13.6628 19.5347 13.2353 19.3848 12.8445C19.2298 12.4406 19.0191 12.0418 18.7587 11.6595C18.4884 11.2628 18.1709 10.9173 17.8146 10.6331C17.4421 10.3357 16.9859 10.0966 16.4585 9.92218C15.9328 9.74869 15.3503 9.6608 14.7272 9.6608C14.4825 9.6608 14.2458 9.74457 13.7888 9.99283C13.5075 10.1459 13.1785 10.3229 12.8112 10.5186C12.4972 10.6856 12.0718 10.842 11.5464 10.9836C11.0337 11.122 10.5132 11.1922 9.99945 11.1922C9.48571 11.1922 8.96538 11.122 8.45218 10.9836C7.92728 10.8421 7.50187 10.6857 7.18821 10.5188C6.82444 10.3249 6.49524 10.1479 6.20974 9.99267C5.75324 9.74441 5.5164 9.66064 5.27169 9.66064C4.64839 9.66064 4.06606 9.74869 3.54061 9.92233C3.01352 10.0964 2.5572 10.3355 2.18428 10.6332C1.82819 10.9177 1.51051 11.263 1.24056 11.6595C0.980302 12.0418 0.769611 12.4405 0.614518 12.8447C0.464729 13.2354 0.339448 13.6628 0.242149 14.1151C0.145765 14.5634 0.0802897 14.9887 0.0479178 15.3793C0.0160945 15.762 0 16.1592 0 16.5603C0 17.6043 0.397791 18.4495 1.18222 19.0728C1.95695 19.6879 2.98206 19.9999 4.22865 19.9999H15.7713C17.0179 19.9999 18.0427 19.688 18.8176 19.0728C19.6022 18.4499 20 17.6046 20 16.5602C19.9998 16.1572 19.9835 15.7597 19.9515 15.3788Z" />
</svg>
